ZillaSlab-Regular.ufo
<glyph name="quotedbl" format="1">
  <advance width="371"/>
  <unicode hex="0022"/>
  <outline>
    <contour>
      <point x="126" y="377" type="line"/>
      <point x="131" y="650" type="line"/>
      <point x="60" y="650" type="line"/>
      <point x="65" y="377" type="line"/>
    </contour>
    <contour>
      <point x="306" y="377" type="line"/>
      <point x="311" y="650" type="line"/>
      <point x="240" y="650" type="line"/>
      <point x="245" y="377" type="line"/>
    </contour>
  </outline>
</glyph>
<glyph name="numbersign" format="1">
  <advance width="591"/>
  <unicode hex="0023"/>
  <outline>
    <contour>
      <point x="493" y="521" type="line"/>
      <point x="470" y="403" type="line"/>
      <point x="550" y="403" type="line"/>
      <point x="550" y="346" type="line"/>
      <point x="459" y="346" type="line"/>
      <point x="428" y="182" type="line"/>
      <point x="520" y="182" type="line"/>
      <point x="520" y="125" type="line"/>
      <point x="417" y="125" type="line"/>
      <point x="393" y="0" type="line"/>
      <point x="330" y="0" type="line"/>
      <point x="354" y="125" type="line"/>
      <point x="178" y="125" type="line"/>
      <point x="154" y="0" type="line"/>
      <point x="91" y="0" type="line"/>
      <point x="115" y="125" type="line"/>
      <point x="38" y="125" type="line"/>
      <point x="38" y="182" type="line"/>
      <point x="126" y="182" type="line"/>
      <point x="157" y="346" type="line"/>
      <point x="68" y="346" type="line"/>
      <point x="68" y="403" type="line"/>
      <point x="168" y="403" type="line"/>
      <point x="191" y="521" type="line"/>
      <point x="254" y="521" type="line"/>
      <point x="231" y="403" type="line"/>
      <point x="407" y="403" type="line"/>
      <point x="430" y="521" type="line"/>
    </contour>
    <contour>
      <point x="189" y="182" type="line"/>
      <point x="365" y="182" type="line"/>
      <point x="396" y="346" type="line"/>
      <point x="220" y="346" type="line"/>
    </contour>
  </outline>
</glyph>
<glyph name="percent" format="1">
  <advance width="687"/>
  <unicode hex="0025"/>
  <outline>
    <contour>
      <point x="581" y="521" type="line"/>
      <point x="379" y="267" type="line"/>
      <point x="177" y="0" type="line"/>
      <point x="102" y="0" type="line"/>
      <point x="332" y="287" type="line"/>
      <point x="506" y="521" type="line"/>
    </contour>
    <contour>
      <point x="175" y="244" type="curve" smooth="yes"/>
      <point x="269" y="244"/>
      <point x="322" y="301"/>
      <point x="322" y="392" type="curve" smooth="yes"/>
      <point x="322" y="486"/>
      <point x="266" y="531"/>
      <point x="183" y="531" type="curve" smooth="yes"/>
      <point x="97" y="531"/>
      <point x="36" y="480"/>
      <point x="36" y="383" type="curve" smooth="yes"/>
      <point x="36" y="289"/>
      <point x="95" y="244"/>
    </contour>
    <contour>
      <point x="176" y="294" type="curve" smooth="yes"/>
      <point x="123" y="294"/>
      <point x="96" y="325"/>
      <point x="96" y="384" type="curve" smooth="yes"/>
      <point x="96" y="453"/>
      <point x="129" y="481"/>
      <point x="181" y="481" type="curve" smooth="yes"/>
      <point x="235" y="481"/>
      <point x="262" y="452"/>
      <point x="262" y="391" type="curve" smooth="yes"/>
      <point x="262" y="330"/>
      <point x="235" y="294"/>
    </contour>
    <contour>
      <point x="506" y="-10" type="curve" smooth="yes"/>
      <point x="599" y="-10"/>
      <point x="653" y="47"/>
      <point x="653" y="138" type="curve" smooth="yes"/>
      <point x="653" y="232"/>
      <point x="596" y="277"/>
      <point x="514" y="277" type="curve" smooth="yes"/>
      <point x="427" y="277"/>
      <point x="367" y="226"/>
      <point x="367" y="129" type="curve" smooth="yes"/>
      <point x="367" y="34"/>
      <point x="425" y="-10"/>
    </contour>
    <contour>
      <point x="506" y="40" type="curve" smooth="yes"/>
      <point x="453" y="40"/>
      <point x="427" y="70"/>
      <point x="427" y="130" type="curve" smooth="yes"/>
      <point x="427" y="199"/>
      <point x="459" y="227"/>
      <point x="512" y="227" type="curve" smooth="yes"/>
      <point x="565" y="227"/>
      <point x="593" y="198"/>
      <point x="593" y="137" type="curve" smooth="yes"/>
      <point x="593" y="75"/>
      <point x="566" y="40"/>
    </contour>
  </outline>
</glyph>
<glyph name="ampersand" format="1">
  <advance width="730"/>
  <unicode hex="0026"/>
  <outline>
    <contour>
      <point x="427" y="362" type="line"/>
      <point x="707" y="362" type="line"/>
      <point x="707" y="299" type="line"/>
      <point x="602" y="299" type="line"/>
      <point x="577" y="236"/>
      <point x="530" y="159"/>
      <point x="468" y="98" type="curve"/>
      <point x="512" y="73"/>
      <point x="557" y="58"/>
      <point x="601" y="58" type="curve" smooth="yes"/>
      <point x="631" y="58"/>
      <point x="658" y="66"/>
      <point x="682" y="79" type="curve"/>
      <point x="699" y="18" type="line"/>
      <point x="665" y="-1"/>
      <point x="630" y="-10"/>
      <point x="591" y="-10" type="curve" smooth="yes"/>
      <point x="530" y="-10"/>
      <point x="468" y="13"/>
      <point x="410" y="50" type="curve"/>
      <point x="358" y="14"/>
      <point x="300" y="-10"/>
      <point x="237" y="-10" type="curve" smooth="yes"/>
      <point x="140" y="-10"/>
      <point x="47" y="46"/>
      <point x="47" y="154" type="curve" smooth="yes"/>
      <point x="47" y="241"/>
      <point x="108" y="286"/>
      <point x="176" y="324" type="curve"/>
      <point x="152" y="378"/>
      <point x="138" y="431"/>
      <point x="138" y="479" type="curve" smooth="yes"/>
      <point x="138" y="583"/>
      <point x="205" y="660"/>
      <point x="318" y="660" type="curve" smooth="yes"/>
      <point x="412" y="660"/>
      <point x="478" y="606"/>
      <point x="478" y="525" type="curve" smooth="yes"/>
      <point x="478" y="424"/>
      <point x="370" y="374"/>
      <point x="258" y="319" type="curve"/>
      <point x="297" y="246"/>
      <point x="357" y="176"/>
      <point x="423" y="127" type="curve"/>
      <point x="471" y="173"/>
      <point x="506" y="235"/>
      <point x="525" y="299" type="curve"/>
      <point x="427" y="299" type="line"/>
    </contour>
    <contour>
      <point x="405" y="522" type="curve" smooth="yes"/>
      <point x="405" y="561"/>
      <point x="378" y="602"/>
      <point x="316" y="602" type="curve" smooth="yes"/>
      <point x="248" y="602"/>
      <point x="210" y="552"/>
      <point x="210" y="485" type="curve" smooth="yes"/>
      <point x="210" y="445"/>
      <point x="221" y="401"/>
      <point x="240" y="357" type="curve"/>
      <point x="326" y="402"/>
      <point x="405" y="450"/>
    </contour>
    <contour>
      <point x="195" y="285" type="curve"/>
      <point x="149" y="257"/>
      <point x="119" y="220"/>
      <point x="119" y="165" type="curve" smooth="yes"/>
      <point x="119" y="86"/>
      <point x="182" y="52"/>
      <point x="255" y="52" type="curve" smooth="yes"/>
      <point x="294" y="52"/>
      <point x="331" y="63"/>
      <point x="365" y="82" type="curve"/>
      <point x="296" y="137"/>
      <point x="236" y="210"/>
    </contour>
  </outline>
</glyph>
<glyph name="quotesingle" format="1">
  <advance width="191"/>
  <unicode hex="0027"/>
  <outline>
    <contour>
      <point x="126" y="377" type="line"/>
      <point x="131" y="650" type="line"/>
      <point x="60" y="650" type="line"/>
      <point x="65" y="377" type="line"/>
    </contour>
  </outline>
</glyph>
<glyph name="plus" format="1">
  <advance width="421"/>
  <unicode hex="002B"/>
  <outline>
    <contour>
      <point x="37" y="254" type="line"/>
      <point x="187" y="254" type="line"/>
      <point x="187" y="108" type="line"/>
      <point x="240" y="108" type="line"/>
      <point x="240" y="254" type="line"/>
      <point x="384" y="254" type="line"/>
      <point x="384" y="308" type="line"/>
      <point x="240" y="308" type="line"/>
      <point x="240" y="455" type="line"/>
      <point x="187" y="455" type="line"/>
      <point x="187" y="308" type="line"/>
      <point x="37" y="308" type="line"/>
    </contour>
  </outline>
</glyph>
<glyph name="hyphen" format="1">
  <advance width="348"/>
  <unicode hex="002D"/>
  <outline>
    <contour>
      <point x="58" y="261" type="line"/>
      <point x="289" y="261" type="line"/>
      <point x="289" y="200" type="line"/>
      <point x="58" y="200" type="line"/>
    </contour>
  </outline>
</glyph>
<glyph name="zero" format="1">
  <advance width="576"/>
  <unicode hex="0030"/>
  <outline>
    <contour>
      <point x="529" y="259" type="curve" smooth="yes"/>
      <point x="529" y="412"/>
      <point x="454" y="531"/>
      <point x="290" y="531" type="curve" smooth="yes"/>
      <point x="130" y="531"/>
      <point x="47" y="413"/>
      <point x="47" y="256" type="curve" smooth="yes"/>
      <point x="47" y="95"/>
      <point x="128" y="-10"/>
      <point x="286" y="-10" type="curve" smooth="yes"/>
      <point x="442" y="-10"/>
      <point x="529" y="94"/>
    </contour>
    <contour>
      <point x="452" y="262" type="curve" smooth="yes"/>
      <point x="452" y="127"/>
      <point x="393" y="55"/>
      <point x="288" y="55" type="curve" smooth="yes"/>
      <point x="180" y="55"/>
      <point x="125" y="130"/>
      <point x="125" y="261" type="curve" smooth="yes"/>
      <point x="125" y="392"/>
      <point x="179" y="466"/>
      <point x="289" y="466" type="curve" smooth="yes"/>
      <point x="401" y="466"/>
      <point x="452" y="388"/>
    </contour>
  </outline>
</glyph>
<glyph name="two" format="1">
  <advance width="515"/>
  <unicode hex="0032"/>
  <outline>
    <contour>
      <point x="76" y="487" type="curve"/>
      <point x="59" y="377" type="line"/>
      <point x="117" y="370" type="line"/>
      <point x="133" y="445" type="line"/>
      <point x="167" y="460"/>
      <point x="211" y="468"/>
      <point x="239" y="468" type="curve" smooth="yes"/>
      <point x="315" y="468"/>
      <point x="358" y="430"/>
      <point x="358" y="368" type="curve" smooth="yes"/>
      <point x="358" y="269"/>
      <point x="238" y="185"/>
      <point x="48" y="57" type="curve"/>
      <point x="56" y="0" type="line"/>
      <point x="462" y="0" type="line"/>
      <point x="473" y="139" type="line"/>
      <point x="412" y="144" type="line"/>
      <point x="403" y="64" type="line"/>
      <point x="143" y="64" type="line"/>
      <point x="252" y="130"/>
      <point x="436" y="238"/>
      <point x="436" y="376" type="curve" smooth="yes"/>
      <point x="436" y="449"/>
      <point x="386" y="531"/>
      <point x="255" y="531" type="curve" smooth="yes"/>
      <point x="196" y="531"/>
      <point x="124" y="515"/>
    </contour>
  </outline>
</glyph>
<glyph name="three" format="1">
  <advance width="489"/>
  <unicode hex="0033"/>
  <outline>
    <contour>
      <point x="66" y="479" type="curve"/>
      <point x="49" y="369" type="line"/>
      <point x="107" y="362" type="line"/>
      <point x="125" y="443" type="line"/>
      <point x="155" y="459"/>
      <point x="193" y="468"/>
      <point x="221" y="468" type="curve" smooth="yes"/>
      <point x="296" y="468"/>
      <point x="340" y="428"/>
      <point x="340" y="363" type="curve" smooth="yes"/>
      <point x="340" y="307"/>
      <point x="304" y="242"/>
      <point x="178" y="236" type="curve"/>
      <point x="178" y="182" type="line"/>
      <point x="318" y="178"/>
      <point x="367" y="133"/>
      <point x="367" y="54" type="curve" smooth="yes"/>
      <point x="367" y="-12"/>
      <point x="338" y="-78"/>
      <point x="232" y="-78" type="curve" smooth="yes"/>
      <point x="148" y="-78"/>
      <point x="110" y="-33"/>
      <point x="91" y="20" type="curve"/>
      <point x="34" y="0" type="line"/>
      <point x="50" y="-79"/>
      <point x="111" y="-141"/>
      <point x="234" y="-141" type="curve" smooth="yes"/>
      <point x="365" y="-141"/>
      <point x="445" y="-66"/>
      <point x="445" y="50" type="curve" smooth="yes"/>
      <point x="445" y="126"/>
      <point x="411" y="194"/>
      <point x="292" y="214" type="curve"/>
      <point x="292" y="218" type="line"/>
      <point x="386" y="247"/>
      <point x="417" y="307"/>
      <point x="417" y="372" type="curve" smooth="yes"/>
      <point x="417" y="475"/>
      <point x="340" y="531"/>
      <point x="235" y="531" type="curve" smooth="yes"/>
      <point x="168" y="531"/>
      <point x="103" y="504"/>
    </contour>
  </outline>
</glyph>
<glyph name="four" format="1">
  <advance width="539"/>
  <unicode hex="0034"/>
  <outline>
    <contour>
      <point x="408" y="-131" type="line"/>
      <point x="408" y="34" type="line"/>
      <point x="505" y="34" type="line"/>
      <point x="513" y="96" type="line"/>
      <point x="408" y="96" type="line"/>
      <point x="408" y="521" type="line"/>
      <point x="252" y="521" type="line"/>
      <point x="19" y="96" type="line"/>
      <point x="27" y="34" type="line"/>
      <point x="336" y="34" type="line"/>
      <point x="336" y="-131" type="line"/>
    </contour>
    <contour>
      <point x="336" y="96" type="line"/>
      <point x="90" y="96" type="line"/>
      <point x="287" y="458" type="line"/>
      <point x="336" y="458" type="line"/>
    </contour>
  </outline>
</glyph>
<glyph name="five" format="1">
  <advance width="512"/>
  <unicode hex="0035"/>
  <outline>
    <contour>
      <point x="470" y="64" type="curve" smooth="yes"/>
      <point x="470" y="234"/>
      <point x="335" y="268"/>
      <point x="196" y="268" type="curve" smooth="yes"/>
      <point x="180" y="268"/>
      <point x="162" y="268"/>
      <point x="146" y="267" type="curve"/>
      <point x="146" y="458" type="line"/>
      <point x="378" y="458" type="line"/>
      <point x="388" y="377" type="line"/>
      <point x="449" y="383" type="line"/>
      <point x="440" y="521" type="line"/>
      <point x="78" y="521" type="line"/>
      <point x="78" y="227" type="line"/>
      <point x="103" y="203" type="line"/>
      <point x="130" y="205"/>
      <point x="161" y="206"/>
      <point x="187" y="206" type="curve" smooth="yes"/>
      <point x="295" y="206"/>
      <point x="392" y="186"/>
      <point x="392" y="61" type="curve" smooth="yes"/>
      <point x="392" y="-24"/>
      <point x="347" y="-78"/>
      <point x="251" y="-78" type="curve" smooth="yes"/>
      <point x="179" y="-78"/>
      <point x="133" y="-39"/>
      <point x="114" y="20" type="curve"/>
      <point x="57" y="0" type="line"/>
      <point x="73" y="-79"/>
      <point x="138" y="-140"/>
      <point x="257" y="-140" type="curve" smooth="yes"/>
      <point x="391" y="-140"/>
      <point x="470" y="-65"/>
    </contour>
  </outline>
</glyph>
<glyph name="six" format="1">
  <advance width="531"/>
  <unicode hex="0036"/>
  <outline>
    <contour>
      <point x="483" y="205" type="curve" smooth="yes"/>
      <point x="483" y="312"/>
      <point x="432" y="403"/>
      <point x="300" y="403" type="curve" smooth="yes"/>
      <point x="195" y="403"/>
      <point x="144" y="347"/>
      <point x="124" y="293" type="curve"/>
      <point x="124" y="295"/>
      <point x="124" y="312"/>
      <point x="125" y="314" type="curve" smooth="yes"/>
      <point x="127" y="495"/>
      <point x="161" y="597"/>
      <point x="285" y="597" type="curve" smooth="yes"/>
      <point x="342" y="597"/>
      <point x="394" y="572"/>
      <point x="429" y="528" type="curve"/>
      <point x="472" y="572" type="line"/>
      <point x="424" y="631"/>
      <point x="369" y="660"/>
      <point x="286" y="660" type="curve" smooth="yes"/>
      <point x="111" y="660"/>
      <point x="48" y="507"/>
      <point x="48" y="307" type="curve" smooth="yes"/>
      <point x="48" y="125"/>
      <point x="99" y="-10"/>
      <point x="273" y="-10" type="curve" smooth="yes"/>
      <point x="421" y="-10"/>
      <point x="483" y="87"/>
    </contour>
    <contour>
      <point x="409" y="202" type="curve" smooth="yes"/>
      <point x="409" y="111"/>
      <point x="371" y="56"/>
      <point x="275" y="56" type="curve" smooth="yes"/>
      <point x="177" y="56"/>
      <point x="141" y="115"/>
      <point x="129" y="200" type="curve"/>
      <point x="134" y="261"/>
      <point x="173" y="340"/>
      <point x="282" y="340" type="curve" smooth="yes"/>
      <point x="372" y="340"/>
      <point x="409" y="290"/>
    </contour>
  </outline>
</glyph>
<glyph name="nine" format="1">
  <advance width="531"/>
  <unicode hex="0039"/>
  <outline>
    <contour>
      <point x="48" y="316" type="curve" smooth="yes"/>
      <point x="48" y="209"/>
      <point x="99" y="118"/>
      <point x="231" y="118" type="curve" smooth="yes"/>
      <point x="336" y="118"/>
      <point x="387" y="174"/>
      <point x="407" y="228" type="curve"/>
      <point x="407" y="226"/>
      <point x="407" y="209"/>
      <point x="406" y="207" type="curve" smooth="yes"/>
      <point x="404" y="26"/>
      <point x="370" y="-76"/>
      <point x="246" y="-76" type="curve" smooth="yes"/>
      <point x="189" y="-76"/>
      <point x="137" y="-51"/>
      <point x="102" y="-7" type="curve"/>
      <point x="59" y="-51" type="line"/>
      <point x="107" y="-110"/>
      <point x="162" y="-139"/>
      <point x="245" y="-139" type="curve" smooth="yes"/>
      <point x="420" y="-139"/>
      <point x="483" y="14"/>
      <point x="483" y="214" type="curve" smooth="yes"/>
      <point x="483" y="396"/>
      <point x="432" y="531"/>
      <point x="258" y="531" type="curve" smooth="yes"/>
      <point x="111" y="531"/>
      <point x="48" y="434"/>
    </contour>
    <contour>
      <point x="122" y="319" type="curve" smooth="yes"/>
      <point x="122" y="410"/>
      <point x="160" y="465"/>
      <point x="256" y="465" type="curve" smooth="yes"/>
      <point x="354" y="465"/>
      <point x="390" y="406"/>
      <point x="402" y="321" type="curve"/>
      <point x="397" y="260"/>
      <point x="358" y="181"/>
      <point x="249" y="181" type="curve" smooth="yes"/>
      <point x="159" y="181"/>
      <point x="122" y="231"/>
    </contour>
  </outline>
</glyph>
<glyph name="colon" format="1">
  <advance width="224"/>
  <unicode hex="003A"/>
  <outline>
    <contour>
      <point x="65" y="0" type="line"/>
      <point x="159" y="0" type="line"/>
      <point x="159" y="108" type="line"/>
      <point x="65" y="108" type="line"/>
    </contour>
    <contour>
      <point x="65" y="337" type="line"/>
      <point x="159" y="337" type="line"/>
      <point x="159" y="445" type="line"/>
      <point x="65" y="445" type="line"/>
    </contour>
  </outline>
</glyph>
<glyph name="semicolon" format="1">
  <advance width="234"/>
  <unicode hex="003B"/>
  <outline>
    <contour>
      <point x="154" y="114" type="line"/>
      <point x="85" y="114" type="line"/>
      <point x="32" y="-102" type="line"/>
      <point x="101" y="-102" type="line"/>
    </contour>
    <contour>
      <point x="79" y="337" type="line"/>
      <point x="173" y="337" type="line"/>
      <point x="173" y="445" type="line"/>
      <point x="79" y="445" type="line"/>
    </contour>
  </outline>
</glyph>
<glyph name="equal" format="1">
  <advance width="578"/>
  <unicode hex="003D"/>
  <outline>
    <contour>
      <point x="61" y="364" type="line"/>
      <point x="518" y="364" type="line"/>
      <point x="518" y="418" type="line"/>
      <point x="61" y="418" type="line"/>
    </contour>
    <contour>
      <point x="61" y="144" type="line"/>
      <point x="518" y="144" type="line"/>
      <point x="518" y="196" type="line"/>
      <point x="61" y="196" type="line"/>
    </contour>
  </outline>
</glyph>
<glyph name="greater" format="1">
  <advance width="407"/>
  <unicode hex="003E"/>
  <outline>
    <contour>
      <point x="377" y="269" type="line"/>
      <point x="377" y="289" type="line"/>
      <point x="59" y="549" type="line"/>
      <point x="59" y="480" type="line"/>
      <point x="300" y="280" type="line"/>
      <point x="58" y="83" type="line"/>
      <point x="58" y="14" type="line"/>
    </contour>
  </outline>
</glyph>
<glyph name="question" format="1">
  <advance width="446"/>
  <unicode hex="003F"/>
  <outline>
    <contour>
      <point x="106" y="460" type="line"/>
      <point x="119" y="556" type="line"/>
      <point x="149" y="581"/>
      <point x="185" y="595"/>
      <point x="227" y="595" type="curve" smooth="yes"/>
      <point x="300" y="595"/>
      <point x="338" y="560"/>
      <point x="338" y="515" type="curve" smooth="yes"/>
      <point x="338" y="407"/>
      <point x="137" y="386"/>
      <point x="137" y="266" type="curve" smooth="yes"/>
      <point x="137" y="215"/>
      <point x="174" y="176"/>
      <point x="265" y="181" type="curve"/>
      <point x="265" y="231" type="line"/>
      <point x="230" y="231"/>
      <point x="212" y="246"/>
      <point x="212" y="272" type="curve" smooth="yes"/>
      <point x="212" y="359"/>
      <point x="416" y="390"/>
      <point x="416" y="525" type="curve" smooth="yes"/>
      <point x="416" y="609"/>
      <point x="334" y="660"/>
      <point x="232" y="660" type="curve" smooth="yes"/>
      <point x="164" y="660"/>
      <point x="96" y="626"/>
      <point x="56" y="585" type="curve"/>
      <point x="48" y="465" type="line"/>
    </contour>
    <contour>
      <point x="167" y="0" type="line"/>
      <point x="256" y="0" type="line"/>
      <point x="256" y="97" type="line"/>
      <point x="167" y="97" type="line"/>
    </contour>
  </outline>
</glyph>
<glyph name="B" format="1">
  <advance width="604"/>
  <unicode hex="0042"/>
  <outline>
    <contour>
      <point x="564" y="184" type="curve" smooth="yes"/>
      <point x="564" y="267"/>
      <point x="519" y="335"/>
      <point x="425" y="350" type="curve"/>
      <point x="425" y="354" type="line"/>
      <point x="492" y="368"/>
      <point x="537" y="424"/>
      <point x="537" y="494" type="curve" smooth="yes"/>
      <point x="537" y="588"/>
      <point x="473" y="650"/>
      <point x="341" y="650" type="curve" smooth="yes"/>
      <point x="42" y="650" type="line"/>
      <point x="42" y="586" type="line"/>
      <point x="124" y="586" type="line"/>
      <point x="124" y="64" type="line"/>
      <point x="42" y="64" type="line"/>
      <point x="42" y="0" type="line"/>
      <point x="346" y="0" type="line" smooth="yes"/>
      <point x="490" y="0"/>
      <point x="564" y="81"/>
    </contour>
    <contour>
      <point x="486" y="188" type="curve" smooth="yes"/>
      <point x="486" y="101"/>
      <point x="426" y="64"/>
      <point x="333" y="64" type="curve" smooth="yes"/>
      <point x="197" y="64" type="line"/>
      <point x="197" y="306" type="line"/>
      <point x="357" y="306" type="line" smooth="yes"/>
      <point x="442" y="306"/>
      <point x="486" y="261"/>
    </contour>
    <contour>
      <point x="459" y="477" type="curve" smooth="yes"/>
      <point x="459" y="405"/>
      <point x="403" y="366"/>
      <point x="326" y="366" type="curve" smooth="yes"/>
      <point x="197" y="366" type="line"/>
      <point x="197" y="586" type="line"/>
      <point x="329" y="586" type="line" smooth="yes"/>
      <point x="411" y="586"/>
      <point x="459" y="559"/>
    </contour>
  </outline>
</glyph>
<glyph name="D" format="1">
  <advance width="705"/>
  <unicode hex="0044"/>
  <outline>
    <contour>
      <point x="665" y="326" type="curve" smooth="yes"/>
      <point x="665" y="514"/>
      <point x="545" y="650"/>
      <point x="333" y="650" type="curve" smooth="yes"/>
      <point x="42" y="650" type="line"/>
      <point x="42" y="587" type="line"/>
      <point x="124" y="587" type="line"/>
      <point x="124" y="63" type="line"/>
      <point x="42" y="63" type="line"/>
      <point x="42" y="0" type="line"/>
      <point x="336" y="0" type="line" smooth="yes"/>
      <point x="541" y="0"/>
      <point x="665" y="135"/>
    </contour>
    <contour>
      <point x="587" y="325" type="curve" smooth="yes"/>
      <point x="587" y="164"/>
      <point x="497" y="63"/>
      <point x="332" y="63" type="curve" smooth="yes"/>
      <point x="197" y="63" type="line"/>
      <point x="197" y="587" type="line"/>
      <point x="332" y="587" type="line" smooth="yes"/>
      <point x="497" y="587"/>
      <point x="587" y="482"/>
    </contour>
  </outline>
</glyph>
<glyph name="F" format="1">
  <advance width="558"/>
  <unicode hex="0046"/>
  <outline>
    <contour>
      <point x="535" y="463" type="line"/>
      <point x="514" y="650" type="line"/>
      <point x="42" y="650" type="line"/>
      <point x="42" y="586" type="line"/>
      <point x="124" y="586" type="line"/>
      <point x="124" y="64" type="line"/>
      <point x="42" y="64" type="line"/>
      <point x="42" y="0" type="line"/>
      <point x="312" y="0" type="line"/>
      <point x="312" y="64" type="line"/>
      <point x="197" y="64" type="line"/>
      <point x="197" y="269" type="line"/>
      <point x="496" y="269" type="line"/>
      <point x="496" y="333" type="line"/>
      <point x="197" y="333" type="line"/>
      <point x="197" y="586" type="line"/>
      <point x="449" y="586" type="line"/>
      <point x="469" y="456" type="line"/>
    </contour>
  </outline>
</glyph>
<glyph name="G" format="1">
  <advance width="691"/>
  <unicode hex="0047"/>
  <outline>
    <contour>
      <point x="664" y="270" type="line"/>
      <point x="664" y="335" type="line"/>
      <point x="385" y="335" type="line"/>
      <point x="385" y="270" type="line"/>
      <point x="540" y="270" type="line"/>
      <point x="540" y="212" type="line" smooth="yes"/>
      <point x="540" y="133"/>
      <point x="471" y="56"/>
      <point x="353" y="56" type="curve" smooth="yes"/>
      <point x="211" y="56"/>
      <point x="118" y="164"/>
      <point x="118" y="325" type="curve" smooth="yes"/>
      <point x="118" y="483"/>
      <point x="215" y="594"/>
      <point x="361" y="594" type="curve" smooth="yes"/>
      <point x="441" y="594"/>
      <point x="489" y="571"/>
      <point x="525" y="547" type="curve"/>
      <point x="545" y="455" type="line"/>
      <point x="607" y="462" type="line"/>
      <point x="589" y="584" type="line"/>
      <point x="540" y="628"/>
      <point x="461" y="660"/>
      <point x="357" y="660" type="curve" smooth="yes"/>
      <point x="170" y="660"/>
      <point x="40" y="509"/>
      <point x="40" y="322" type="curve" smooth="yes"/>
      <point x="40" y="136"/>
      <point x="162" y="-10"/>
      <point x="340" y="-10" type="curve" smooth="yes"/>
      <point x="436" y="-10"/>
      <point x="509" y="33"/>
      <point x="548" y="90" type="curve"/>
      <point x="557" y="0" type="line"/>
      <point x="613" y="0" type="line"/>
      <point x="613" y="270" type="line"/>
    </contour>
  </outline>
</glyph>
<glyph name="H" format="1">
  <advance width="755"/>
  <unicode hex="0048"/>
  <outline>
    <contour>
      <point x="713" y="0" type="line"/>
      <point x="713" y="64" type="line"/>
      <point x="631" y="64" type="line"/>
      <point x="631" y="586" type="line"/>
      <point x="713" y="586" type="line"/>
      <point x="713" y="650" type="line"/>
      <point x="476" y="650" type="line"/>
      <point x="476" y="586" type="line"/>
      <point x="558" y="586" type="line"/>
      <point x="558" y="362" type="line"/>
      <point x="197" y="362" type="line"/>
      <point x="197" y="586" type="line"/>
      <point x="279" y="586" type="line"/>
      <point x="279" y="650" type="line"/>
      <point x="42" y="650" type="line"/>
      <point x="42" y="586" type="line"/>
      <point x="124" y="586" type="line"/>
      <point x="124" y="64" type="line"/>
      <point x="42" y="64" type="line"/>
      <point x="42" y="0" type="line"/>
      <point x="279" y="0" type="line"/>
      <point x="279" y="64" type="line"/>
      <point x="197" y="64" type="line"/>
      <point x="197" y="300" type="line"/>
      <point x="558" y="300" type="line"/>
      <point x="558" y="64" type="line"/>
      <point x="476" y="64" type="line"/>
      <point x="476" y="0" type="line"/>
    </contour>
  </outline>
</glyph>
<glyph name="J" format="1">
  <advance width="456"/>
  <unicode hex="004A"/>
  <outline>
    <contour>
      <point x="418" y="586" type="line"/>
      <point x="418" y="650" type="line"/>
      <point x="144" y="650" type="line"/>
      <point x="144" y="586" type="line"/>
      <point x="273" y="586" type="line"/>
      <point x="273" y="166" type="line" smooth="yes"/>
      <point x="273" y="101"/>
      <point x="244" y="59"/>
      <point x="173" y="59" type="curve" smooth="yes"/>
      <point x="129" y="59"/>
      <point x="98" y="75"/>
      <point x="70" y="129" type="curve"/>
      <point x="17" y="89" type="line"/>
      <point x="45" y="30"/>
      <point x="94" y="-10"/>
      <point x="179" y="-10" type="curve" smooth="yes"/>
      <point x="284" y="-10"/>
      <point x="346" y="48"/>
      <point x="346" y="166" type="curve" smooth="yes"/>
      <point x="346" y="586" type="line"/>
    </contour>
  </outline>
</glyph>
<glyph name="L" format="1">
  <advance width="545"/>
  <unicode hex="004C"/>
  <outline>
    <contour>
      <point x="511" y="0" type="line"/>
      <point x="531" y="208" type="line"/>
      <point x="466" y="213" type="line"/>
      <point x="446" y="64" type="line"/>
      <point x="197" y="64" type="line"/>
      <point x="197" y="586" type="line"/>
      <point x="306" y="586" type="line"/>
      <point x="306" y="650" type="line"/>
      <point x="42" y="650" type="line"/>
      <point x="42" y="586" type="line"/>
      <point x="124" y="586" type="line"/>
      <point x="124" y="64" type="line"/>
      <point x="42" y="64" type="line"/>
      <point x="42" y="0" type="line"/>
    </contour>
  </outline>
</glyph>
<glyph name="N" format="1">
  <advance width="738"/>
  <unicode hex="004E"/>
  <outline>
    <contour>
      <point x="703" y="586" type="line"/>
      <point x="703" y="650" type="line"/>
      <point x="454" y="650" type="line"/>
      <point x="454" y="586" type="line"/>
      <point x="552" y="586" type="line"/>
      <point x="552" y="149" type="line"/>
      <point x="548" y="149" type="line"/>
      <point x="178" y="650" type="line"/>
      <point x="38" y="650" type="line"/>
      <point x="38" y="586" type="line"/>
      <point x="124" y="586" type="line"/>
      <point x="124" y="64" type="line"/>
      <point x="49" y="64" type="line"/>
      <point x="49" y="0" type="line"/>
      <point x="297" y="0" type="line"/>
      <point x="297" y="64" type="line"/>
      <point x="194" y="64" type="line"/>
      <point x="194" y="512" type="line"/>
      <point x="198" y="512" type="line"/>
      <point x="575" y="0" type="line"/>
      <point x="622" y="0" type="line"/>
      <point x="622" y="586" type="line"/>
    </contour>
    <contour>
      <point x="348" y="727" type="move" name="top"/>
    </contour>
  </outline>
</glyph>
<glyph name="Q" format="1">
  <advance width="736"/>
  <unicode hex="0051"/>
  <outline>
    <contour>
      <point x="690" y="325" type="curve" smooth="yes"/>
      <point x="690" y="510"/>
      <point x="559" y="660"/>
      <point x="364" y="660" type="curve" smooth="yes"/>
      <point x="172" y="660"/>
      <point x="39" y="512"/>
      <point x="39" y="325" type="curve" smooth="yes"/>
      <point x="39" y="141"/>
      <point x="166" y="-10"/>
      <point x="362" y="-10" type="curve" smooth="yes"/>
      <point x="435" y="-10"/>
      <point x="499" y="11"/>
      <point x="550" y="47" type="curve"/>
      <point x="629" y="-33" type="line"/>
      <point x="675" y="13" type="line"/>
      <point x="600" y="89" type="line"/>
      <point x="656" y="150"/>
      <point x="690" y="233"/>
    </contour>
    <contour>
      <point x="611" y="324" type="curve" smooth="yes"/>
      <point x="611" y="252"/>
      <point x="590" y="187"/>
      <point x="550" y="140" type="curve"/>
      <point x="428" y="264" type="line"/>
      <point x="381" y="218" type="line"/>
      <point x="502" y="96" type="line"/>
      <point x="465" y="70"/>
      <point x="418" y="56"/>
      <point x="366" y="56" type="curve" smooth="yes"/>
      <point x="208" y="56"/>
      <point x="118" y="179"/>
      <point x="118" y="326" type="curve" smooth="yes"/>
      <point x="118" y="475"/>
      <point x="210" y="594"/>
      <point x="364" y="594" type="curve" smooth="yes"/>
      <point x="515" y="594"/>
      <point x="611" y="480"/>
    </contour>
  </outline>
</glyph>
<glyph name="T" format="1">
  <advance width="620"/>
  <unicode hex="0054"/>
  <outline>
    <contour>
      <point x="599" y="452" type="line"/>
      <point x="579" y="650" type="line"/>
      <point x="40" y="650" type="line"/>
      <point x="21" y="452" type="line"/>
      <point x="85" y="447" type="line"/>
      <point x="105" y="586" type="line"/>
      <point x="273" y="586" type="line"/>
      <point x="273" y="64" type="line"/>
      <point x="161" y="64" type="line"/>
      <point x="161" y="0" type="line"/>
      <point x="461" y="0" type="line"/>
      <point x="461" y="64" type="line"/>
      <point x="346" y="64" type="line"/>
      <point x="346" y="586" type="line"/>
      <point x="514" y="586" type="line"/>
      <point x="534" y="447" type="line"/>
    </contour>
  </outline>
</glyph>
<glyph name="X" format="1">
  <advance width="632"/>
  <unicode hex="0058"/>
  <outline>
    <contour>
      <point x="625" y="0" type="line"/>
      <point x="625" y="64" type="line"/>
      <point x="563" y="64" type="line"/>
      <point x="354" y="337" type="line"/>
      <point x="543" y="586" type="line"/>
      <point x="615" y="586" type="line"/>
      <point x="615" y="650" type="line"/>
      <point x="395" y="650" type="line"/>
      <point x="395" y="586" type="line"/>
      <point x="461" y="586" type="line"/>
      <point x="317" y="386" type="line"/>
      <point x="166" y="586" type="line"/>
      <point x="239" y="586" type="line"/>
      <point x="239" y="650" type="line"/>
      <point x="17" y="650" type="line"/>
      <point x="17" y="586" type="line"/>
      <point x="82" y="586" type="line"/>
      <point x="275" y="336" type="line"/>
      <point x="73" y="64" type="line"/>
      <point x="6" y="64" type="line"/>
      <point x="6" y="0" type="line"/>
      <point x="230" y="0" type="line"/>
      <point x="230" y="64" type="line"/>
      <point x="153" y="64" type="line"/>
      <point x="312" y="286" type="line"/>
      <point x="478" y="64" type="line"/>
      <point x="398" y="64" type="line"/>
      <point x="398" y="0" type="line"/>
    </contour>
  </outline>
</glyph>
<glyph name="Z" format="1">
  <advance width="577"/>
  <unicode hex="005A"/>
  <outline>
    <contour>
      <point x="514" y="0" type="line"/>
      <point x="540" y="193" type="line"/>
      <point x="477" y="202" type="line"/>
      <point x="449" y="64" type="line"/>
      <point x="135" y="64" type="line"/>
      <point x="135" y="67" type="line"/>
      <point x="521" y="610" type="line"/>
      <point x="519" y="650" type="line"/>
      <point x="71" y="650" type="line"/>
      <point x="46" y="462" type="line"/>
      <point x="108" y="453" type="line"/>
      <point x="136" y="586" type="line"/>
      <point x="416" y="586" type="line"/>
      <point x="416" y="583" type="line"/>
      <point x="32" y="44" type="line"/>
      <point x="34" y="0" type="line"/>
    </contour>
  </outline>
</glyph>
<glyph name="bracketleft" format="1">
  <advance width="282"/>
  <unicode hex="005B"/>
  <outline>
    <contour>
      <point x="84" y="-213" type="line"/>
      <point x="261" y="-213" type="line"/>
      <point x="261" y="-161" type="line"/>
      <point x="147" y="-161" type="line"/>
      <point x="147" y="698" type="line"/>
      <point x="261" y="698" type="line"/>
      <point x="261" y="750" type="line"/>
      <point x="84" y="750" type="line"/>
    </contour>
  </outline>
</glyph>
<glyph name="bracketright" format="1">
  <advance width="282"/>
  <unicode hex="005D"/>
  <outline>
    <contour>
      <point x="197" y="-213" type="line"/>
      <point x="20" y="-213" type="line"/>
      <point x="20" y="-161" type="line"/>
      <point x="134" y="-161" type="line"/>
      <point x="134" y="698" type="line"/>
      <point x="20" y="698" type="line"/>
      <point x="20" y="750" type="line"/>
      <point x="197" y="750" type="line"/>
    </contour>
  </outline>
</glyph>
<glyph name="underscore" format="1">
  <advance width="534"/>
  <unicode hex="005F"/>
  <outline>
    <contour>
      <point x="52" y="-74" type="line"/>
      <point x="484" y="-74" type="line"/>
      <point x="484" y="-125" type="line"/>
      <point x="52" y="-125" type="line"/>
    </contour>
  </outline>
</glyph>
<glyph name="grave" format="1">
  <advance width="440"/>
  <unicode hex="0060"/>
  <outline>
    <contour>
      <point x="352" y="551" type="line"/>
      <point x="198" y="683" type="line"/>
      <point x="158" y="624" type="line"/>
      <point x="331" y="520" type="line"/>
    </contour>
  </outline>
</glyph>
<glyph name="a" format="1">
  <advance width="483"/>
  <unicode hex="0061"/>
  <outline>
    <contour>
      <point x="81" y="411" type="curve"/>
      <point x="65" y="308" type="line"/>
      <point x="123" y="301" type="line"/>
      <point x="140" y="378" type="line"/>
      <point x="167" y="391"/>
      <point x="196" y="396"/>
      <point x="226" y="396" type="curve" smooth="yes"/>
      <point x="306" y="396"/>
      <point x="327" y="352"/>
      <point x="327" y="288" type="curve" smooth="yes"/>
      <point x="327" y="248" type="line"/>
      <point x="303" y="250"/>
      <point x="275" y="252"/>
      <point x="248" y="252" type="curve" smooth="yes"/>
      <point x="148" y="252"/>
      <point x="40" y="227"/>
      <point x="40" y="115" type="curve" smooth="yes"/>
      <point x="40" y="20"/>
      <point x="116" y="-10"/>
      <point x="175" y="-10" type="curve" smooth="yes"/>
      <point x="247" y="-10"/>
      <point x="299" y="34"/>
      <point x="327" y="82" type="curve"/>
      <point x="327" y="80" type="line" smooth="yes"/>
      <point x="328" y="25"/>
      <point x="356" y="-10"/>
      <point x="408" y="-10" type="curve" smooth="yes"/>
      <point x="429" y="-10"/>
      <point x="450" y="-4"/>
      <point x="466" y="5" type="curve"/>
      <point x="465" y="51" type="line"/>
      <point x="456" y="47"/>
      <point x="444" y="45"/>
      <point x="435" y="45" type="curve" smooth="yes"/>
      <point x="409" y="45"/>
      <point x="397" y="60"/>
      <point x="397" y="93" type="curve" smooth="yes"/>
      <point x="397" y="305" type="line" smooth="yes"/>
      <point x="397" y="405"/>
      <point x="341" y="454"/>
      <point x="238" y="454" type="curve" smooth="yes"/>
      <point x="180" y="454"/>
      <point x="127" y="442"/>
    </contour>
    <contour>
      <point x="327" y="167" type="line"/>
      <point x="322" y="94"/>
      <point x="258" y="48"/>
      <point x="196" y="48" type="curve" smooth="yes"/>
      <point x="157" y="48"/>
      <point x="113" y="66"/>
      <point x="113" y="123" type="curve" smooth="yes"/>
      <point x="113" y="192"/>
      <point x="178" y="206"/>
      <point x="244" y="206" type="curve" smooth="yes"/>
      <point x="274" y="206"/>
      <point x="302" y="203"/>
      <point x="327" y="201" type="curve"/>
    </contour>
    <contour>
      <point x="165" y="566" type="move" name="top"/>
    </contour>
  </outline>
</glyph>
<glyph name="b" format="1">
  <advance width="534"/>
  <unicode hex="0062"/>
  <outline>
    <contour>
      <point x="496" y="234" type="curve" smooth="yes"/>
      <point x="496" y="375"/>
      <point x="416" y="454"/>
      <point x="305" y="454" type="curve" smooth="yes"/>
      <point x="220" y="454"/>
      <point x="173" y="408"/>
      <point x="146" y="353" type="curve"/>
      <point x="146" y="688" type="line"/>
      <point x="-1" y="688" type="line"/>
      <point x="-1" y="631" type="line"/>
      <point x="76" y="631" type="line"/>
      <point x="76" y="130" type="line" smooth="yes"/>
      <point x="76" y="86"/>
      <point x="68" y="39"/>
      <point x="62" y="0" type="curve"/>
      <point x="132" y="0" type="line"/>
      <point x="142" y="74" type="line"/>
      <point x="170" y="20"/>
      <point x="228" y="-10"/>
      <point x="298" y="-10" type="curve" smooth="yes"/>
      <point x="439" y="-10"/>
      <point x="496" y="116"/>
    </contour>
    <contour>
      <point x="422" y="227" type="curve" smooth="yes"/>
      <point x="422" y="135"/>
      <point x="381" y="50"/>
      <point x="283" y="50" type="curve" smooth="yes"/>
      <point x="206" y="50"/>
      <point x="146" y="109"/>
      <point x="146" y="184" type="curve" smooth="yes"/>
      <point x="146" y="251" type="line"/>
      <point x="149" y="317"/>
      <point x="203" y="394"/>
      <point x="288" y="394" type="curve" smooth="yes"/>
      <point x="363" y="394"/>
      <point x="422" y="338"/>
    </contour>
    <contour>
      <point x="264" y="566" type="move" name="top"/>
    </contour>
  </outline>
</glyph>
<glyph name="c" format="1">
  <advance width="462"/>
  <unicode hex="0063"/>
  <outline>
    <contour>
      <point x="428" y="150" type="curve"/>
      <point x="368" y="163" type="line"/>
      <point x="355" y="90"/>
      <point x="317" y="50"/>
      <point x="248" y="50" type="curve" smooth="yes"/>
      <point x="160" y="50"/>
      <point x="112" y="113"/>
      <point x="112" y="220" type="curve" smooth="yes"/>
      <point x="112" y="316"/>
      <point x="150" y="394"/>
      <point x="245" y="394" type="curve" smooth="yes"/>
      <point x="283" y="394"/>
      <point x="313" y="386"/>
      <point x="340" y="369" type="curve"/>
      <point x="357" y="294" type="line"/>
      <point x="415" y="301" type="line"/>
      <point x="398" y="408" type="line"/>
      <point x="353" y="442"/>
      <point x="305" y="454"/>
      <point x="246" y="454" type="curve" smooth="yes"/>
      <point x="108" y="454"/>
      <point x="38" y="339"/>
      <point x="38" y="216" type="curve" smooth="yes"/>
      <point x="38" y="73"/>
      <point x="117" y="-10"/>
      <point x="240" y="-10" type="curve" smooth="yes"/>
      <point x="363" y="-10"/>
      <point x="416" y="72"/>
    </contour>
  </outline>
</glyph>
<glyph name="f" format="1">
  <advance width="319"/>
  <unicode hex="0066"/>
  <outline>
    <contour>
      <point x="260" y="698" type="curve" smooth="yes"/>
      <point x="174" y="698"/>
      <point x="103" y="632"/>
      <point x="103" y="528" type="curve" smooth="yes"/>
      <point x="103" y="445" type="line"/>
      <point x="39" y="445" type="line"/>
      <point x="39" y="389" type="line"/>
      <point x="103" y="389" type="line"/>
      <point x="103" y="57" type="line"/>
      <point x="26" y="57" type="line"/>
      <point x="26" y="0" type="line"/>
      <point x="275" y="0" type="line"/>
      <point x="275" y="57" type="line"/>
      <point x="174" y="57" type="line"/>
      <point x="174" y="389" type="line"/>
      <point x="289" y="389" type="line"/>
      <point x="289" y="445" type="line"/>
      <point x="174" y="445" type="line"/>
      <point x="174" y="534" type="line" smooth="yes"/>
      <point x="174" y="603"/>
      <point x="203" y="640"/>
      <point x="253" y="640" type="curve" smooth="yes"/>
      <point x="272" y="640"/>
      <point x="289" y="638"/>
      <point x="304" y="632" type="curve"/>
      <point x="323" y="556" type="line"/>
      <point x="380" y="563" type="line"/>
      <point x="363" y="666" type="line"/>
      <point x="332" y="692"/>
      <point x="301" y="698"/>
    </contour>
  </outline>
</glyph>
<glyph name="j" format="1">
  <advance width="252"/>
  <unicode hex="006A"/>
  <outline>
    <contour>
      <point x="177" y="-13" type="curve" smooth="yes"/>
      <point x="177" y="445" type="line"/>
      <point x="7" y="445" type="line"/>
      <point x="7" y="388" type="line"/>
      <point x="106" y="388" type="line"/>
      <point x="106" y="-13" type="line" smooth="yes"/>
      <point x="106" y="-157"/>
      <point x="39" y="-170"/>
      <point x="-16" y="-170" type="curve"/>
      <point x="-14" y="-224" type="line"/>
      <point x="96" y="-233"/>
      <point x="177" y="-183"/>
    </contour>
    <contour>
      <point x="101" y="560" type="line"/>
      <point x="177" y="560" type="line"/>
      <point x="177" y="651" type="line"/>
      <point x="101" y="651" type="line"/>
    </contour>
  </outline>
</glyph>
<glyph name="l" format="1">
  <advance width="266"/>
  <unicode hex="006C"/>
  <outline>
    <contour>
      <point x="246" y="0" type="line"/>
      <point x="246" y="57" type="line"/>
      <point x="168" y="57" type="line"/>
      <point x="168" y="688" type="line"/>
      <point x="19" y="688" type="line"/>
      <point x="19" y="631" type="line"/>
      <point x="98" y="631" type="line"/>
      <point x="98" y="57" type="line"/>
      <point x="20" y="57" type="line"/>
      <point x="20" y="0" type="line"/>
    </contour>
    <contour>
      <point x="289" y="566" type="move" name="top"/>
    </contour>
  </outline>
</glyph>
<glyph name="m" format="1">
  <advance width="863"/>
  <unicode hex="006D"/>
  <outline>
    <contour>
      <point x="854" y="0" type="line"/>
      <point x="854" y="57" type="line"/>
      <point x="776" y="57" type="line"/>
      <point x="776" y="285" type="line" smooth="yes"/>
      <point x="776" y="403"/>
      <point x="712" y="454"/>
      <point x="627" y="454" type="curve" smooth="yes"/>
      <point x="550" y="454"/>
      <point x="497" y="409"/>
      <point x="470" y="347" type="curve"/>
      <point x="451" y="421"/>
      <point x="396" y="454"/>
      <point x="327" y="454" type="curve" smooth="yes"/>
      <point x="256" y="454"/>
      <point x="207" y="416"/>
      <point x="178" y="362" type="curve"/>
      <point x="178" y="445" type="line"/>
      <point x="29" y="445" type="line"/>
      <point x="29" y="388" type="line"/>
      <point x="108" y="388" type="line"/>
      <point x="108" y="57" type="line"/>
      <point x="30" y="57" type="line"/>
      <point x="30" y="0" type="line"/>
      <point x="260" y="0" type="line"/>
      <point x="260" y="57" type="line"/>
      <point x="178" y="57" type="line"/>
      <point x="178" y="263" type="line"/>
      <point x="180" y="320"/>
      <point x="224" y="395"/>
      <point x="307" y="395" type="curve" smooth="yes"/>
      <point x="365" y="395"/>
      <point x="406" y="361"/>
      <point x="406" y="264" type="curve" smooth="yes"/>
      <point x="406" y="57" type="line"/>
      <point x="342" y="57" type="line"/>
      <point x="342" y="0" type="line"/>
      <point x="554" y="0" type="line"/>
      <point x="554" y="57" type="line"/>
      <point x="477" y="57" type="line"/>
      <point x="477" y="261" type="line"/>
      <point x="479" y="317"/>
      <point x="523" y="395"/>
      <point x="605" y="395" type="curve" smooth="yes"/>
      <point x="664" y="395"/>
      <point x="706" y="360"/>
      <point x="706" y="264" type="curve" smooth="yes"/>
      <point x="706" y="57" type="line"/>
      <point x="641" y="57" type="line"/>
      <point x="641" y="0" type="line"/>
    </contour>
    <contour>
      <point x="293" y="566" type="move" name="top"/>
    </contour>
  </outline>
</glyph>
<glyph name="p" format="1">
  <advance width="550"/>
  <unicode hex="0070"/>
  <outline>
    <contour>
      <point x="512" y="235" type="curve" smooth="yes"/>
      <point x="512" y="373"/>
      <point x="434" y="454"/>
      <point x="320" y="454" type="curve" smooth="yes"/>
      <point x="238" y="454"/>
      <point x="189" y="406"/>
      <point x="162" y="352" type="curve"/>
      <point x="162" y="445" type="line"/>
      <point x="12" y="445" type="line"/>
      <point x="12" y="388" type="line"/>
      <point x="92" y="388" type="line"/>
      <point x="92" y="-156" type="line"/>
      <point x="13" y="-156" type="line"/>
      <point x="13" y="-213" type="line"/>
      <point x="265" y="-213" type="line"/>
      <point x="265" y="-156" type="line"/>
      <point x="162" y="-156" type="line"/>
      <point x="162" y="65" type="line"/>
      <point x="192" y="16"/>
      <point x="246" y="-10"/>
      <point x="309" y="-10" type="curve" smooth="yes"/>
      <point x="454" y="-10"/>
      <point x="512" y="116"/>
    </contour>
    <contour>
      <point x="438" y="229" type="curve" smooth="yes"/>
      <point x="438" y="134"/>
      <point x="395" y="50"/>
      <point x="295" y="50" type="curve" smooth="yes"/>
      <point x="221" y="50"/>
      <point x="162" y="107"/>
      <point x="162" y="182" type="curve" smooth="yes"/>
      <point x="162" y="248" type="line"/>
      <point x="165" y="316"/>
      <point x="222" y="394"/>
      <point x="302" y="394" type="curve" smooth="yes"/>
      <point x="380" y="394"/>
      <point x="438" y="336"/>
    </contour>
    <contour>
      <point x="294" y="566" type="move" name="top"/>
    </contour>
  </outline>
</glyph>
<glyph name="t" format="1">
  <advance width="371"/>
  <unicode hex="0074"/>
  <outline>
    <contour>
      <point x="366" y="120" type="curve"/>
      <point x="313" y="137" type="line"/>
      <point x="300" y="65"/>
      <point x="267" y="51"/>
      <point x="232" y="51" type="curve" smooth="yes"/>
      <point x="178" y="51"/>
      <point x="157" y="86"/>
      <point x="157" y="140" type="curve" smooth="yes"/>
      <point x="157" y="389" type="line"/>
      <point x="331" y="389" type="line"/>
      <point x="331" y="445" type="line"/>
      <point x="157" y="445" type="line"/>
      <point x="157" y="588" type="line"/>
      <point x="87" y="588" type="line"/>
      <point x="87" y="445" type="line"/>
      <point x="15" y="445" type="line"/>
      <point x="15" y="389" type="line"/>
      <point x="87" y="389" type="line"/>
      <point x="87" y="131" type="line" smooth="yes"/>
      <point x="87" y="44"/>
      <point x="136" y="-10"/>
      <point x="225" y="-10" type="curve" smooth="yes"/>
      <point x="305" y="-10"/>
      <point x="354" y="34"/>
    </contour>
  </outline>
</glyph>
<glyph name="v" format="1">
  <advance width="509"/>
  <unicode hex="0076"/>
  <outline>
    <contour>
      <point x="500" y="388" type="line"/>
      <point x="500" y="445" type="line"/>
      <point x="305" y="445" type="line"/>
      <point x="305" y="388" type="line"/>
      <point x="376" y="388" type="line"/>
      <point x="265" y="95" type="line"/>
      <point x="259" y="95" type="line"/>
      <point x="135" y="388" type="line"/>
      <point x="212" y="388" type="line"/>
      <point x="212" y="445" type="line"/>
      <point x="7" y="445" type="line"/>
      <point x="7" y="388" type="line"/>
      <point x="59" y="388" type="line"/>
      <point x="229" y="0" type="line"/>
      <point x="283" y="0" type="line"/>
      <point x="446" y="388" type="line"/>
    </contour>
  </outline>
</glyph>
<glyph name="x" format="1">
  <advance width="514"/>
  <unicode hex="0078"/>
  <outline>
    <contour>
      <point x="498" y="0" type="line"/>
      <point x="498" y="57" type="line"/>
      <point x="442" y="57" type="line"/>
      <point x="299" y="226" type="line"/>
      <point x="438" y="388" type="line"/>
      <point x="490" y="388" type="line"/>
      <point x="490" y="445" type="line"/>
      <point x="312" y="445" type="line"/>
      <point x="312" y="388" type="line"/>
      <point x="365" y="388" type="line"/>
      <point x="262" y="262" type="line"/>
      <point x="162" y="388" type="line"/>
      <point x="222" y="388" type="line"/>
      <point x="222" y="445" type="line"/>
      <point x="19" y="445" type="line"/>
      <point x="19" y="388" type="line"/>
      <point x="79" y="388" type="line"/>
      <point x="220" y="222" type="line"/>
      <point x="80" y="57" type="line"/>
      <point x="19" y="57" type="line"/>
      <point x="19" y="0" type="line"/>
      <point x="204" y="0" type="line"/>
      <point x="204" y="57" type="line"/>
      <point x="151" y="57" type="line"/>
      <point x="256" y="185" type="line"/>
      <point x="360" y="57" type="line"/>
      <point x="302" y="57" type="line"/>
      <point x="302" y="0" type="line"/>
    </contour>
  </outline>
</glyph>
<glyph name="z" format="1">
  <advance width="464"/>
  <unicode hex="007A"/>
  <outline>
    <contour>
      <point x="413" y="0" type="line"/>
      <point x="437" y="138" type="line"/>
      <point x="380" y="147" type="line"/>
      <point x="357" y="57" type="line"/>
      <point x="128" y="57" type="line"/>
      <point x="410" y="403" type="line"/>
      <point x="407" y="445" type="line"/>
      <point x="49" y="445" type="line"/>
      <point x="37" y="306" type="line"/>
      <point x="93" y="299" type="line"/>
      <point x="106" y="388" type="line"/>
      <point x="316" y="388" type="line"/>
      <point x="36" y="43" type="line"/>
      <point x="39" y="0" type="line"/>
    </contour>
    <contour>
      <point x="193" y="505" type="move" name="top"/>
    </contour>
  </outline>
</glyph>
<glyph name="bar" format="1">
  <advance width="233"/>
  <unicode hex="007C"/>
  <outline>
    <contour>
      <point x="148" y="730" type="line"/>
      <point x="148" y="-80" type="line"/>
      <point x="85" y="-80" type="line"/>
      <point x="85" y="730" type="line"/>
    </contour>
  </outline>
</glyph>
<glyph name="braceright" format="1">
  <advance width="280"/>
  <unicode hex="007D"/>
  <outline>
    <contour>
      <point x="170" y="271" type="curve"/>
      <point x="98" y="260"/>
      <point x="72" y="224"/>
      <point x="72" y="187" type="curve" smooth="yes"/>
      <point x="72" y="122"/>
      <point x="158" y="-7"/>
      <point x="158" y="-96" type="curve" smooth="yes"/>
      <point x="158" y="-140"/>
      <point x="137" y="-160"/>
      <point x="95" y="-160" type="curve" smooth="yes"/>
      <point x="31" y="-160" type="line"/>
      <point x="31" y="-212" type="line"/>
      <point x="95" y="-212" type="line" smooth="yes"/>
      <point x="175" y="-212"/>
      <point x="218" y="-168"/>
      <point x="218" y="-96" type="curve" smooth="yes"/>
      <point x="218" y="3"/>
      <point x="133" y="130"/>
      <point x="133" y="190" type="curve" smooth="yes"/>
      <point x="133" y="242"/>
      <point x="201" y="251"/>
      <point x="231" y="251" type="curve" smooth="yes"/>
      <point x="250" y="251" type="line"/>
      <point x="250" y="291" type="line"/>
      <point x="231" y="291" type="line" smooth="yes"/>
      <point x="200" y="291"/>
      <point x="133" y="301"/>
      <point x="133" y="353" type="curve" smooth="yes"/>
      <point x="133" y="413"/>
      <point x="218" y="535"/>
      <point x="218" y="634" type="curve" smooth="yes"/>
      <point x="218" y="703"/>
      <point x="177" y="750"/>
      <point x="95" y="750" type="curve" smooth="yes"/>
      <point x="31" y="750" type="line"/>
      <point x="31" y="698" type="line"/>
      <point x="95" y="698" type="line" smooth="yes"/>
      <point x="137" y="698"/>
      <point x="158" y="678"/>
      <point x="158" y="634" type="curve" smooth="yes"/>
      <point x="158" y="546"/>
      <point x="72" y="421"/>
      <point x="72" y="355" type="curve" smooth="yes"/>
      <point x="72" y="318"/>
      <point x="99" y="283"/>
    </contour>
  </outline>
</glyph>
<glyph name="exclamdown" format="1">
  <advance width="223"/>
  <unicode hex="00A1"/>
  <outline>
    <contour>
      <point x="153" y="-210" type="line"/>
      <point x="139" y="248" type="line"/>
      <point x="85" y="248" type="line"/>
      <point x="70" y="-210" type="line"/>
    </contour>
    <contour>
      <point x="64" y="349" type="line"/>
      <point x="154" y="349" type="line"/>
      <point x="154" y="446" type="line"/>
      <point x="64" y="446" type="line"/>
    </contour>
  </outline>
</glyph>
<glyph name="sterling" format="1">
  <advance width="509"/>
  <unicode hex="00A3"/>
  <outline>
    <contour>
      <point x="460" y="83" type="curve"/>
      <point x="424" y="116" type="line"/>
      <point x="402" y="85"/>
      <point x="372" y="56"/>
      <point x="312" y="56" type="curve" smooth="yes"/>
      <point x="122" y="56" type="line"/>
      <point x="176" y="90"/>
      <point x="186" y="149"/>
      <point x="186" y="235" type="curve"/>
      <point x="365" y="235" type="line"/>
      <point x="365" y="281" type="line"/>
      <point x="186" y="281" type="line"/>
      <point x="186" y="335" type="line" smooth="yes"/>
      <point x="186" y="439"/>
      <point x="229" y="472"/>
      <point x="288" y="472" type="curve" smooth="yes"/>
      <point x="316" y="472"/>
      <point x="338" y="468"/>
      <point x="361" y="455" type="curve"/>
      <point x="379" y="366" type="line"/>
      <point x="438" y="373" type="line"/>
      <point x="421" y="490" type="line"/>
      <point x="385" y="514"/>
      <point x="349" y="529"/>
      <point x="279" y="529" type="curve" smooth="yes"/>
      <point x="195" y="529"/>
      <point x="116" y="473"/>
      <point x="116" y="334" type="curve" smooth="yes"/>
      <point x="116" y="281" type="line"/>
      <point x="48" y="281" type="line"/>
      <point x="48" y="235" type="line"/>
      <point x="116" y="235" type="line"/>
      <point x="116" y="137"/>
      <point x="104" y="83"/>
      <point x="43" y="54" type="curve"/>
      <point x="43" y="0" type="line"/>
      <point x="327" y="0" type="line" smooth="yes"/>
      <point x="402" y="0"/>
      <point x="447" y="56"/>
    </contour>
  </outline>
</glyph>
<glyph name="currency" format="1">
  <advance width="514"/>
  <unicode hex="00A4"/>
  <outline>
    <contour>
      <point x="106" y="270" type="curve" smooth="yes"/>
      <point x="106" y="237"/>
      <point x="116" y="207"/>
      <point x="134" y="182" type="curve"/>
      <point x="39" y="87" type="line"/>
      <point x="69" y="56" type="line"/>
      <point x="164" y="151" type="line"/>
      <point x="190" y="131"/>
      <point x="222" y="119"/>
      <point x="257" y="119" type="curve" smooth="yes"/>
      <point x="291" y="119"/>
      <point x="323" y="130"/>
      <point x="348" y="150" type="curve"/>
      <point x="443" y="56" type="line"/>
      <point x="474" y="87" type="line"/>
      <point x="379" y="181" type="line"/>
      <point x="397" y="206"/>
      <point x="408" y="237"/>
      <point x="408" y="270" type="curve" smooth="yes"/>
      <point x="408" y="302"/>
      <point x="397" y="332"/>
      <point x="380" y="357" type="curve"/>
      <point x="474" y="451" type="line"/>
      <point x="443" y="481" type="line"/>
      <point x="350" y="388" type="line"/>
      <point x="324" y="409"/>
      <point x="292" y="421"/>
      <point x="257" y="421" type="curve" smooth="yes"/>
      <point x="221" y="421"/>
      <point x="189" y="408"/>
      <point x="163" y="388" type="curve"/>
      <point x="69" y="481" type="line"/>
      <point x="39" y="451" type="line"/>
      <point x="133" y="356" type="line"/>
      <point x="116" y="332"/>
      <point x="106" y="302"/>
    </contour>
    <contour>
      <point x="167" y="270" type="curve" smooth="yes"/>
      <point x="167" y="327"/>
      <point x="209" y="364"/>
      <point x="258" y="364" type="curve" smooth="yes"/>
      <point x="307" y="364"/>
      <point x="346" y="326"/>
      <point x="346" y="270" type="curve" smooth="yes"/>
      <point x="346" y="214"/>
      <point x="307" y="176"/>
      <point x="258" y="176" type="curve" smooth="yes"/>
      <point x="208" y="176"/>
      <point x="167" y="214"/>
    </contour>
  </outline>
</glyph>
<glyph name="brokenbar" format="1">
  <advance width="228"/>
  <unicode hex="00A6"/>
  <outline>
    <contour>
      <point x="146" y="730" type="line"/>
      <point x="146" y="426" type="line"/>
      <point x="82" y="426" type="line"/>
      <point x="82" y="730" type="line"/>
    </contour>
    <contour>
      <point x="146" y="224" type="line"/>
      <point x="146" y="-80" type="line"/>
      <point x="82" y="-80" type="line"/>
      <point x="82" y="224" type="line"/>
    </contour>
  </outline>
</glyph>
<glyph name="dieresis" format="1">
  <advance width="395"/>
  <unicode hex="00A8"/>
  <outline>
    <contour>
      <point x="62" y="555" type="line"/>
      <point x="143" y="555" type="line"/>
      <point x="143" y="640" type="line"/>
      <point x="62" y="640" type="line"/>
    </contour>
    <contour>
      <point x="233" y="555" type="line"/>
      <point x="314" y="555" type="line"/>
      <point x="314" y="640" type="line"/>
      <point x="233" y="640" type="line"/>
    </contour>
  </outline>
</glyph>
<glyph name="copyright" format="1">
  <advance width="624"/>
  <unicode hex="00A9"/>
  <outline>
    <contour>
      <point x="580" y="260" type="curve" smooth="yes"/>
      <point x="580" y="409"/>
      <point x="463" y="529"/>
      <point x="313" y="529" type="curve" smooth="yes"/>
      <point x="162" y="529"/>
      <point x="44" y="409"/>
      <point x="44" y="260" type="curve" smooth="yes"/>
      <point x="44" y="110"/>
      <point x="164" y="-7"/>
      <point x="312" y="-7" type="curve" smooth="yes"/>
      <point x="460" y="-7"/>
      <point x="580" y="111"/>
    </contour>
    <contour>
      <point x="537" y="260" type="curve" smooth="yes"/>
      <point x="537" y="135"/>
      <point x="440" y="34"/>
      <point x="312" y="34" type="curve" smooth="yes"/>
      <point x="182" y="34"/>
      <point x="87" y="134"/>
      <point x="87" y="260" type="curve" smooth="yes"/>
      <point x="87" y="386"/>
      <point x="180" y="487"/>
      <point x="313" y="487" type="curve" smooth="yes"/>
      <point x="445" y="487"/>
      <point x="537" y="386"/>
    </contour>
    <contour>
      <point x="429" y="122" type="curve"/>
      <point x="438" y="187" type="line"/>
      <point x="402" y="191" type="line"/>
      <point x="392" y="140" type="line"/>
      <point x="370" y="129"/>
      <point x="352" y="127"/>
      <point x="322" y="127" type="curve" smooth="yes"/>
      <point x="243" y="127"/>
      <point x="198" y="179"/>
      <point x="198" y="262" type="curve" smooth="yes"/>
      <point x="198" y="344"/>
      <point x="243" y="399"/>
      <point x="316" y="399" type="curve" smooth="yes"/>
      <point x="354" y="399"/>
      <point x="372" y="392"/>
      <point x="395" y="377" type="curve"/>
      <point x="404" y="327" type="line"/>
      <point x="440" y="331" type="line"/>
      <point x="431" y="396" type="line"/>
      <point x="404" y="419"/>
      <point x="367" y="434"/>
      <point x="311" y="434" type="curve" smooth="yes"/>
      <point x="218" y="434"/>
      <point x="153" y="358"/>
      <point x="153" y="261" type="curve" smooth="yes"/>
      <point x="153" y="161"/>
      <point x="220" y="91"/>
      <point x="316" y="91" type="curve" smooth="yes"/>
      <point x="364" y="91"/>
      <point x="402" y="101"/>
    </contour>
  </outline>
</glyph>
<glyph name="ordfeminine" format="1">
  <advance width="377"/>
  <unicode hex="00AA"/>
  <outline>
    <contour>
      <point x="177" y="662" type="curve" smooth="yes"/>
      <point x="227" y="662"/>
      <point x="238" y="626"/>
      <point x="238" y="589" type="curve" smooth="yes"/>
      <point x="238" y="565" type="line"/>
      <point x="222" y="566"/>
      <point x="204" y="568"/>
      <point x="182" y="568" type="curve" smooth="yes"/>
      <point x="119" y="568"/>
      <point x="44" y="553"/>
      <point x="44" y="480" type="curve" smooth="yes"/>
      <point x="44" y="419"/>
      <point x="96" y="398"/>
      <point x="137" y="398" type="curve" smooth="yes"/>
      <point x="185" y="398"/>
      <point x="219" y="427"/>
      <point x="238" y="459" type="curve"/>
      <point x="239" y="421"/>
      <point x="258" y="398"/>
      <point x="295" y="398" type="curve" smooth="yes"/>
      <point x="310" y="398"/>
      <point x="326" y="402"/>
      <point x="338" y="409" type="curve"/>
      <point x="337" y="440" type="line"/>
      <point x="332" y="438"/>
      <point x="325" y="437"/>
      <point x="319" y="437" type="curve" smooth="yes"/>
      <point x="303" y="437"/>
      <point x="296" y="446"/>
      <point x="296" y="467" type="curve" smooth="yes"/>
      <point x="296" y="603" type="line" smooth="yes"/>
      <point x="296" y="666"/>
      <point x="259" y="701"/>
      <point x="184" y="701" type="curve" smooth="yes"/>
      <point x="144" y="701"/>
      <point x="105" y="691"/>
      <point x="74" y="669" type="curve"/>
      <point x="64" y="599" type="line"/>
      <point x="107" y="595" type="line"/>
      <point x="120" y="647" type="line"/>
      <point x="138" y="656"/>
      <point x="157" y="662"/>
    </contour>
    <contour>
      <point x="238" y="516" type="line"/>
      <point x="235" y="468"/>
      <point x="197" y="439"/>
      <point x="158" y="439" type="curve" smooth="yes"/>
      <point x="132" y="439"/>
      <point x="106" y="452"/>
      <point x="106" y="487" type="curve" smooth="yes"/>
      <point x="106" y="530"/>
      <point x="146" y="539"/>
      <point x="185" y="539" type="curve" smooth="yes"/>
      <point x="203" y="539"/>
      <point x="222" y="537"/>
      <point x="238" y="535" type="curve"/>
    </contour>
  </outline>
</glyph>
<glyph name="logicalnot" format="1">
  <advance width="605"/>
  <unicode hex="00AC"/>
  <outline>
    <contour>
      <point x="491" y="99" type="line"/>
      <point x="543" y="99" type="line"/>
      <point x="543" y="308" type="line"/>
      <point x="62" y="308" type="line"/>
      <point x="62" y="256" type="line"/>
      <point x="491" y="256" type="line"/>
    </contour>
  </outline>
</glyph>
<glyph name="macron" format="1">
  <advance width="335"/>
  <unicode hex="00AF"/>
  <outline>
    <contour>
      <point x="286" y="564" type="line"/>
      <point x="286" y="621" type="line"/>
      <point x="42" y="621" type="line"/>
      <point x="42" y="564" type="line"/>
    </contour>
  </outline>
</glyph>
<glyph name="degree" format="1">
  <advance width="396"/>
  <unicode hex="00B0"/>
  <outline>
    <contour>
      <point x="198" y="342" type="curve" smooth="yes"/>
      <point x="296" y="342"/>
      <point x="358" y="412"/>
      <point x="358" y="501" type="curve" smooth="yes"/>
      <point x="358" y="589"/>
      <point x="298" y="660"/>
      <point x="200" y="660" type="curve" smooth="yes"/>
      <point x="104" y="660"/>
      <point x="39" y="590"/>
      <point x="39" y="500" type="curve" smooth="yes"/>
      <point x="39" y="410"/>
      <point x="101" y="342"/>
    </contour>
    <contour>
      <point x="198" y="395" type="curve"/>
      <point x="141" y="395"/>
      <point x="98" y="434"/>
      <point x="98" y="501" type="curve" smooth="yes"/>
      <point x="98" y="569"/>
      <point x="141" y="607"/>
      <point x="199" y="607" type="curve" smooth="yes"/>
      <point x="256" y="607"/>
      <point x="298" y="569"/>
      <point x="298" y="500" type="curve" smooth="yes"/>
      <point x="298" y="433"/>
      <point x="256" y="395"/>
    </contour>
  </outline>
</glyph>
<glyph name="acute" format="1">
  <advance width="440"/>
  <unicode hex="00B4"/>
  <outline>
    <contour>
      <point x="364" y="624" type="line"/>
      <point x="324" y="683" type="line"/>
      <point x="170" y="551" type="line"/>
      <point x="192" y="520" type="line"/>
    </contour>
  </outline>
</glyph>
<glyph name="mu" format="1">
  <advance width="572"/>
  <unicode hex="00B5"/>
  <outline>
    <contour>
      <point x="96" y="-213" type="line"/>
      <point x="96" y="388" type="line"/>
      <point x="19" y="388" type="line"/>
      <point x="19" y="445" type="line"/>
      <point x="167" y="445" type="line"/>
      <point x="167" y="173" type="line"/>
      <point x="169" y="82"/>
      <point x="211" y="47"/>
      <point x="273" y="47" type="curve" smooth="yes"/>
      <point x="350" y="47"/>
      <point x="402" y="112"/>
      <point x="405" y="175" type="curve"/>
      <point x="405" y="388" type="line"/>
      <point x="313" y="388" type="line"/>
      <point x="313" y="445" type="line"/>
      <point x="475" y="445" type="line"/>
      <point x="475" y="57" type="line"/>
      <point x="555" y="57" type="line"/>
      <point x="555" y="0" type="line"/>
      <point x="405" y="0" type="line"/>
      <point x="405" y="84" type="line"/>
      <point x="377" y="27"/>
      <point x="322" y="-10"/>
      <point x="250" y="-10" type="curve" smooth="yes"/>
      <point x="219" y="-10"/>
      <point x="190" y="-3"/>
      <point x="167" y="10" type="curve"/>
      <point x="167" y="-213" type="line"/>
    </contour>
  </outline>
</glyph>
<glyph name="periodcentered" format="1">
  <advance width="219"/>
  <unicode hex="00B7"/>
  <outline>
    <contour>
      <point x="59" y="256" type="line"/>
      <point x="156" y="256" type="line"/>
      <point x="156" y="358" type="line"/>
      <point x="59" y="358" type="line"/>
    </contour>
  </outline>
</glyph>
<glyph name="onesuperior" format="1">
  <advance width="260"/>
  <unicode hex="00B9"/>
  <outline>
    <contour>
      <point x="35" y="460" type="line"/>
      <point x="110" y="460" type="line"/>
      <point x="110" y="734" type="line"/>
      <point x="35" y="734" type="line"/>
      <point x="35" y="779" type="line"/>
      <point x="168" y="779" type="line"/>
      <point x="168" y="460" type="line"/>
      <point x="240" y="460" type="line"/>
      <point x="240" y="415" type="line"/>
      <point x="35" y="415" type="line"/>
    </contour>
  </outline>
</glyph>
<glyph name="ordmasculine" format="1">
  <advance width="379"/>
  <unicode hex="00BA"/>
  <outline>
    <contour>
      <point x="38" y="547" type="curve" smooth="yes"/>
      <point x="38" y="632"/>
      <point x="90" y="701"/>
      <point x="190" y="701" type="curve" smooth="yes"/>
      <point x="290" y="701"/>
      <point x="340" y="632"/>
      <point x="340" y="550" type="curve" smooth="yes"/>
      <point x="340" y="461"/>
      <point x="279" y="398"/>
      <point x="186" y="398" type="curve" smooth="yes"/>
      <point x="95" y="398"/>
      <point x="38" y="459"/>
    </contour>
    <contour>
      <point x="100" y="551" type="curve" smooth="yes"/>
      <point x="100" y="491"/>
      <point x="129" y="444"/>
      <point x="188" y="444" type="curve" smooth="yes"/>
      <point x="245" y="444"/>
      <point x="278" y="489"/>
      <point x="278" y="551" type="curve" smooth="yes"/>
      <point x="278" y="615"/>
      <point x="245" y="654"/>
      <point x="189" y="654" type="curve" smooth="yes"/>
      <point x="132" y="654"/>
      <point x="100" y="612"/>
    </contour>
    <contour>
      <point x="166" y="338" type="move" name="top"/>
    </contour>
  </outline>
</glyph>
<glyph name="guillemotright" format="1">
  <advance width="451"/>
  <unicode hex="00BB"/>
  <outline>
    <contour>
      <point x="272" y="25" type="line"/>
      <point x="410" y="271" type="line"/>
      <point x="272" y="511" type="line"/>
      <point x="212" y="511" type="line"/>
      <point x="341" y="271" type="line"/>
      <point x="212" y="25" type="line"/>
    </contour>
    <contour>
      <point x="108" y="25" type="line"/>
      <point x="246" y="271" type="line"/>
      <point x="108" y="511" type="line"/>
      <point x="48" y="511" type="line"/>
      <point x="176" y="271" type="line"/>
      <point x="48" y="25" type="line"/>
    </contour>
  </outline>
</glyph>
<glyph name="onehalf" format="1">
  <advance width="746"/>
  <unicode hex="00BD"/>
  <outline>
    <contour>
      <point x="489" y="252" type="line"/>
      <point x="502" y="308" type="line"/>
      <point x="520" y="320"/>
      <point x="537" y="325"/>
      <point x="559" y="325" type="curve" smooth="yes"/>
      <point x="610" y="325"/>
      <point x="630" y="300"/>
      <point x="630" y="268" type="curve" smooth="yes"/>
      <point x="630" y="192"/>
      <point x="519" y="111"/>
      <point x="436" y="41" type="curve"/>
      <point x="441" y="0" type="line"/>
      <point x="713" y="0" type="line"/>
      <point x="723" y="94" type="line"/>
      <point x="676" y="99" type="line"/>
      <point x="666" y="45" type="line"/>
      <point x="510" y="45" type="line"/>
      <point x="561" y="87"/>
      <point x="694" y="177"/>
      <point x="694" y="273" type="curve" smooth="yes"/>
      <point x="694" y="322"/>
      <point x="659" y="370"/>
      <point x="574" y="370" type="curve" smooth="yes"/>
      <point x="531" y="370"/>
      <point x="484" y="358"/>
      <point x="455" y="333" type="curve"/>
      <point x="444" y="257" type="line"/>
    </contour>
    <contour>
      <point x="561" y="650" type="line"/>
      <point x="371" y="325" type="line"/>
      <point x="189" y="0" type="line"/>
      <point x="136" y="0" type="line"/>
      <point x="333" y="337" type="line"/>
      <point x="508" y="650" type="line"/>
    </contour>
    <contour>
      <point x="41" y="331" type="line"/>
      <point x="116" y="331" type="line"/>
      <point x="116" y="605" type="line"/>
      <point x="41" y="605" type="line"/>
      <point x="41" y="650" type="line"/>
      <point x="174" y="650" type="line"/>
      <point x="174" y="331" type="line"/>
      <point x="246" y="331" type="line"/>
      <point x="246" y="286" type="line"/>
      <point x="41" y="286" type="line"/>
    </contour>
  </outline>
</glyph>
<glyph name="Aacute" format="1">
  <advance width="648"/>
  <unicode hex="00C1"/>
  <outline>
    <contour>
      <point x="655" y="0" type="line"/>
      <point x="655" y="64" type="line"/>
      <point x="589" y="64" type="line"/>
      <point x="356" y="650" type="line"/>
      <point x="171" y="650" type="line"/>
      <point x="171" y="586" type="line"/>
      <point x="275" y="586" type="line"/>
      <point x="62" y="64" type="line"/>
      <point x="1" y="64" type="line"/>
      <point x="1" y="0" type="line"/>
      <point x="230" y="0" type="line"/>
      <point x="230" y="64" type="line"/>
      <point x="136" y="64" type="line"/>
      <point x="186" y="189" type="line"/>
      <point x="464" y="189" type="line"/>
      <point x="511" y="64" type="line"/>
      <point x="424" y="64" type="line"/>
      <point x="424" y="0" type="line"/>
    </contour>
    <contour>
      <point x="443" y="246" type="line"/>
      <point x="208" y="246" type="line"/>
      <point x="325" y="544" type="line"/>
      <point x="331" y="544" type="line"/>
    </contour>
    <contour>
      <point x="482" y="745" type="line"/>
      <point x="465" y="813" type="line"/>
      <point x="274" y="740" type="line"/>
      <point x="285" y="703" type="line"/>
    </contour>
  </outline>
</glyph>
<glyph name="Atilde" format="1">
  <advance width="648"/>
  <unicode hex="00C3"/>
  <outline>
    <contour>
      <point x="655" y="0" type="line"/>
      <point x="655" y="64" type="line"/>
      <point x="589" y="64" type="line"/>
      <point x="356" y="650" type="line"/>
      <point x="171" y="650" type="line"/>
      <point x="171" y="586" type="line"/>
      <point x="275" y="586" type="line"/>
      <point x="62" y="64" type="line"/>
      <point x="1" y="64" type="line"/>
      <point x="1" y="0" type="line"/>
      <point x="230" y="0" type="line"/>
      <point x="230" y="64" type="line"/>
      <point x="136" y="64" type="line"/>
      <point x="186" y="189" type="line"/>
      <point x="464" y="189" type="line"/>
      <point x="511" y="64" type="line"/>
      <point x="424" y="64" type="line"/>
      <point x="424" y="0" type="line"/>
    </contour>
    <contour>
      <point x="443" y="246" type="line"/>
      <point x="208" y="246" type="line"/>
      <point x="325" y="544" type="line"/>
      <point x="331" y="544" type="line"/>
    </contour>
    <contour>
      <point x="454" y="798" type="curve"/>
      <point x="418" y="807" type="line"/>
      <point x="407" y="770"/>
      <point x="389" y="765"/>
      <point x="371" y="765" type="curve" smooth="yes"/>
      <point x="323" y="765"/>
      <point x="296" y="800"/>
      <point x="252" y="800" type="curve" smooth="yes"/>
      <point x="201" y="800"/>
      <point x="175" y="752"/>
      <point x="170" y="718" type="curve"/>
      <point x="203" y="705" type="line"/>
      <point x="213" y="737"/>
      <point x="234" y="744"/>
      <point x="253" y="744" type="curve" smooth="yes"/>
      <point x="292" y="744"/>
      <point x="325" y="709"/>
      <point x="376" y="709" type="curve" smooth="yes"/>
      <point x="424" y="709"/>
      <point x="444" y="744"/>
    </contour>
  </outline>
</glyph>
<glyph name="Ccedilla" format="1">
  <advance width="646"/>
  <unicode hex="00C7"/>
  <outline>
    <contour>
      <point x="463" y="-125" type="curve" smooth="yes"/>
      <point x="463" y="-81"/>
      <point x="436" y="-47"/>
      <point x="374" y="-47" type="curve" smooth="yes"/>
      <point x="366" y="-47" type="line"/>
      <point x="366" y="-10" type="line"/>
      <point x="453" y="-8"/>
      <point x="523" y="11"/>
      <point x="574" y="50" type="curve"/>
      <point x="591" y="175" type="line"/>
      <point x="529" y="181" type="line"/>
      <point x="510" y="85" type="line"/>
      <point x="468" y="64"/>
      <point x="425" y="56"/>
      <point x="367" y="56" type="curve" smooth="yes"/>
      <point x="212" y="56"/>
      <point x="116" y="163"/>
      <point x="116" y="324" type="curve" smooth="yes"/>
      <point x="116" y="482"/>
      <point x="212" y="594"/>
      <point x="354" y="594" type="curve" smooth="yes"/>
      <point x="427" y="594"/>
      <point x="473" y="576"/>
      <point x="515" y="548" type="curve"/>
      <point x="533" y="453" type="line"/>
      <point x="596" y="459" type="line"/>
      <point x="578" y="584" type="line"/>
      <point x="525" y="629"/>
      <point x="456" y="660"/>
      <point x="348" y="660" type="curve" smooth="yes"/>
      <point x="159" y="660"/>
      <point x="39" y="501"/>
      <point x="39" y="321" type="curve" smooth="yes"/>
      <point x="39" y="146"/>
      <point x="148" y="12"/>
      <point x="314" y="-7" type="curve"/>
      <point x="314" y="-80" type="line"/>
      <point x="344" y="-80" type="line" smooth="yes"/>
      <point x="376" y="-80"/>
      <point x="402" y="-87"/>
      <point x="402" y="-120" type="curve" smooth="yes"/>
      <point x="402" y="-150"/>
      <point x="381" y="-161"/>
      <point x="351" y="-161" type="curve" smooth="yes"/>
      <point x="319" y="-161"/>
      <point x="293" y="-151"/>
      <point x="276" y="-138" type="curve"/>
      <point x="259" y="-179" type="line"/>
      <point x="283" y="-199"/>
      <point x="317" y="-209"/>
      <point x="355" y="-209" type="curve" smooth="yes"/>
      <point x="413" y="-209"/>
      <point x="463" y="-185"/>
    </contour>
  </outline>
</glyph>
<glyph name="Egrave" format="1">
  <advance width="589"/>
  <unicode hex="00C8"/>
  <outline>
    <contour>
      <point x="397" y="740" type="line"/>
      <point x="206" y="813" type="line"/>
      <point x="189" y="745" type="line"/>
      <point x="387" y="703" type="line"/>
    </contour>
    <contour>
      <point x="526" y="0" type="line"/>
      <point x="545" y="184" type="line"/>
      <point x="482" y="191" type="line"/>
      <point x="462" y="64" type="line"/>
      <point x="197" y="64" type="line"/>
      <point x="197" y="298" type="line"/>
      <point x="504" y="298" type="line"/>
      <point x="504" y="362" type="line"/>
      <point x="197" y="362" type="line"/>
      <point x="197" y="586" type="line"/>
      <point x="453" y="586" type="line"/>
      <point x="473" y="459" type="line"/>
      <point x="537" y="466" type="line"/>
      <point x="517" y="650" type="line"/>
      <point x="42" y="650" type="line"/>
      <point x="42" y="586" type="line"/>
      <point x="124" y="586" type="line"/>
      <point x="124" y="64" type="line"/>
      <point x="42" y="64" type="line"/>
      <point x="42" y="0" type="line"/>
    </contour>
  </outline>
</glyph>
<glyph name="Icircumflex" format="1">
  <advance width="322"/>
  <unicode hex="00CE"/>
  <outline>
    <contour>
      <point x="279" y="0" type="line"/>
      <point x="279" y="64" type="line"/>
      <point x="198" y="64" type="line"/>
      <point x="198" y="586" type="line"/>
      <point x="279" y="586" type="line"/>
      <point x="279" y="650" type="line"/>
      <point x="42" y="650" type="line"/>
      <point x="42" y="586" type="line"/>
      <point x="124" y="586" type="line"/>
      <point x="124" y="64" type="line"/>
      <point x="42" y="64" type="line"/>
      <point x="42" y="0" type="line"/>
    </contour>
    <contour>
      <point x="299" y="737" type="line"/>
      <point x="173" y="827" type="line"/>
      <point x="152" y="827" type="line"/>
      <point x="25" y="734" type="line"/>
      <point x="44" y="701" type="line"/>
      <point x="160" y="764" type="line"/>
      <point x="280" y="702" type="line"/>
    </contour>
  </outline>
</glyph>
<glyph name="Idieresis" format="1">
  <advance width="322"/>
  <unicode hex="00CF"/>
  <outline>
    <contour>
      <point x="279" y="0" type="line"/>
      <point x="279" y="64" type="line"/>
      <point x="198" y="64" type="line"/>
      <point x="198" y="586" type="line"/>
      <point x="279" y="586" type="line"/>
      <point x="279" y="650" type="line"/>
      <point x="42" y="650" type="line"/>
      <point x="42" y="586" type="line"/>
      <point x="124" y="586" type="line"/>
      <point x="124" y="64" type="line"/>
      <point x="42" y="64" type="line"/>
      <point x="42" y="0" type="line"/>
    </contour>
    <contour>
      <point x="38" y="718" type="line"/>
      <point x="119" y="718" type="line"/>
      <point x="119" y="803" type="line"/>
      <point x="38" y="803" type="line"/>
    </contour>
    <contour>
      <point x="210" y="718" type="line"/>
      <point x="290" y="718" type="line"/>
      <point x="290" y="803" type="line"/>
      <point x="210" y="803" type="line"/>
    </contour>
  </outline>
</glyph>
<glyph name="Ocircumflex" format="1">
  <advance width="728"/>
  <unicode hex="00D4"/>
  <outline>
    <contour>
      <point x="690" y="325" type="curve" smooth="yes"/>
      <point x="690" y="510"/>
      <point x="559" y="660"/>
      <point x="364" y="660" type="curve" smooth="yes"/>
      <point x="172" y="660"/>
      <point x="39" y="512"/>
      <point x="39" y="325" type="curve" smooth="yes"/>
      <point x="39" y="141"/>
      <point x="166" y="-10"/>
      <point x="362" y="-10" type="curve" smooth="yes"/>
      <point x="558" y="-10"/>
      <point x="690" y="141"/>
    </contour>
    <contour>
      <point x="611" y="324" type="curve" smooth="yes"/>
      <point x="611" y="173"/>
      <point x="519" y="56"/>
      <point x="366" y="56" type="curve" smooth="yes"/>
      <point x="208" y="56"/>
      <point x="118" y="179"/>
      <point x="118" y="326" type="curve" smooth="yes"/>
      <point x="118" y="475"/>
      <point x="210" y="594"/>
      <point x="364" y="594" type="curve" smooth="yes"/>
      <point x="515" y="594"/>
      <point x="611" y="480"/>
    </contour>
    <contour>
      <point x="504" y="737" type="line"/>
      <point x="378" y="827" type="line"/>
      <point x="357" y="827" type="line"/>
      <point x="230" y="734" type="line"/>
      <point x="249" y="701" type="line"/>
      <point x="365" y="764" type="line"/>
      <point x="485" y="702" type="line"/>
    </contour>
  </outline>
</glyph>
<glyph name="Otilde" format="1">
  <advance width="728"/>
  <unicode hex="00D5"/>
  <outline>
    <contour>
      <point x="511" y="798" type="curve"/>
      <point x="475" y="807" type="line"/>
      <point x="464" y="770"/>
      <point x="446" y="765"/>
      <point x="428" y="765" type="curve" smooth="yes"/>
      <point x="380" y="765"/>
      <point x="353" y="800"/>
      <point x="309" y="800" type="curve" smooth="yes"/>
      <point x="258" y="800"/>
      <point x="232" y="752"/>
      <point x="227" y="718" type="curve"/>
      <point x="260" y="705" type="line"/>
      <point x="270" y="737"/>
      <point x="291" y="744"/>
      <point x="310" y="744" type="curve" smooth="yes"/>
      <point x="349" y="744"/>
      <point x="382" y="709"/>
      <point x="433" y="709" type="curve" smooth="yes"/>
      <point x="481" y="709"/>
      <point x="501" y="744"/>
    </contour>
    <contour>
      <point x="690" y="325" type="curve" smooth="yes"/>
      <point x="690" y="510"/>
      <point x="559" y="660"/>
      <point x="364" y="660" type="curve" smooth="yes"/>
      <point x="172" y="660"/>
      <point x="39" y="512"/>
      <point x="39" y="325" type="curve" smooth="yes"/>
      <point x="39" y="141"/>
      <point x="166" y="-10"/>
      <point x="362" y="-10" type="curve" smooth="yes"/>
      <point x="558" y="-10"/>
      <point x="690" y="141"/>
    </contour>
    <contour>
      <point x="611" y="324" type="curve" smooth="yes"/>
      <point x="611" y="173"/>
      <point x="519" y="56"/>
      <point x="366" y="56" type="curve" smooth="yes"/>
      <point x="208" y="56"/>
      <point x="118" y="179"/>
      <point x="118" y="326" type="curve" smooth="yes"/>
      <point x="118" y="475"/>
      <point x="210" y="594"/>
      <point x="364" y="594" type="curve" smooth="yes"/>
      <point x="515" y="594"/>
      <point x="611" y="480"/>
    </contour>
  </outline>
</glyph>
<glyph name="multiply" format="1">
  <advance width="388"/>
  <unicode hex="00D7"/>
  <outline>
    <contour>
      <point x="89" y="131" type="line"/>
      <point x="194" y="237" type="line"/>
      <point x="298" y="133" type="line"/>
      <point x="335" y="172" type="line"/>
      <point x="232" y="275" type="line"/>
      <point x="334" y="377" type="line"/>
      <point x="297" y="415" type="line"/>
      <point x="194" y="312" type="line"/>
      <point x="90" y="417" type="line"/>
      <point x="53" y="379" type="line"/>
      <point x="157" y="274" type="line"/>
      <point x="52" y="169" type="line"/>
    </contour>
  </outline>
</glyph>
<glyph name="Uacute" format="1">
  <advance width="717"/>
  <unicode hex="00DA"/>
  <outline>
    <contour>
      <point x="510" y="745" type="line"/>
      <point x="493" y="813" type="line"/>
      <point x="302" y="740" type="line"/>
      <point x="313" y="703" type="line"/>
    </contour>
    <contour>
      <point x="680" y="586" type="line"/>
      <point x="680" y="650" type="line"/>
      <point x="455" y="650" type="line"/>
      <point x="455" y="586" type="line"/>
      <point x="548" y="586" type="line"/>
      <point x="548" y="267" type="line" smooth="yes"/>
      <point x="548" y="128"/>
      <point x="482" y="56"/>
      <point x="361" y="56" type="curve" smooth="yes"/>
      <point x="236" y="56"/>
      <point x="177" y="130"/>
      <point x="177" y="258" type="curve" smooth="yes"/>
      <point x="177" y="586" type="line"/>
      <point x="267" y="586" type="line"/>
      <point x="267" y="650" type="line"/>
      <point x="36" y="650" type="line"/>
      <point x="36" y="586" type="line"/>
      <point x="103" y="586" type="line"/>
      <point x="103" y="256" type="line" smooth="yes"/>
      <point x="103" y="116"/>
      <point x="164" y="-10"/>
      <point x="357" y="-10" type="curve" smooth="yes"/>
      <point x="557" y="-10"/>
      <point x="617" y="129"/>
      <point x="617" y="267" type="curve" smooth="yes"/>
      <point x="617" y="586" type="line"/>
    </contour>
  </outline>
</glyph>
<glyph name="Ucircumflex" format="1">
  <advance width="717"/>
  <unicode hex="00DB"/>
  <outline>
    <contour>
      <point x="680" y="586" type="line"/>
      <point x="680" y="650" type="line"/>
      <point x="455" y="650" type="line"/>
      <point x="455" y="586" type="line"/>
      <point x="548" y="586" type="line"/>
      <point x="548" y="267" type="line" smooth="yes"/>
      <point x="548" y="128"/>
      <point x="482" y="56"/>
      <point x="361" y="56" type="curve" smooth="yes"/>
      <point x="236" y="56"/>
      <point x="177" y="130"/>
      <point x="177" y="258" type="curve" smooth="yes"/>
      <point x="177" y="586" type="line"/>
      <point x="267" y="586" type="line"/>
      <point x="267" y="650" type="line"/>
      <point x="36" y="650" type="line"/>
      <point x="36" y="586" type="line"/>
      <point x="103" y="586" type="line"/>
      <point x="103" y="256" type="line" smooth="yes"/>
      <point x="103" y="116"/>
      <point x="164" y="-10"/>
      <point x="357" y="-10" type="curve" smooth="yes"/>
      <point x="557" y="-10"/>
      <point x="617" y="129"/>
      <point x="617" y="267" type="curve" smooth="yes"/>
      <point x="617" y="586" type="line"/>
    </contour>
    <contour>
      <point x="497" y="737" type="line"/>
      <point x="371" y="827" type="line"/>
      <point x="350" y="827" type="line"/>
      <point x="223" y="734" type="line"/>
      <point x="242" y="701" type="line"/>
      <point x="358" y="764" type="line"/>
      <point x="478" y="702" type="line"/>
    </contour>
  </outline>
</glyph>
<glyph name="germandbls" format="1">
  <advance width="652"/>
  <unicode hex="00DF"/>
  <outline>
    <contour>
      <point x="633" y="128" type="curve" smooth="yes"/>
      <point x="633" y="306"/>
      <point x="357" y="220"/>
      <point x="357" y="328" type="curve" smooth="yes"/>
      <point x="357" y="430"/>
      <point x="569" y="418"/>
      <point x="569" y="554" type="curve" smooth="yes"/>
      <point x="569" y="636"/>
      <point x="492" y="698"/>
      <point x="351" y="698" type="curve" smooth="yes"/>
      <point x="195" y="698"/>
      <point x="103" y="619"/>
      <point x="103" y="491" type="curve" smooth="yes"/>
      <point x="103" y="445" type="line"/>
      <point x="39" y="445" type="line"/>
      <point x="39" y="388" type="line"/>
      <point x="103" y="388" type="line"/>
      <point x="103" y="57" type="line"/>
      <point x="26" y="57" type="line"/>
      <point x="26" y="0" type="line"/>
      <point x="174" y="0" type="line"/>
      <point x="174" y="486" type="line" smooth="yes"/>
      <point x="174" y="571"/>
      <point x="214" y="639"/>
      <point x="346" y="639" type="curve" smooth="yes"/>
      <point x="441" y="639"/>
      <point x="498" y="606"/>
      <point x="498" y="550" type="curve" smooth="yes"/>
      <point x="498" y="439"/>
      <point x="281" y="463"/>
      <point x="281" y="320" type="curve" smooth="yes"/>
      <point x="281" y="157"/>
      <point x="561" y="246"/>
      <point x="561" y="122" type="curve" smooth="yes"/>
      <point x="561" y="72"/>
      <point x="509" y="48"/>
      <point x="448" y="48" type="curve" smooth="yes"/>
      <point x="410" y="48"/>
      <point x="369" y="53"/>
      <point x="341" y="73" type="curve"/>
      <point x="344" y="129" type="line"/>
      <point x="287" y="135" type="line"/>
      <point x="274" y="34" type="line"/>
      <point x="313" y="6"/>
      <point x="388" y="-10"/>
      <point x="453" y="-10" type="curve" smooth="yes"/>
      <point x="554" y="-10"/>
      <point x="633" y="41"/>
    </contour>
  </outline>
</glyph>
<glyph name="atilde" format="1">
  <advance width="483"/>
  <unicode hex="00E3"/>
  <outline>
    <contour>
      <point x="81" y="411" type="curve"/>
      <point x="65" y="308" type="line"/>
      <point x="123" y="301" type="line"/>
      <point x="140" y="378" type="line"/>
      <point x="167" y="391"/>
      <point x="196" y="396"/>
      <point x="226" y="396" type="curve" smooth="yes"/>
      <point x="306" y="396"/>
      <point x="327" y="352"/>
      <point x="327" y="288" type="curve" smooth="yes"/>
      <point x="327" y="248" type="line"/>
      <point x="303" y="250"/>
      <point x="275" y="252"/>
      <point x="248" y="252" type="curve" smooth="yes"/>
      <point x="148" y="252"/>
      <point x="40" y="227"/>
      <point x="40" y="115" type="curve" smooth="yes"/>
      <point x="40" y="20"/>
      <point x="116" y="-10"/>
      <point x="175" y="-10" type="curve" smooth="yes"/>
      <point x="247" y="-10"/>
      <point x="299" y="34"/>
      <point x="327" y="82" type="curve"/>
      <point x="327" y="80" type="line" smooth="yes"/>
      <point x="328" y="25"/>
      <point x="356" y="-10"/>
      <point x="408" y="-10" type="curve" smooth="yes"/>
      <point x="429" y="-10"/>
      <point x="450" y="-4"/>
      <point x="466" y="5" type="curve"/>
      <point x="465" y="51" type="line"/>
      <point x="456" y="47"/>
      <point x="444" y="45"/>
      <point x="435" y="45" type="curve" smooth="yes"/>
      <point x="409" y="45"/>
      <point x="397" y="60"/>
      <point x="397" y="93" type="curve" smooth="yes"/>
      <point x="397" y="305" type="line" smooth="yes"/>
      <point x="397" y="405"/>
      <point x="341" y="454"/>
      <point x="238" y="454" type="curve" smooth="yes"/>
      <point x="180" y="454"/>
      <point x="127" y="442"/>
    </contour>
    <contour>
      <point x="327" y="167" type="line"/>
      <point x="322" y="94"/>
      <point x="258" y="48"/>
      <point x="196" y="48" type="curve" smooth="yes"/>
      <point x="157" y="48"/>
      <point x="113" y="66"/>
      <point x="113" y="123" type="curve" smooth="yes"/>
      <point x="113" y="192"/>
      <point x="178" y="206"/>
      <point x="244" y="206" type="curve" smooth="yes"/>
      <point x="274" y="206"/>
      <point x="302" y="203"/>
      <point x="327" y="201" type="curve"/>
    </contour>
    <contour>
      <point x="370" y="646" type="curve"/>
      <point x="334" y="655" type="line"/>
      <point x="323" y="619"/>
      <point x="305" y="612"/>
      <point x="287" y="612" type="curve" smooth="yes"/>
      <point x="239" y="612"/>
      <point x="212" y="649"/>
      <point x="167" y="649" type="curve" smooth="yes"/>
      <point x="116" y="649"/>
      <point x="91" y="596"/>
      <point x="86" y="561" type="curve"/>
      <point x="119" y="549" type="line"/>
      <point x="129" y="581"/>
      <point x="151" y="592"/>
      <point x="170" y="592" type="curve" smooth="yes"/>
      <point x="207" y="592"/>
      <point x="241" y="553"/>
      <point x="293" y="553" type="curve" smooth="yes"/>
      <point x="339" y="553"/>
      <point x="361" y="592"/>
    </contour>
  </outline>
</glyph>
<glyph name="ccedilla" format="1">
  <advance width="462"/>
  <unicode hex="00E7"/>
  <outline>
    <contour>
      <point x="360" y="-126" type="curve" smooth="yes"/>
      <point x="360" y="-82"/>
      <point x="333" y="-48"/>
      <point x="271" y="-48" type="curve" smooth="yes"/>
      <point x="263" y="-48" type="line"/>
      <point x="263" y="-9" type="line"/>
      <point x="369" y="0"/>
      <point x="417" y="77"/>
      <point x="428" y="150" type="curve"/>
      <point x="368" y="163" type="line"/>
      <point x="355" y="90"/>
      <point x="317" y="50"/>
      <point x="248" y="50" type="curve" smooth="yes"/>
      <point x="160" y="50"/>
      <point x="112" y="113"/>
      <point x="112" y="220" type="curve" smooth="yes"/>
      <point x="112" y="316"/>
      <point x="150" y="394"/>
      <point x="245" y="394" type="curve" smooth="yes"/>
      <point x="283" y="394"/>
      <point x="313" y="386"/>
      <point x="340" y="369" type="curve"/>
      <point x="357" y="294" type="line"/>
      <point x="415" y="301" type="line"/>
      <point x="398" y="408" type="line"/>
      <point x="353" y="442"/>
      <point x="305" y="454"/>
      <point x="246" y="454" type="curve" smooth="yes"/>
      <point x="108" y="454"/>
      <point x="38" y="339"/>
      <point x="38" y="216" type="curve" smooth="yes"/>
      <point x="38" y="84"/>
      <point x="104" y="3"/>
      <point x="211" y="-8" type="curve"/>
      <point x="211" y="-81" type="line"/>
      <point x="241" y="-81" type="line" smooth="yes"/>
      <point x="273" y="-81"/>
      <point x="299" y="-88"/>
      <point x="299" y="-121" type="curve" smooth="yes"/>
      <point x="299" y="-151"/>
      <point x="278" y="-162"/>
      <point x="248" y="-162" type="curve" smooth="yes"/>
      <point x="216" y="-162"/>
      <point x="190" y="-152"/>
      <point x="173" y="-139" type="curve"/>
      <point x="156" y="-180" type="line"/>
      <point x="180" y="-200"/>
      <point x="214" y="-210"/>
      <point x="252" y="-210" type="curve" smooth="yes"/>
      <point x="310" y="-210"/>
      <point x="360" y="-186"/>
    </contour>
  </outline>
</glyph>
<glyph name="egrave" format="1">
  <advance width="470"/>
  <unicode hex="00E8"/>
  <outline>
    <contour>
      <point x="435" y="128" type="curve"/>
      <point x="376" y="141" type="line"/>
      <point x="362" y="86"/>
      <point x="323" y="50"/>
      <point x="253" y="50" type="curve" smooth="yes"/>
      <point x="165" y="50"/>
      <point x="116" y="107"/>
      <point x="112" y="206" type="curve"/>
      <point x="425" y="206" type="line"/>
      <point x="429" y="224"/>
      <point x="431" y="242"/>
      <point x="431" y="259" type="curve" smooth="yes"/>
      <point x="430" y="364"/>
      <point x="364" y="454"/>
      <point x="242" y="454" type="curve" smooth="yes"/>
      <point x="116" y="454"/>
      <point x="38" y="354"/>
      <point x="38" y="216" type="curve" smooth="yes"/>
      <point x="38" y="72"/>
      <point x="122" y="-10"/>
      <point x="248" y="-10" type="curve" smooth="yes"/>
      <point x="358" y="-10"/>
      <point x="423" y="52"/>
    </contour>
    <contour>
      <point x="357" y="258" type="curve"/>
      <point x="113" y="258" type="line"/>
      <point x="122" y="333"/>
      <point x="158" y="396"/>
      <point x="240" y="396" type="curve" smooth="yes"/>
      <point x="327" y="396"/>
      <point x="364" y="324"/>
    </contour>
    <contour>
      <point x="303" y="551" type="line"/>
      <point x="149" y="683" type="line"/>
      <point x="109" y="624" type="line"/>
      <point x="282" y="520" type="line"/>
    </contour>
  </outline>
</glyph>
<glyph name="eth" format="1">
  <advance width="524"/>
  <unicode hex="00F0"/>
  <outline>
    <contour>
      <point x="157" y="526" type="line"/>
      <point x="215" y="596" type="line"/>
      <point x="190" y="613"/>
      <point x="163" y="630"/>
      <point x="134" y="646" type="curve"/>
      <point x="163" y="698" type="line"/>
      <point x="194" y="681"/>
      <point x="225" y="663"/>
      <point x="253" y="643" type="curve"/>
      <point x="301" y="701" type="line"/>
      <point x="340" y="674" type="line"/>
      <point x="291" y="614" type="line"/>
      <point x="400" y="526"/>
      <point x="475" y="408"/>
      <point x="475" y="257" type="curve" smooth="yes"/>
      <point x="475" y="223" type="line" smooth="yes"/>
      <point x="475" y="87"/>
      <point x="390" y="-10"/>
      <point x="253" y="-10" type="curve" smooth="yes"/>
      <point x="118" y="-10"/>
      <point x="37" y="85"/>
      <point x="37" y="219" type="curve" smooth="yes"/>
      <point x="37" y="354"/>
      <point x="121" y="454"/>
      <point x="248" y="454" type="curve" smooth="yes"/>
      <point x="304" y="454"/>
      <point x="345" y="433"/>
      <point x="375" y="406" type="curve"/>
      <point x="351" y="469"/>
      <point x="309" y="522"/>
      <point x="253" y="567" type="curve"/>
      <point x="197" y="498" type="line"/>
    </contour>
    <contour>
      <point x="252" y="393" type="curve" smooth="yes"/>
      <point x="162" y="393"/>
      <point x="112" y="322"/>
      <point x="112" y="223" type="curve" smooth="yes"/>
      <point x="112" y="127"/>
      <point x="160" y="51"/>
      <point x="256" y="51" type="curve" smooth="yes"/>
      <point x="349" y="51"/>
      <point x="400" y="123"/>
      <point x="400" y="220" type="curve" smooth="yes"/>
      <point x="400" y="263" type="line"/>
      <point x="397" y="318"/>
      <point x="343" y="393"/>
    </contour>
  </outline>
</glyph>
<glyph name="ograve" format="1">
  <advance width="513"/>
  <unicode hex="00F2"/>
  <outline>
    <contour>
      <point x="476" y="223" type="curve" smooth="yes"/>
      <point x="476" y="349"/>
      <point x="402" y="455"/>
      <point x="257" y="455" type="curve" smooth="yes"/>
      <point x="113" y="455"/>
      <point x="37" y="349"/>
      <point x="37" y="219" type="curve" smooth="yes"/>
      <point x="37" y="85"/>
      <point x="118" y="-10"/>
      <point x="253" y="-10" type="curve" smooth="yes"/>
      <point x="390" y="-10"/>
      <point x="476" y="88"/>
    </contour>
    <contour>
      <point x="402" y="224" type="curve" smooth="yes"/>
      <point x="402" y="124"/>
      <point x="350" y="50"/>
      <point x="255" y="50" type="curve" smooth="yes"/>
      <point x="160" y="50"/>
      <point x="110" y="126"/>
      <point x="110" y="223" type="curve" smooth="yes"/>
      <point x="110" y="322"/>
      <point x="162" y="395"/>
      <point x="255" y="395" type="curve" smooth="yes"/>
      <point x="348" y="395"/>
      <point x="402" y="326"/>
    </contour>
    <contour>
      <point x="317" y="551" type="line"/>
      <point x="163" y="683" type="line"/>
      <point x="123" y="624" type="line"/>
      <point x="296" y="520" type="line"/>
    </contour>
  </outline>
</glyph>
<glyph name="ocircumflex" format="1">
  <advance width="513"/>
  <unicode hex="00F4"/>
  <outline>
    <contour>
      <point x="392" y="553" type="line"/>
      <point x="271" y="671" type="line"/>
      <point x="249" y="671" type="line"/>
      <point x="128" y="551" type="line"/>
      <point x="153" y="519" type="line"/>
      <point x="254" y="603" type="line"/>
      <point x="365" y="519" type="line"/>
    </contour>
    <contour>
      <point x="476" y="223" type="curve" smooth="yes"/>
      <point x="476" y="349"/>
      <point x="402" y="455"/>
      <point x="257" y="455" type="curve" smooth="yes"/>
      <point x="113" y="455"/>
      <point x="37" y="349"/>
      <point x="37" y="219" type="curve" smooth="yes"/>
      <point x="37" y="85"/>
      <point x="118" y="-10"/>
      <point x="253" y="-10" type="curve" smooth="yes"/>
      <point x="390" y="-10"/>
      <point x="476" y="88"/>
    </contour>
    <contour>
      <point x="402" y="224" type="curve" smooth="yes"/>
      <point x="402" y="124"/>
      <point x="350" y="50"/>
      <point x="255" y="50" type="curve" smooth="yes"/>
      <point x="160" y="50"/>
      <point x="110" y="126"/>
      <point x="110" y="223" type="curve" smooth="yes"/>
      <point x="110" y="322"/>
      <point x="162" y="395"/>
      <point x="255" y="395" type="curve" smooth="yes"/>
      <point x="348" y="395"/>
      <point x="402" y="326"/>
    </contour>
  </outline>
</glyph>
<glyph name="divide" format="1">
  <advance width="448"/>
  <unicode hex="00F7"/>
  <outline>
    <contour>
      <point x="397" y="254" type="line"/>
      <point x="397" y="308" type="line"/>
      <point x="50" y="308" type="line"/>
      <point x="50" y="254" type="line"/>
    </contour>
    <contour>
      <point x="173" y="374" type="line"/>
      <point x="270" y="374" type="line"/>
      <point x="270" y="477" type="line"/>
      <point x="173" y="477" type="line"/>
    </contour>
    <contour>
      <point x="173" y="86" type="line"/>
      <point x="270" y="86" type="line"/>
      <point x="270" y="189" type="line"/>
      <point x="173" y="189" type="line"/>
    </contour>
  </outline>
</glyph>
<glyph name="ugrave" format="1">
  <advance width="562"/>
  <unicode hex="00F9"/>
  <outline>
    <contour>
      <point x="546" y="0" type="line"/>
      <point x="546" y="57" type="line"/>
      <point x="466" y="57" type="line"/>
      <point x="466" y="445" type="line"/>
      <point x="303" y="445" type="line"/>
      <point x="303" y="388" type="line"/>
      <point x="396" y="388" type="line"/>
      <point x="396" y="184" type="line"/>
      <point x="394" y="120"/>
      <point x="340" y="50"/>
      <point x="264" y="50" type="curve" smooth="yes"/>
      <point x="201" y="50"/>
      <point x="157" y="84"/>
      <point x="157" y="180" type="curve" smooth="yes"/>
      <point x="157" y="445" type="line"/>
      <point x="9" y="445" type="line"/>
      <point x="9" y="388" type="line"/>
      <point x="87" y="388" type="line"/>
      <point x="87" y="160" type="line" smooth="yes"/>
      <point x="87" y="41"/>
      <point x="154" y="-10"/>
      <point x="241" y="-10" type="curve" smooth="yes"/>
      <point x="312" y="-10"/>
      <point x="368" y="28"/>
      <point x="396" y="84" type="curve"/>
      <point x="396" y="0" type="line"/>
    </contour>
    <contour>
      <point x="310" y="551" type="line"/>
      <point x="156" y="683" type="line"/>
      <point x="116" y="624" type="line"/>
      <point x="289" y="520" type="line"/>
    </contour>
  </outline>
</glyph>
<glyph name="ucircumflex" format="1">
  <advance width="562"/>
  <unicode hex="00FB"/>
  <outline>
    <contour>
      <point x="401" y="553" type="line"/>
      <point x="280" y="671" type="line"/>
      <point x="258" y="671" type="line"/>
      <point x="137" y="551" type="line"/>
      <point x="162" y="519" type="line"/>
      <point x="263" y="603" type="line"/>
      <point x="374" y="519" type="line"/>
    </contour>
    <contour>
      <point x="546" y="0" type="line"/>
      <point x="546" y="57" type="line"/>
      <point x="466" y="57" type="line"/>
      <point x="466" y="445" type="line"/>
      <point x="303" y="445" type="line"/>
      <point x="303" y="388" type="line"/>
      <point x="396" y="388" type="line"/>
      <point x="396" y="184" type="line"/>
      <point x="394" y="120"/>
      <point x="340" y="50"/>
      <point x="264" y="50" type="curve" smooth="yes"/>
      <point x="201" y="50"/>
      <point x="157" y="84"/>
      <point x="157" y="180" type="curve" smooth="yes"/>
      <point x="157" y="445" type="line"/>
      <point x="9" y="445" type="line"/>
      <point x="9" y="388" type="line"/>
      <point x="87" y="388" type="line"/>
      <point x="87" y="160" type="line" smooth="yes"/>
      <point x="87" y="41"/>
      <point x="154" y="-10"/>
      <point x="241" y="-10" type="curve" smooth="yes"/>
      <point x="312" y="-10"/>
      <point x="368" y="28"/>
      <point x="396" y="84" type="curve"/>
      <point x="396" y="0" type="line"/>
    </contour>
  </outline>
</glyph>
<glyph name="thorn" format="1">
  <advance width="524"/>
  <unicode hex="00FE"/>
  <outline>
    <contour>
      <point x="-11" y="-156" type="line"/>
      <point x="66" y="-156" type="line"/>
      <point x="66" y="631" type="line"/>
      <point x="-14" y="631" type="line"/>
      <point x="-14" y="688" type="line"/>
      <point x="137" y="688" type="line"/>
      <point x="137" y="351" type="line"/>
      <point x="164" y="406"/>
      <point x="213" y="454"/>
      <point x="297" y="454" type="curve" smooth="yes"/>
      <point x="408" y="454"/>
      <point x="487" y="373"/>
      <point x="487" y="235" type="curve" smooth="yes"/>
      <point x="487" y="116"/>
      <point x="428" y="-10"/>
      <point x="284" y="-10" type="curve" smooth="yes"/>
      <point x="221" y="-10"/>
      <point x="166" y="16"/>
      <point x="137" y="65" type="curve"/>
      <point x="137" y="-156" type="line"/>
      <point x="241" y="-156" type="line"/>
      <point x="241" y="-213" type="line"/>
      <point x="-11" y="-213" type="line"/>
    </contour>
    <contour>
      <point x="272" y="51" type="curve" smooth="yes"/>
      <point x="367" y="51"/>
      <point x="412" y="134"/>
      <point x="412" y="229" type="curve" smooth="yes"/>
      <point x="412" y="336"/>
      <point x="354" y="393"/>
      <point x="281" y="393" type="curve" smooth="yes"/>
      <point x="197" y="393"/>
      <point x="140" y="312"/>
      <point x="137" y="246" type="curve"/>
      <point x="137" y="183" type="line" smooth="yes"/>
      <point x="137" y="108"/>
      <point x="195" y="51"/>
    </contour>
  </outline>
</glyph>
<glyph name="Amacron" format="1">
  <advance width="648"/>
  <unicode hex="0100"/>
  <outline>
    <contour>
      <point x="655" y="0" type="line"/>
      <point x="655" y="64" type="line"/>
      <point x="589" y="64" type="line"/>
      <point x="356" y="650" type="line"/>
      <point x="171" y="650" type="line"/>
      <point x="171" y="586" type="line"/>
      <point x="275" y="586" type="line"/>
      <point x="62" y="64" type="line"/>
      <point x="1" y="64" type="line"/>
      <point x="1" y="0" type="line"/>
      <point x="230" y="0" type="line"/>
      <point x="230" y="64" type="line"/>
      <point x="136" y="64" type="line"/>
      <point x="186" y="189" type="line"/>
      <point x="464" y="189" type="line"/>
      <point x="511" y="64" type="line"/>
      <point x="424" y="64" type="line"/>
      <point x="424" y="0" type="line"/>
    </contour>
    <contour>
      <point x="443" y="246" type="line"/>
      <point x="208" y="246" type="line"/>
      <point x="325" y="544" type="line"/>
      <point x="331" y="544" type="line"/>
    </contour>
    <contour>
      <point x="461" y="733" type="line"/>
      <point x="461" y="790" type="line"/>
      <point x="182" y="790" type="line"/>
      <point x="182" y="733" type="line"/>
    </contour>
  </outline>
</glyph>
<glyph name="Abreve" format="1">
  <advance width="648"/>
  <unicode hex="0102"/>
  <outline>
    <contour>
      <point x="655" y="0" type="line"/>
      <point x="655" y="64" type="line"/>
      <point x="589" y="64" type="line"/>
      <point x="356" y="650" type="line"/>
      <point x="171" y="650" type="line"/>
      <point x="171" y="586" type="line"/>
      <point x="275" y="586" type="line"/>
      <point x="62" y="64" type="line"/>
      <point x="1" y="64" type="line"/>
      <point x="1" y="0" type="line"/>
      <point x="230" y="0" type="line"/>
      <point x="230" y="64" type="line"/>
      <point x="136" y="64" type="line"/>
      <point x="186" y="189" type="line"/>
      <point x="464" y="189" type="line"/>
      <point x="511" y="64" type="line"/>
      <point x="424" y="64" type="line"/>
      <point x="424" y="0" type="line"/>
    </contour>
    <contour>
      <point x="443" y="246" type="line"/>
      <point x="208" y="246" type="line"/>
      <point x="325" y="544" type="line"/>
      <point x="331" y="544" type="line"/>
    </contour>
    <contour>
      <point x="450" y="816" type="curve"/>
      <point x="392" y="816" type="line"/>
      <point x="392" y="765"/>
      <point x="373" y="747"/>
      <point x="328" y="747" type="curve" smooth="yes"/>
      <point x="287" y="747"/>
      <point x="264" y="763"/>
      <point x="264" y="816" type="curve"/>
      <point x="206" y="816" type="line"/>
      <point x="206" y="735"/>
      <point x="247" y="699"/>
      <point x="328" y="699" type="curve" smooth="yes"/>
      <point x="409" y="699"/>
      <point x="450" y="733"/>
    </contour>
  </outline>
</glyph>
<glyph name="Aogonek" format="1">
  <advance width="648"/>
  <unicode hex="0104"/>
  <outline>
    <contour>
      <point x="647" y="-189" type="curve"/>
      <point x="638" y="-140" type="line"/>
      <point x="620" y="-151"/>
      <point x="602" y="-155"/>
      <point x="584" y="-155" type="curve" smooth="yes"/>
      <point x="550" y="-155"/>
      <point x="526" y="-141"/>
      <point x="526" y="-99" type="curve" smooth="yes"/>
      <point x="526" y="-66"/>
      <point x="542" y="-29"/>
      <point x="590" y="0" type="curve"/>
      <point x="655" y="0" type="line"/>
      <point x="655" y="64" type="line"/>
      <point x="589" y="64" type="line"/>
      <point x="356" y="650" type="line"/>
      <point x="171" y="650" type="line"/>
      <point x="171" y="586" type="line"/>
      <point x="275" y="586" type="line"/>
      <point x="62" y="64" type="line"/>
      <point x="1" y="64" type="line"/>
      <point x="1" y="0" type="line"/>
      <point x="230" y="0" type="line"/>
      <point x="230" y="64" type="line"/>
      <point x="136" y="64" type="line"/>
      <point x="186" y="189" type="line"/>
      <point x="464" y="189" type="line"/>
      <point x="511" y="64" type="line"/>
      <point x="424" y="64" type="line"/>
      <point x="424" y="0" type="line"/>
      <point x="536" y="0" type="line"/>
      <point x="495" y="-25"/>
      <point x="464" y="-67"/>
      <point x="464" y="-118" type="curve" smooth="yes"/>
      <point x="464" y="-175"/>
      <point x="506" y="-209"/>
      <point x="568" y="-209" type="curve" smooth="yes"/>
      <point x="599" y="-209"/>
      <point x="625" y="-201"/>
    </contour>
    <contour>
      <point x="443" y="246" type="line"/>
      <point x="208" y="246" type="line"/>
      <point x="325" y="544" type="line"/>
      <point x="331" y="544" type="line"/>
    </contour>
  </outline>
</glyph>
<glyph name="aogonek" format="1">
  <advance width="483"/>
  <unicode hex="0105"/>
  <outline>
    <contour>
      <point x="480" y="-189" type="curve"/>
      <point x="471" y="-140" type="line"/>
      <point x="453" y="-151"/>
      <point x="435" y="-155"/>
      <point x="417" y="-155" type="curve" smooth="yes"/>
      <point x="383" y="-155"/>
      <point x="359" y="-141"/>
      <point x="359" y="-99" type="curve" smooth="yes"/>
      <point x="359" y="-69"/>
      <point x="371" y="-37"/>
      <point x="408" y="-10" type="curve"/>
      <point x="429" y="-10"/>
      <point x="450" y="-4"/>
      <point x="466" y="5" type="curve"/>
      <point x="465" y="51" type="line"/>
      <point x="456" y="47"/>
      <point x="444" y="45"/>
      <point x="435" y="45" type="curve" smooth="yes"/>
      <point x="409" y="45"/>
      <point x="397" y="60"/>
      <point x="397" y="93" type="curve" smooth="yes"/>
      <point x="397" y="305" type="line" smooth="yes"/>
      <point x="397" y="405"/>
      <point x="341" y="454"/>
      <point x="238" y="454" type="curve" smooth="yes"/>
      <point x="180" y="454"/>
      <point x="127" y="442"/>
      <point x="81" y="411" type="curve"/>
      <point x="65" y="308" type="line"/>
      <point x="123" y="301" type="line"/>
      <point x="140" y="378" type="line"/>
      <point x="167" y="391"/>
      <point x="196" y="396"/>
      <point x="226" y="396" type="curve" smooth="yes"/>
      <point x="306" y="396"/>
      <point x="327" y="352"/>
      <point x="327" y="288" type="curve" smooth="yes"/>
      <point x="327" y="248" type="line"/>
      <point x="303" y="250"/>
      <point x="275" y="252"/>
      <point x="248" y="252" type="curve" smooth="yes"/>
      <point x="148" y="252"/>
      <point x="40" y="227"/>
      <point x="40" y="115" type="curve" smooth="yes"/>
      <point x="40" y="20"/>
      <point x="116" y="-10"/>
      <point x="175" y="-10" type="curve" smooth="yes"/>
      <point x="247" y="-10"/>
      <point x="299" y="34"/>
      <point x="327" y="82" type="curve"/>
      <point x="327" y="80" type="line" smooth="yes"/>
      <point x="327" y="41"/>
      <point x="341" y="12"/>
      <point x="368" y="-1" type="curve"/>
      <point x="327" y="-26"/>
      <point x="297" y="-68"/>
      <point x="297" y="-118" type="curve" smooth="yes"/>
      <point x="297" y="-175"/>
      <point x="339" y="-209"/>
      <point x="401" y="-209" type="curve" smooth="yes"/>
      <point x="432" y="-209"/>
      <point x="458" y="-201"/>
    </contour>
    <contour>
      <point x="327" y="167" type="line"/>
      <point x="322" y="94"/>
      <point x="258" y="48"/>
      <point x="196" y="48" type="curve" smooth="yes"/>
      <point x="157" y="48"/>
      <point x="113" y="66"/>
      <point x="113" y="123" type="curve" smooth="yes"/>
      <point x="113" y="192"/>
      <point x="178" y="206"/>
      <point x="244" y="206" type="curve" smooth="yes"/>
      <point x="274" y="206"/>
      <point x="302" y="203"/>
      <point x="327" y="201" type="curve"/>
    </contour>
  </outline>
</glyph>
<glyph name="Dcaron" format="1">
  <advance width="705"/>
  <unicode hex="010E"/>
  <outline>
    <contour>
      <point x="441" y="792" type="line"/>
      <point x="422" y="827" type="line"/>
      <point x="307" y="763" type="line"/>
      <point x="187" y="824" type="line"/>
      <point x="167" y="790" type="line"/>
      <point x="293" y="701" type="line"/>
      <point x="315" y="701" type="line"/>
    </contour>
    <contour>
      <point x="665" y="326" type="curve" smooth="yes"/>
      <point x="665" y="514"/>
      <point x="545" y="650"/>
      <point x="333" y="650" type="curve" smooth="yes"/>
      <point x="42" y="650" type="line"/>
      <point x="42" y="587" type="line"/>
      <point x="124" y="587" type="line"/>
      <point x="124" y="63" type="line"/>
      <point x="42" y="63" type="line"/>
      <point x="42" y="0" type="line"/>
      <point x="336" y="0" type="line" smooth="yes"/>
      <point x="541" y="0"/>
      <point x="665" y="135"/>
    </contour>
    <contour>
      <point x="587" y="325" type="curve" smooth="yes"/>
      <point x="587" y="164"/>
      <point x="497" y="63"/>
      <point x="332" y="63" type="curve" smooth="yes"/>
      <point x="197" y="63" type="line"/>
      <point x="197" y="587" type="line"/>
      <point x="332" y="587" type="line" smooth="yes"/>
      <point x="497" y="587"/>
      <point x="587" y="482"/>
    </contour>
  </outline>
</glyph>
<glyph name="Ebreve" format="1">
  <advance width="589"/>
  <unicode hex="0114"/>
  <outline>
    <contour>
      <point x="449" y="816" type="curve"/>
      <point x="391" y="816" type="line"/>
      <point x="391" y="765"/>
      <point x="372" y="747"/>
      <point x="327" y="747" type="curve" smooth="yes"/>
      <point x="286" y="747"/>
      <point x="263" y="763"/>
      <point x="263" y="816" type="curve"/>
      <point x="205" y="816" type="line"/>
      <point x="205" y="735"/>
      <point x="246" y="699"/>
      <point x="327" y="699" type="curve" smooth="yes"/>
      <point x="408" y="699"/>
      <point x="449" y="733"/>
    </contour>
    <contour>
      <point x="526" y="0" type="line"/>
      <point x="545" y="184" type="line"/>
      <point x="482" y="191" type="line"/>
      <point x="462" y="64" type="line"/>
      <point x="197" y="64" type="line"/>
      <point x="197" y="298" type="line"/>
      <point x="504" y="298" type="line"/>
      <point x="504" y="362" type="line"/>
      <point x="197" y="362" type="line"/>
      <point x="197" y="586" type="line"/>
      <point x="453" y="586" type="line"/>
      <point x="473" y="459" type="line"/>
      <point x="537" y="466" type="line"/>
      <point x="517" y="650" type="line"/>
      <point x="42" y="650" type="line"/>
      <point x="42" y="586" type="line"/>
      <point x="124" y="586" type="line"/>
      <point x="124" y="64" type="line"/>
      <point x="42" y="64" type="line"/>
      <point x="42" y="0" type="line"/>
    </contour>
  </outline>
</glyph>
<glyph name="Edotaccent" format="1">
  <advance width="589"/>
  <unicode hex="0116"/>
  <outline>
    <contour>
      <point x="281" y="718" type="line"/>
      <point x="362" y="718" type="line"/>
      <point x="362" y="803" type="line"/>
      <point x="281" y="803" type="line"/>
    </contour>
    <contour>
      <point x="526" y="0" type="line"/>
      <point x="545" y="184" type="line"/>
      <point x="482" y="191" type="line"/>
      <point x="462" y="64" type="line"/>
      <point x="197" y="64" type="line"/>
      <point x="197" y="298" type="line"/>
      <point x="504" y="298" type="line"/>
      <point x="504" y="362" type="line"/>
      <point x="197" y="362" type="line"/>
      <point x="197" y="586" type="line"/>
      <point x="453" y="586" type="line"/>
      <point x="473" y="459" type="line"/>
      <point x="537" y="466" type="line"/>
      <point x="517" y="650" type="line"/>
      <point x="42" y="650" type="line"/>
      <point x="42" y="586" type="line"/>
      <point x="124" y="586" type="line"/>
      <point x="124" y="64" type="line"/>
      <point x="42" y="64" type="line"/>
      <point x="42" y="0" type="line"/>
    </contour>
  </outline>
</glyph>
<glyph name="Eogonek" format="1">
  <advance width="588"/>
  <unicode hex="0118"/>
  <outline>
    <contour>
      <point x="526" y="0" type="line"/>
      <point x="545" y="184" type="line"/>
      <point x="482" y="191" type="line"/>
      <point x="462" y="64" type="line"/>
      <point x="197" y="64" type="line"/>
      <point x="197" y="298" type="line"/>
      <point x="504" y="298" type="line"/>
      <point x="504" y="362" type="line"/>
      <point x="197" y="362" type="line"/>
      <point x="197" y="586" type="line"/>
      <point x="453" y="586" type="line"/>
      <point x="473" y="459" type="line"/>
      <point x="537" y="466" type="line"/>
      <point x="517" y="650" type="line"/>
      <point x="42" y="650" type="line"/>
      <point x="42" y="586" type="line"/>
      <point x="124" y="586" type="line"/>
      <point x="124" y="64" type="line"/>
      <point x="42" y="64" type="line"/>
      <point x="42" y="0" type="line"/>
      <point x="433" y="0" type="line"/>
      <point x="392" y="-25"/>
      <point x="361" y="-67"/>
      <point x="361" y="-118" type="curve" smooth="yes"/>
      <point x="361" y="-175"/>
      <point x="403" y="-209"/>
      <point x="465" y="-209" type="curve" smooth="yes"/>
      <point x="496" y="-209"/>
      <point x="522" y="-201"/>
      <point x="544" y="-189" type="curve"/>
      <point x="535" y="-140" type="line"/>
      <point x="517" y="-151"/>
      <point x="499" y="-155"/>
      <point x="481" y="-155" type="curve" smooth="yes"/>
      <point x="447" y="-155"/>
      <point x="423" y="-141"/>
      <point x="423" y="-99" type="curve" smooth="yes"/>
      <point x="423" y="-66"/>
      <point x="439" y="-29"/>
      <point x="487" y="0" type="curve"/>
    </contour>
  </outline>
</glyph>
<glyph name="Ecaron" format="1">
  <advance width="589"/>
  <unicode hex="011A"/>
  <outline>
    <contour>
      <point x="455" y="792" type="line"/>
      <point x="436" y="827" type="line"/>
      <point x="321" y="763" type="line"/>
      <point x="201" y="824" type="line"/>
      <point x="181" y="790" type="line"/>
      <point x="307" y="701" type="line"/>
      <point x="329" y="701" type="line"/>
    </contour>
    <contour>
      <point x="526" y="0" type="line"/>
      <point x="545" y="184" type="line"/>
      <point x="482" y="191" type="line"/>
      <point x="462" y="64" type="line"/>
      <point x="197" y="64" type="line"/>
      <point x="197" y="298" type="line"/>
      <point x="504" y="298" type="line"/>
      <point x="504" y="362" type="line"/>
      <point x="197" y="362" type="line"/>
      <point x="197" y="586" type="line"/>
      <point x="453" y="586" type="line"/>
      <point x="473" y="459" type="line"/>
      <point x="537" y="466" type="line"/>
      <point x="517" y="650" type="line"/>
      <point x="42" y="650" type="line"/>
      <point x="42" y="586" type="line"/>
      <point x="124" y="586" type="line"/>
      <point x="124" y="64" type="line"/>
      <point x="42" y="64" type="line"/>
      <point x="42" y="0" type="line"/>
    </contour>
  </outline>
</glyph>
<glyph name="gbreve" format="1">
  <advance width="548"/>
  <unicode hex="011F"/>
  <outline>
    <contour>
      <point x="531" y="388" type="line"/>
      <point x="531" y="445" type="line"/>
      <point x="388" y="445" type="line"/>
      <point x="388" y="375" type="line"/>
      <point x="359" y="426"/>
      <point x="304" y="454"/>
      <point x="237" y="454" type="curve" smooth="yes"/>
      <point x="99" y="454"/>
      <point x="38" y="330"/>
      <point x="38" y="211" type="curve" smooth="yes"/>
      <point x="38" y="71"/>
      <point x="123" y="-6"/>
      <point x="229" y="-6" type="curve" smooth="yes"/>
      <point x="313" y="-6"/>
      <point x="361" y="39"/>
      <point x="388" y="91" type="curve"/>
      <point x="388" y="9" type="line" smooth="yes"/>
      <point x="388" y="-102"/>
      <point x="328" y="-163"/>
      <point x="243" y="-163" type="curve" smooth="yes"/>
      <point x="183" y="-163"/>
      <point x="120" y="-134"/>
      <point x="97" y="-64" type="curve"/>
      <point x="41" y="-92" type="line"/>
      <point x="65" y="-181"/>
      <point x="147" y="-223"/>
      <point x="240" y="-223" type="curve" smooth="yes"/>
      <point x="379" y="-223"/>
      <point x="459" y="-134"/>
      <point x="459" y="6" type="curve" smooth="yes"/>
      <point x="459" y="388" type="line"/>
    </contour>
    <contour>
      <point x="388" y="192" type="line"/>
      <point x="386" y="125"/>
      <point x="329" y="54"/>
      <point x="244" y="54" type="curve" smooth="yes"/>
      <point x="171" y="54"/>
      <point x="114" y="107"/>
      <point x="114" y="216" type="curve" smooth="yes"/>
      <point x="114" y="310"/>
      <point x="156" y="394"/>
      <point x="256" y="394" type="curve" smooth="yes"/>
      <point x="329" y="394"/>
      <point x="388" y="344"/>
      <point x="388" y="269" type="curve" smooth="yes"/>
    </contour>
    <contour>
      <point x="382" y="655" type="curve"/>
      <point x="323" y="655" type="line"/>
      <point x="323" y="604"/>
      <point x="304" y="580"/>
      <point x="260" y="580" type="curve" smooth="yes"/>
      <point x="219" y="580"/>
      <point x="196" y="601"/>
      <point x="196" y="655" type="curve"/>
      <point x="137" y="655" type="line"/>
      <point x="137" y="574"/>
      <point x="178" y="532"/>
      <point x="259" y="532" type="curve" smooth="yes"/>
      <point x="339" y="532"/>
      <point x="382" y="572"/>
    </contour>
  </outline>
</glyph>
<glyph name="hcircumflex" format="1">
  <advance width="561"/>
  <unicode hex="0125"/>
  <outline>
    <contour>
      <point x="238" y="749" type="line"/>
      <point x="117" y="867" type="line"/>
      <point x="95" y="867" type="line"/>
      <point x="-26" y="747" type="line"/>
      <point x="-1" y="715" type="line"/>
      <point x="100" y="799" type="line"/>
      <point x="211" y="715" type="line"/>
    </contour>
    <contour>
      <point x="551" y="0" type="line"/>
      <point x="551" y="57" type="line"/>
      <point x="474" y="57" type="line"/>
      <point x="474" y="285" type="line" smooth="yes"/>
      <point x="474" y="403"/>
      <point x="408" y="454"/>
      <point x="321" y="454" type="curve" smooth="yes"/>
      <point x="249" y="454"/>
      <point x="195" y="420"/>
      <point x="165" y="365" type="curve"/>
      <point x="165" y="688" type="line"/>
      <point x="17" y="688" type="line"/>
      <point x="17" y="631" type="line"/>
      <point x="94" y="631" type="line"/>
      <point x="94" y="57" type="line"/>
      <point x="17" y="57" type="line"/>
      <point x="17" y="0" type="line"/>
      <point x="242" y="0" type="line"/>
      <point x="242" y="57" type="line"/>
      <point x="165" y="57" type="line"/>
      <point x="165" y="267" type="line"/>
      <point x="168" y="332"/>
      <point x="220" y="395"/>
      <point x="298" y="395" type="curve" smooth="yes"/>
      <point x="360" y="395"/>
      <point x="403" y="360"/>
      <point x="403" y="264" type="curve" smooth="yes"/>
      <point x="403" y="57" type="line"/>
      <point x="325" y="57" type="line"/>
      <point x="325" y="0" type="line"/>
    </contour>
  </outline>
</glyph>
<glyph name="hbar" format="1">
  <advance width="561"/>
  <unicode hex="0127"/>
  <outline>
    <contour>
      <point x="551" y="0" type="line"/>
      <point x="551" y="57" type="line"/>
      <point x="474" y="57" type="line"/>
      <point x="474" y="285" type="line" smooth="yes"/>
      <point x="474" y="403"/>
      <point x="408" y="454"/>
      <point x="321" y="454" type="curve" smooth="yes"/>
      <point x="249" y="454"/>
      <point x="195" y="420"/>
      <point x="165" y="365" type="curve"/>
      <point x="165" y="517" type="line"/>
      <point x="337" y="517" type="line"/>
      <point x="337" y="566" type="line"/>
      <point x="165" y="566" type="line"/>
      <point x="165" y="688" type="line"/>
      <point x="17" y="688" type="line"/>
      <point x="17" y="631" type="line"/>
      <point x="94" y="631" type="line"/>
      <point x="94" y="566" type="line"/>
      <point x="22" y="566" type="line"/>
      <point x="22" y="517" type="line"/>
      <point x="94" y="517" type="line"/>
      <point x="94" y="57" type="line"/>
      <point x="17" y="57" type="line"/>
      <point x="17" y="0" type="line"/>
      <point x="242" y="0" type="line"/>
      <point x="242" y="57" type="line"/>
      <point x="165" y="57" type="line"/>
      <point x="165" y="267" type="line"/>
      <point x="168" y="332"/>
      <point x="220" y="395"/>
      <point x="298" y="395" type="curve" smooth="yes"/>
      <point x="360" y="395"/>
      <point x="403" y="360"/>
      <point x="403" y="264" type="curve" smooth="yes"/>
      <point x="403" y="57" type="line"/>
      <point x="325" y="57" type="line"/>
      <point x="325" y="0" type="line"/>
    </contour>
  </outline>
</glyph>
<glyph name="imacron" format="1">
  <advance width="280"/>
  <unicode hex="012B"/>
  <outline>
    <contour>
      <point x="34" y="57" type="line"/>
      <point x="112" y="57" type="line"/>
      <point x="112" y="388" type="line"/>
      <point x="32" y="388" type="line"/>
      <point x="32" y="445" type="line"/>
      <point x="182" y="445" type="line"/>
      <point x="182" y="57" type="line"/>
      <point x="260" y="57" type="line"/>
      <point x="260" y="0" type="line"/>
      <point x="34" y="0" type="line"/>
    </contour>
    <contour>
      <point x="252" y="564" type="line"/>
      <point x="252" y="621" type="line"/>
      <point x="8" y="621" type="line"/>
      <point x="8" y="564" type="line"/>
    </contour>
  </outline>
</glyph>
<glyph name="Ibreve" format="1">
  <advance width="322"/>
  <unicode hex="012C"/>
  <outline>
    <contour>
      <point x="279" y="0" type="line"/>
      <point x="279" y="64" type="line"/>
      <point x="198" y="64" type="line"/>
      <point x="198" y="586" type="line"/>
      <point x="279" y="586" type="line"/>
      <point x="279" y="650" type="line"/>
      <point x="42" y="650" type="line"/>
      <point x="42" y="586" type="line"/>
      <point x="124" y="586" type="line"/>
      <point x="124" y="64" type="line"/>
      <point x="42" y="64" type="line"/>
      <point x="42" y="0" type="line"/>
    </contour>
    <contour>
      <point x="283" y="816" type="curve"/>
      <point x="225" y="816" type="line"/>
      <point x="225" y="765"/>
      <point x="206" y="747"/>
      <point x="161" y="747" type="curve" smooth="yes"/>
      <point x="120" y="747"/>
      <point x="97" y="763"/>
      <point x="97" y="816" type="curve"/>
      <point x="39" y="816" type="line"/>
      <point x="39" y="735"/>
      <point x="80" y="699"/>
      <point x="161" y="699" type="curve" smooth="yes"/>
      <point x="242" y="699"/>
      <point x="283" y="733"/>
    </contour>
  </outline>
</glyph>
<glyph name="iogonek" format="1">
  <advance width="279"/>
  <unicode hex="012F"/>
  <outline>
    <contour>
      <point x="226" y="-140" type="line"/>
      <point x="208" y="-151"/>
      <point x="190" y="-155"/>
      <point x="172" y="-155" type="curve" smooth="yes"/>
      <point x="137" y="-155"/>
      <point x="114" y="-141"/>
      <point x="114" y="-99" type="curve" smooth="yes"/>
      <point x="114" y="-66"/>
      <point x="129" y="-29"/>
      <point x="178" y="0" type="curve"/>
      <point x="260" y="0" type="line"/>
      <point x="260" y="57" type="line"/>
      <point x="182" y="57" type="line"/>
      <point x="182" y="445" type="line"/>
      <point x="32" y="445" type="line"/>
      <point x="32" y="388" type="line"/>
      <point x="112" y="388" type="line"/>
      <point x="112" y="57" type="line"/>
      <point x="34" y="57" type="line"/>
      <point x="34" y="0" type="line"/>
      <point x="123" y="0" type="line"/>
      <point x="82" y="-25"/>
      <point x="51" y="-67"/>
      <point x="51" y="-118" type="curve" smooth="yes"/>
      <point x="51" y="-175"/>
      <point x="93" y="-209"/>
      <point x="156" y="-209" type="curve" smooth="yes"/>
      <point x="187" y="-209"/>
      <point x="212" y="-201"/>
      <point x="235" y="-189" type="curve"/>
    </contour>
    <contour>
      <point x="105" y="560" type="line"/>
      <point x="181" y="560" type="line"/>
      <point x="181" y="651" type="line"/>
      <point x="105" y="651" type="line"/>
    </contour>
  </outline>
</glyph>
<glyph name="Idotaccent" format="1">
  <advance width="322"/>
  <unicode hex="0130"/>
  <outline>
    <contour>
      <point x="279" y="0" type="line"/>
      <point x="279" y="64" type="line"/>
      <point x="198" y="64" type="line"/>
      <point x="198" y="586" type="line"/>
      <point x="279" y="586" type="line"/>
      <point x="279" y="650" type="line"/>
      <point x="42" y="650" type="line"/>
      <point x="42" y="586" type="line"/>
      <point x="124" y="586" type="line"/>
      <point x="124" y="64" type="line"/>
      <point x="42" y="64" type="line"/>
      <point x="42" y="0" type="line"/>
    </contour>
    <contour>
      <point x="119" y="718" type="line"/>
      <point x="200" y="718" type="line"/>
      <point x="200" y="803" type="line"/>
      <point x="119" y="803" type="line"/>
    </contour>
  </outline>
</glyph>
<glyph name="jcircumflex" format="1">
  <advance width="252"/>
  <unicode hex="0135"/>
  <outline>
    <contour>
      <point x="7" y="445" type="line"/>
      <point x="177" y="445" type="line"/>
      <point x="177" y="-13" type="line" smooth="yes"/>
      <point x="177" y="-183"/>
      <point x="96" y="-233"/>
      <point x="-14" y="-224" type="curve"/>
      <point x="-16" y="-173" type="line"/>
      <point x="39" y="-173"/>
      <point x="106" y="-157"/>
      <point x="106" y="-13" type="curve" smooth="yes"/>
      <point x="106" y="388" type="line"/>
      <point x="7" y="388" type="line"/>
    </contour>
    <contour>
      <point x="248" y="553" type="line"/>
      <point x="127" y="671" type="line"/>
      <point x="105" y="671" type="line"/>
      <point x="-16" y="551" type="line"/>
      <point x="9" y="519" type="line"/>
      <point x="110" y="603" type="line"/>
      <point x="221" y="519" type="line"/>
    </contour>
  </outline>
</glyph>
<glyph name="Kcommaaccent" format="1">
  <advance width="641"/>
  <unicode hex="0136"/>
  <outline>
    <contour>
      <point x="376" y="-64" type="line"/>
      <point x="309" y="-64" type="line"/>
      <point x="301" y="-218" type="line"/>
      <point x="358" y="-218" type="line"/>
    </contour>
    <contour>
      <point x="635" y="0" type="line"/>
      <point x="635" y="64" type="line"/>
      <point x="562" y="64" type="line"/>
      <point x="362" y="338" type="line"/>
      <point x="549" y="587" type="line"/>
      <point x="623" y="587" type="line"/>
      <point x="623" y="651" type="line"/>
      <point x="394" y="651" type="line"/>
      <point x="394" y="587" type="line"/>
      <point x="471" y="587" type="line"/>
      <point x="304" y="362" type="line"/>
      <point x="198" y="362" type="line"/>
      <point x="198" y="586" type="line"/>
      <point x="274" y="586" type="line"/>
      <point x="274" y="650" type="line"/>
      <point x="42" y="650" type="line"/>
      <point x="42" y="586" type="line"/>
      <point x="124" y="586" type="line"/>
      <point x="124" y="64" type="line"/>
      <point x="42" y="64" type="line"/>
      <point x="42" y="0" type="line"/>
      <point x="273" y="0" type="line"/>
      <point x="273" y="64" type="line"/>
      <point x="198" y="64" type="line"/>
      <point x="198" y="299" type="line"/>
      <point x="306" y="299" type="line"/>
      <point x="478" y="64" type="line"/>
      <point x="401" y="64" type="line"/>
      <point x="401" y="0" type="line"/>
    </contour>
  </outline>
</glyph>
<glyph name="lacute" format="1">
  <advance width="267"/>
  <unicode hex="013A"/>
  <outline>
    <contour>
      <point x="224" y="755" type="line"/>
      <point x="207" y="823" type="line"/>
      <point x="16" y="750" type="line"/>
      <point x="27" y="713" type="line"/>
    </contour>
    <contour>
      <point x="246" y="0" type="line"/>
      <point x="246" y="57" type="line"/>
      <point x="168" y="57" type="line"/>
      <point x="168" y="688" type="line"/>
      <point x="19" y="688" type="line"/>
      <point x="19" y="631" type="line"/>
      <point x="98" y="631" type="line"/>
      <point x="98" y="57" type="line"/>
      <point x="20" y="57" type="line"/>
      <point x="20" y="0" type="line"/>
    </contour>
  </outline>
</glyph>
<glyph name="Lcommaaccent" format="1">
  <advance width="545"/>
  <unicode hex="013B"/>
  <outline>
    <contour>
      <point x="342" y="-64" type="line"/>
      <point x="275" y="-64" type="line"/>
      <point x="267" y="-218" type="line"/>
      <point x="324" y="-218" type="line"/>
    </contour>
    <contour>
      <point x="511" y="0" type="line"/>
      <point x="531" y="208" type="line"/>
      <point x="466" y="213" type="line"/>
      <point x="446" y="64" type="line"/>
      <point x="197" y="64" type="line"/>
      <point x="197" y="586" type="line"/>
      <point x="306" y="586" type="line"/>
      <point x="306" y="650" type="line"/>
      <point x="42" y="650" type="line"/>
      <point x="42" y="586" type="line"/>
      <point x="124" y="586" type="line"/>
      <point x="124" y="64" type="line"/>
      <point x="42" y="64" type="line"/>
      <point x="42" y="0" type="line"/>
    </contour>
  </outline>
</glyph>
<glyph name="lcommaaccent" format="1">
  <advance width="267"/>
  <unicode hex="013C"/>
  <outline>
    <contour>
      <point x="170" y="-64" type="line"/>
      <point x="103" y="-64" type="line"/>
      <point x="95" y="-218" type="line"/>
      <point x="152" y="-218" type="line"/>
    </contour>
    <contour>
      <point x="246" y="0" type="line"/>
      <point x="246" y="57" type="line"/>
      <point x="168" y="57" type="line"/>
      <point x="168" y="688" type="line"/>
      <point x="19" y="688" type="line"/>
      <point x="19" y="631" type="line"/>
      <point x="98" y="631" type="line"/>
      <point x="98" y="57" type="line"/>
      <point x="20" y="57" type="line"/>
      <point x="20" y="0" type="line"/>
    </contour>
  </outline>
</glyph>
<glyph name="ldot" format="1">
  <advance width="284"/>
  <unicode hex="0140"/>
  <outline>
    <contour>
      <point x="246" y="0" type="line"/>
      <point x="246" y="57" type="line"/>
      <point x="168" y="57" type="line"/>
      <point x="168" y="688" type="line"/>
      <point x="19" y="688" type="line"/>
      <point x="19" y="631" type="line"/>
      <point x="98" y="631" type="line"/>
      <point x="98" y="57" type="line"/>
      <point x="20" y="57" type="line"/>
      <point x="20" y="0" type="line"/>
    </contour>
    <contour>
      <point x="229" y="293" type="line"/>
      <point x="306" y="293" type="line"/>
      <point x="306" y="384" type="line"/>
      <point x="229" y="384" type="line"/>
    </contour>
  </outline>
</glyph>
<glyph name="Lslash" format="1">
  <advance width="546"/>
  <unicode hex="0141"/>
  <outline>
    <contour>
      <point x="512" y="0" type="line"/>
      <point x="532" y="208" type="line"/>
      <point x="467" y="213" type="line"/>
      <point x="447" y="64" type="line"/>
      <point x="198" y="64" type="line"/>
      <point x="198" y="295" type="line"/>
      <point x="354" y="357" type="line"/>
      <point x="354" y="416" type="line"/>
      <point x="198" y="354" type="line"/>
      <point x="198" y="586" type="line"/>
      <point x="307" y="586" type="line"/>
      <point x="307" y="650" type="line"/>
      <point x="43" y="650" type="line"/>
      <point x="43" y="586" type="line"/>
      <point x="125" y="586" type="line"/>
      <point x="125" y="325" type="line"/>
      <point x="45" y="294" type="line"/>
      <point x="45" y="235" type="line"/>
      <point x="125" y="266" type="line"/>
      <point x="125" y="64" type="line"/>
      <point x="43" y="64" type="line"/>
      <point x="43" y="0" type="line"/>
    </contour>
  </outline>
</glyph>
<glyph name="lslash" format="1">
  <advance width="273"/>
  <unicode hex="0142"/>
  <outline>
    <contour>
      <point x="21" y="242" type="line"/>
      <point x="101" y="279" type="line"/>
      <point x="101" y="57" type="line"/>
      <point x="23" y="57" type="line"/>
      <point x="23" y="0" type="line"/>
      <point x="249" y="0" type="line"/>
      <point x="249" y="57" type="line"/>
      <point x="171" y="57" type="line"/>
      <point x="171" y="311" type="line"/>
      <point x="253" y="350" type="line"/>
      <point x="253" y="409" type="line"/>
      <point x="171" y="370" type="line"/>
      <point x="171" y="688" type="line"/>
      <point x="22" y="688" type="line"/>
      <point x="22" y="631" type="line"/>
      <point x="101" y="631" type="line"/>
      <point x="101" y="338" type="line"/>
      <point x="21" y="301" type="line"/>
    </contour>
  </outline>
</glyph>
<glyph name="Ncommaaccent" format="1">
  <advance width="738"/>
  <unicode hex="0145"/>
  <outline>
    <contour>
      <point x="416" y="-64" type="line"/>
      <point x="349" y="-64" type="line"/>
      <point x="341" y="-218" type="line"/>
      <point x="398" y="-218" type="line"/>
    </contour>
    <contour>
      <point x="703" y="586" type="line"/>
      <point x="703" y="650" type="line"/>
      <point x="454" y="650" type="line"/>
      <point x="454" y="586" type="line"/>
      <point x="552" y="586" type="line"/>
      <point x="552" y="149" type="line"/>
      <point x="548" y="149" type="line"/>
      <point x="178" y="650" type="line"/>
      <point x="38" y="650" type="line"/>
      <point x="38" y="586" type="line"/>
      <point x="124" y="586" type="line"/>
      <point x="124" y="64" type="line"/>
      <point x="49" y="64" type="line"/>
      <point x="49" y="0" type="line"/>
      <point x="297" y="0" type="line"/>
      <point x="297" y="64" type="line"/>
      <point x="194" y="64" type="line"/>
      <point x="194" y="512" type="line"/>
      <point x="198" y="512" type="line"/>
      <point x="575" y="0" type="line"/>
      <point x="622" y="0" type="line"/>
      <point x="622" y="586" type="line"/>
    </contour>
  </outline>
</glyph>
<glyph name="Ncaron" format="1">
  <advance width="738"/>
  <unicode hex="0147"/>
  <outline>
    <contour>
      <point x="502" y="792" type="line"/>
      <point x="483" y="827" type="line"/>
      <point x="368" y="763" type="line"/>
      <point x="248" y="824" type="line"/>
      <point x="228" y="790" type="line"/>
      <point x="354" y="701" type="line"/>
      <point x="376" y="701" type="line"/>
    </contour>
    <contour>
      <point x="703" y="586" type="line"/>
      <point x="703" y="650" type="line"/>
      <point x="454" y="650" type="line"/>
      <point x="454" y="586" type="line"/>
      <point x="552" y="586" type="line"/>
      <point x="552" y="149" type="line"/>
      <point x="548" y="149" type="line"/>
      <point x="178" y="650" type="line"/>
      <point x="38" y="650" type="line"/>
      <point x="38" y="586" type="line"/>
      <point x="124" y="586" type="line"/>
      <point x="124" y="64" type="line"/>
      <point x="49" y="64" type="line"/>
      <point x="49" y="0" type="line"/>
      <point x="297" y="0" type="line"/>
      <point x="297" y="64" type="line"/>
      <point x="194" y="64" type="line"/>
      <point x="194" y="512" type="line"/>
      <point x="198" y="512" type="line"/>
      <point x="575" y="0" type="line"/>
      <point x="622" y="0" type="line"/>
      <point x="622" y="586" type="line"/>
    </contour>
  </outline>
</glyph>
<glyph name="ncaron" format="1">
  <advance width="573"/>
  <unicode hex="0148"/>
  <outline>
    <contour>
      <point x="430" y="638" type="line"/>
      <point x="404" y="671" type="line"/>
      <point x="302" y="586" type="line"/>
      <point x="192" y="670" type="line"/>
      <point x="166" y="636" type="line"/>
      <point x="287" y="519" type="line"/>
      <point x="309" y="519" type="line"/>
    </contour>
    <contour>
      <point x="564" y="0" type="line"/>
      <point x="564" y="57" type="line"/>
      <point x="487" y="57" type="line"/>
      <point x="487" y="285" type="line" smooth="yes"/>
      <point x="487" y="403"/>
      <point x="421" y="454"/>
      <point x="334" y="454" type="curve" smooth="yes"/>
      <point x="263" y="454"/>
      <point x="208" y="421"/>
      <point x="178" y="366" type="curve"/>
      <point x="178" y="445" type="line"/>
      <point x="28" y="445" type="line"/>
      <point x="28" y="388" type="line"/>
      <point x="108" y="388" type="line"/>
      <point x="108" y="57" type="line"/>
      <point x="30" y="57" type="line"/>
      <point x="30" y="0" type="line"/>
      <point x="256" y="0" type="line"/>
      <point x="256" y="57" type="line"/>
      <point x="178" y="57" type="line"/>
      <point x="178" y="265" type="line"/>
      <point x="181" y="333"/>
      <point x="233" y="395"/>
      <point x="313" y="395" type="curve" smooth="yes"/>
      <point x="373" y="395"/>
      <point x="416" y="360"/>
      <point x="416" y="264" type="curve" smooth="yes"/>
      <point x="416" y="57" type="line"/>
      <point x="339" y="57" type="line"/>
      <point x="339" y="0" type="line"/>
    </contour>
  </outline>
</glyph>
<glyph name="Eng" format="1">
  <advance width="738"/>
  <unicode hex="014A"/>
  <outline>
    <contour>
      <point x="703" y="586" type="line"/>
      <point x="703" y="650" type="line"/>
      <point x="454" y="650" type="line"/>
      <point x="454" y="586" type="line"/>
      <point x="552" y="586" type="line"/>
      <point x="552" y="149" type="line"/>
      <point x="548" y="149" type="line"/>
      <point x="178" y="650" type="line"/>
      <point x="38" y="650" type="line"/>
      <point x="38" y="586" type="line"/>
      <point x="124" y="586" type="line"/>
      <point x="124" y="64" type="line"/>
      <point x="49" y="64" type="line"/>
      <point x="49" y="0" type="line"/>
      <point x="297" y="0" type="line"/>
      <point x="297" y="64" type="line"/>
      <point x="194" y="64" type="line"/>
      <point x="194" y="512" type="line"/>
      <point x="198" y="512" type="line"/>
      <point x="548" y="36" type="line"/>
      <point x="548" y="-18" type="line" smooth="yes"/>
      <point x="548" y="-84"/>
      <point x="520" y="-126"/>
      <point x="448" y="-126" type="curve" smooth="yes"/>
      <point x="404" y="-126"/>
      <point x="373" y="-109"/>
      <point x="345" y="-56" type="curve"/>
      <point x="292" y="-96" type="line"/>
      <point x="320" y="-154"/>
      <point x="368" y="-194"/>
      <point x="454" y="-194" type="curve" smooth="yes"/>
      <point x="559" y="-194"/>
      <point x="622" y="-136"/>
      <point x="622" y="-18" type="curve" smooth="yes"/>
      <point x="622" y="586" type="line"/>
    </contour>
  </outline>
</glyph>
<glyph name="eng" format="1">
  <advance width="554"/>
  <unicode hex="014B"/>
  <outline>
    <contour>
      <point x="30" y="57" type="line"/>
      <point x="108" y="57" type="line"/>
      <point x="108" y="388" type="line"/>
      <point x="28" y="388" type="line"/>
      <point x="28" y="445" type="line"/>
      <point x="178" y="445" type="line"/>
      <point x="178" y="365" type="line"/>
      <point x="208" y="420"/>
      <point x="263" y="454"/>
      <point x="334" y="454" type="curve" smooth="yes"/>
      <point x="421" y="454"/>
      <point x="487" y="403"/>
      <point x="487" y="285" type="curve" smooth="yes"/>
      <point x="487" y="-13" type="line" smooth="yes"/>
      <point x="487" y="-183"/>
      <point x="406" y="-233"/>
      <point x="295" y="-224" type="curve"/>
      <point x="294" y="-173" type="line"/>
      <point x="349" y="-173"/>
      <point x="416" y="-157"/>
      <point x="416" y="-13" type="curve" smooth="yes"/>
      <point x="416" y="264" type="line" smooth="yes"/>
      <point x="416" y="360"/>
      <point x="374" y="395"/>
      <point x="312" y="395" type="curve" smooth="yes"/>
      <point x="232" y="395"/>
      <point x="178" y="331"/>
      <point x="178" y="262" type="curve" smooth="yes"/>
      <point x="178" y="57" type="line"/>
      <point x="256" y="57" type="line"/>
      <point x="256" y="0" type="line"/>
      <point x="30" y="0" type="line"/>
    </contour>
  </outline>
</glyph>
<glyph name="Obreve" format="1">
  <advance width="728"/>
  <unicode hex="014E"/>
  <outline>
    <contour>
      <point x="494" y="816" type="curve"/>
      <point x="436" y="816" type="line"/>
      <point x="436" y="765"/>
      <point x="417" y="747"/>
      <point x="372" y="747" type="curve" smooth="yes"/>
      <point x="331" y="747"/>
      <point x="308" y="763"/>
      <point x="308" y="816" type="curve"/>
      <point x="250" y="816" type="line"/>
      <point x="250" y="735"/>
      <point x="291" y="699"/>
      <point x="372" y="699" type="curve" smooth="yes"/>
      <point x="453" y="699"/>
      <point x="494" y="733"/>
    </contour>
    <contour>
      <point x="690" y="325" type="curve" smooth="yes"/>
      <point x="690" y="510"/>
      <point x="559" y="660"/>
      <point x="364" y="660" type="curve" smooth="yes"/>
      <point x="172" y="660"/>
      <point x="39" y="512"/>
      <point x="39" y="325" type="curve" smooth="yes"/>
      <point x="39" y="141"/>
      <point x="166" y="-10"/>
      <point x="362" y="-10" type="curve" smooth="yes"/>
      <point x="558" y="-10"/>
      <point x="690" y="141"/>
    </contour>
    <contour>
      <point x="611" y="324" type="curve" smooth="yes"/>
      <point x="611" y="173"/>
      <point x="519" y="56"/>
      <point x="366" y="56" type="curve" smooth="yes"/>
      <point x="208" y="56"/>
      <point x="118" y="179"/>
      <point x="118" y="326" type="curve" smooth="yes"/>
      <point x="118" y="475"/>
      <point x="210" y="594"/>
      <point x="364" y="594" type="curve" smooth="yes"/>
      <point x="515" y="594"/>
      <point x="611" y="480"/>
    </contour>
  </outline>
</glyph>
<glyph name="oe" format="1">
  <advance width="833"/>
  <unicode hex="0153"/>
  <outline>
    <contour>
      <point x="798" y="128" type="curve"/>
      <point x="739" y="141" type="line"/>
      <point x="725" y="86"/>
      <point x="686" y="50"/>
      <point x="616" y="50" type="curve" smooth="yes"/>
      <point x="529" y="50"/>
      <point x="481" y="105"/>
      <point x="475" y="201" type="curve" smooth="yes"/>
      <point x="475" y="206" type="line"/>
      <point x="788" y="206" type="line"/>
      <point x="792" y="224"/>
      <point x="794" y="242"/>
      <point x="794" y="259" type="curve" smooth="yes"/>
      <point x="793" y="364"/>
      <point x="727" y="454"/>
      <point x="605" y="454" type="curve" smooth="yes"/>
      <point x="531" y="454"/>
      <point x="473" y="419"/>
      <point x="438" y="362" type="curve"/>
      <point x="403" y="418"/>
      <point x="342" y="455"/>
      <point x="257" y="455" type="curve" smooth="yes"/>
      <point x="113" y="455"/>
      <point x="37" y="349"/>
      <point x="37" y="219" type="curve" smooth="yes"/>
      <point x="37" y="85"/>
      <point x="118" y="-10"/>
      <point x="253" y="-10" type="curve" smooth="yes"/>
      <point x="334" y="-10"/>
      <point x="397" y="24"/>
      <point x="435" y="79" type="curve"/>
      <point x="471" y="21"/>
      <point x="533" y="-10"/>
      <point x="611" y="-10" type="curve" smooth="yes"/>
      <point x="721" y="-10"/>
      <point x="786" y="52"/>
    </contour>
    <contour>
      <point x="401" y="237" type="curve"/>
      <point x="401" y="203" type="line"/>
      <point x="394" y="114"/>
      <point x="343" y="50"/>
      <point x="255" y="50" type="curve" smooth="yes"/>
      <point x="160" y="50"/>
      <point x="110" y="126"/>
      <point x="110" y="223" type="curve" smooth="yes"/>
      <point x="110" y="322"/>
      <point x="162" y="395"/>
      <point x="255" y="395" type="curve" smooth="yes"/>
      <point x="344" y="395"/>
      <point x="397" y="332"/>
    </contour>
    <contour>
      <point x="720" y="258" type="curve"/>
      <point x="476" y="258" type="line"/>
      <point x="485" y="333"/>
      <point x="521" y="396"/>
      <point x="603" y="396" type="curve" smooth="yes"/>
      <point x="690" y="396"/>
      <point x="727" y="324"/>
    </contour>
  </outline>
</glyph>
<glyph name="Racute" format="1">
  <advance width="616"/>
  <unicode hex="0154"/>
  <outline>
    <contour>
      <point x="607" y="0" type="line"/>
      <point x="607" y="64" type="line"/>
      <point x="525" y="64" type="line"/>
      <point x="409" y="286" type="line"/>
      <point x="501" y="310"/>
      <point x="548" y="382"/>
      <point x="548" y="466" type="curve" smooth="yes"/>
      <point x="548" y="571"/>
      <point x="484" y="650"/>
      <point x="323" y="650" type="curve" smooth="yes"/>
      <point x="42" y="650" type="line"/>
      <point x="42" y="586" type="line"/>
      <point x="124" y="586" type="line"/>
      <point x="124" y="64" type="line"/>
      <point x="42" y="64" type="line"/>
      <point x="42" y="0" type="line"/>
      <point x="285" y="0" type="line"/>
      <point x="285" y="64" type="line"/>
      <point x="198" y="64" type="line"/>
      <point x="198" y="272" type="line"/>
      <point x="337" y="272" type="line"/>
      <point x="477" y="0" type="line"/>
    </contour>
    <contour>
      <point x="471" y="463" type="curve" smooth="yes"/>
      <point x="471" y="382"/>
      <point x="427" y="333"/>
      <point x="316" y="333" type="curve" smooth="yes"/>
      <point x="198" y="333" type="line"/>
      <point x="198" y="586" type="line"/>
      <point x="314" y="586" type="line" smooth="yes"/>
      <point x="425" y="586"/>
      <point x="471" y="548"/>
    </contour>
    <contour>
      <point x="444" y="745" type="line"/>
      <point x="427" y="813" type="line"/>
      <point x="236" y="740" type="line"/>
      <point x="247" y="703" type="line"/>
    </contour>
  </outline>
</glyph>
<glyph name="racute" format="1">
  <advance width="420"/>
  <unicode hex="0155"/>
  <outline>
    <contour>
      <point x="406" y="624" type="line"/>
      <point x="366" y="683" type="line"/>
      <point x="212" y="551" type="line"/>
      <point x="234" y="520" type="line"/>
    </contour>
    <contour>
      <point x="284" y="453" type="curve" smooth="yes"/>
      <point x="233" y="453"/>
      <point x="191" y="415"/>
      <point x="174" y="365" type="curve"/>
      <point x="174" y="445" type="line"/>
      <point x="28" y="445" type="line"/>
      <point x="28" y="388" type="line"/>
      <point x="108" y="388" type="line"/>
      <point x="108" y="57" type="line"/>
      <point x="30" y="57" type="line"/>
      <point x="30" y="0" type="line"/>
      <point x="281" y="0" type="line"/>
      <point x="281" y="57" type="line"/>
      <point x="178" y="57" type="line"/>
      <point x="178" y="276" type="line" smooth="yes"/>
      <point x="178" y="345"/>
      <point x="217" y="393"/>
      <point x="269" y="393" type="curve" smooth="yes"/>
      <point x="281" y="393"/>
      <point x="292" y="391"/>
      <point x="303" y="387" type="curve"/>
      <point x="320" y="311" type="line"/>
      <point x="377" y="318" type="line"/>
      <point x="360" y="430" type="line"/>
      <point x="338" y="448"/>
      <point x="315" y="453"/>
    </contour>
  </outline>
</glyph>
<glyph name="sacute" format="1">
  <advance width="438"/>
  <unicode hex="015B"/>
  <outline>
    <contour>
      <point x="365" y="624" type="line"/>
      <point x="325" y="683" type="line"/>
      <point x="171" y="551" type="line"/>
      <point x="193" y="520" type="line"/>
    </contour>
    <contour>
      <point x="399" y="129" type="curve" smooth="yes"/>
      <point x="399" y="306"/>
      <point x="123" y="214"/>
      <point x="123" y="330" type="curve" smooth="yes"/>
      <point x="123" y="376"/>
      <point x="163" y="396"/>
      <point x="219" y="396" type="curve" smooth="yes"/>
      <point x="255" y="396"/>
      <point x="283" y="388"/>
      <point x="310" y="374" type="curve"/>
      <point x="321" y="302" type="line"/>
      <point x="379" y="309" type="line"/>
      <point x="368" y="413" type="line"/>
      <point x="331" y="435"/>
      <point x="274" y="454"/>
      <point x="213" y="454" type="curve" smooth="yes"/>
      <point x="132" y="454"/>
      <point x="48" y="419"/>
      <point x="48" y="325" type="curve" smooth="yes"/>
      <point x="48" y="152"/>
      <point x="327" y="245"/>
      <point x="327" y="123" type="curve" smooth="yes"/>
      <point x="327" y="72"/>
      <point x="269" y="48"/>
      <point x="207" y="48" type="curve" smooth="yes"/>
      <point x="170" y="48"/>
      <point x="137" y="56"/>
      <point x="108" y="70" type="curve"/>
      <point x="111" y="129" type="line"/>
      <point x="55" y="135" type="line"/>
      <point x="41" y="34" type="line"/>
      <point x="79" y="9"/>
      <point x="147" y="-10"/>
      <point x="210" y="-10" type="curve" smooth="yes"/>
      <point x="317" y="-10"/>
      <point x="399" y="42"/>
    </contour>
  </outline>
</glyph>
<glyph name="Tbar" format="1">
  <advance width="624"/>
  <unicode hex="0166"/>
  <outline>
    <contour>
      <point x="600" y="452" type="line"/>
      <point x="580" y="650" type="line"/>
      <point x="41" y="650" type="line"/>
      <point x="22" y="452" type="line"/>
      <point x="86" y="447" type="line"/>
      <point x="106" y="586" type="line"/>
      <point x="274" y="586" type="line"/>
      <point x="274" y="325" type="line"/>
      <point x="124" y="325" type="line"/>
      <point x="124" y="273" type="line"/>
      <point x="274" y="273" type="line"/>
      <point x="274" y="64" type="line"/>
      <point x="162" y="64" type="line"/>
      <point x="162" y="0" type="line"/>
      <point x="462" y="0" type="line"/>
      <point x="462" y="64" type="line"/>
      <point x="347" y="64" type="line"/>
      <point x="347" y="273" type="line"/>
      <point x="499" y="273" type="line"/>
      <point x="499" y="325" type="line"/>
      <point x="347" y="325" type="line"/>
      <point x="347" y="586" type="line"/>
      <point x="515" y="586" type="line"/>
      <point x="535" y="447" type="line"/>
    </contour>
  </outline>
</glyph>
<glyph name="Uring" format="1">
  <advance width="717"/>
  <unicode hex="016E"/>
  <outline>
    <contour>
      <point x="680" y="586" type="line"/>
      <point x="680" y="650" type="line"/>
      <point x="455" y="650" type="line"/>
      <point x="455" y="586" type="line"/>
      <point x="548" y="586" type="line"/>
      <point x="548" y="267" type="line" smooth="yes"/>
      <point x="548" y="128"/>
      <point x="482" y="56"/>
      <point x="361" y="56" type="curve" smooth="yes"/>
      <point x="236" y="56"/>
      <point x="177" y="130"/>
      <point x="177" y="258" type="curve" smooth="yes"/>
      <point x="177" y="586" type="line"/>
      <point x="267" y="586" type="line"/>
      <point x="267" y="650" type="line"/>
      <point x="36" y="650" type="line"/>
      <point x="36" y="586" type="line"/>
      <point x="103" y="586" type="line"/>
      <point x="103" y="256" type="line" smooth="yes"/>
      <point x="103" y="116"/>
      <point x="164" y="-10"/>
      <point x="357" y="-10" type="curve" smooth="yes"/>
      <point x="557" y="-10"/>
      <point x="617" y="129"/>
      <point x="617" y="267" type="curve" smooth="yes"/>
      <point x="617" y="586" type="line"/>
    </contour>
    <contour>
      <point x="462" y="784" type="curve" smooth="yes"/>
      <point x="462" y="836"/>
      <point x="432" y="874"/>
      <point x="364" y="874" type="curve" smooth="yes"/>
      <point x="301" y="874"/>
      <point x="265" y="837"/>
      <point x="265" y="782" type="curve" smooth="yes"/>
      <point x="265" y="725"/>
      <point x="298" y="690"/>
      <point x="363" y="690" type="curve" smooth="yes"/>
      <point x="429" y="690"/>
      <point x="462" y="729"/>
    </contour>
    <contour>
      <point x="413" y="784" type="curve" smooth="yes"/>
      <point x="413" y="753"/>
      <point x="398" y="730"/>
      <point x="363" y="730" type="curve" smooth="yes"/>
      <point x="329" y="730"/>
      <point x="314" y="751"/>
      <point x="314" y="782" type="curve" smooth="yes"/>
      <point x="314" y="812"/>
      <point x="329" y="834"/>
      <point x="363" y="834" type="curve" smooth="yes"/>
      <point x="400" y="834"/>
      <point x="413" y="811"/>
    </contour>
  </outline>
</glyph>
<glyph name="uring" format="1">
  <advance width="562"/>
  <unicode hex="016F"/>
  <outline>
    <contour>
      <point x="363" y="607" type="curve" smooth="yes"/>
      <point x="363" y="660"/>
      <point x="333" y="698"/>
      <point x="265" y="698" type="curve" smooth="yes"/>
      <point x="202" y="698"/>
      <point x="166" y="660"/>
      <point x="166" y="606" type="curve" smooth="yes"/>
      <point x="166" y="549"/>
      <point x="199" y="514"/>
      <point x="264" y="514" type="curve" smooth="yes"/>
      <point x="330" y="514"/>
      <point x="363" y="553"/>
    </contour>
    <contour>
      <point x="314" y="608" type="curve" smooth="yes"/>
      <point x="314" y="578"/>
      <point x="299" y="554"/>
      <point x="264" y="554" type="curve" smooth="yes"/>
      <point x="230" y="554"/>
      <point x="215" y="574"/>
      <point x="215" y="606" type="curve" smooth="yes"/>
      <point x="215" y="635"/>
      <point x="230" y="658"/>
      <point x="264" y="658" type="curve" smooth="yes"/>
      <point x="301" y="658"/>
      <point x="314" y="635"/>
    </contour>
    <contour>
      <point x="546" y="0" type="line"/>
      <point x="546" y="57" type="line"/>
      <point x="466" y="57" type="line"/>
      <point x="466" y="445" type="line"/>
      <point x="303" y="445" type="line"/>
      <point x="303" y="388" type="line"/>
      <point x="396" y="388" type="line"/>
      <point x="396" y="184" type="line"/>
      <point x="394" y="120"/>
      <point x="340" y="50"/>
      <point x="264" y="50" type="curve" smooth="yes"/>
      <point x="201" y="50"/>
      <point x="157" y="84"/>
      <point x="157" y="180" type="curve" smooth="yes"/>
      <point x="157" y="445" type="line"/>
      <point x="9" y="445" type="line"/>
      <point x="9" y="388" type="line"/>
      <point x="87" y="388" type="line"/>
      <point x="87" y="160" type="line" smooth="yes"/>
      <point x="87" y="41"/>
      <point x="154" y="-10"/>
      <point x="241" y="-10" type="curve" smooth="yes"/>
      <point x="312" y="-10"/>
      <point x="368" y="28"/>
      <point x="396" y="84" type="curve"/>
      <point x="396" y="0" type="line"/>
    </contour>
  </outline>
</glyph>
<glyph name="Uogonek" format="1">
  <advance width="719"/>
  <unicode hex="0172"/>
  <outline>
    <contour>
      <point x="681" y="586" type="line"/>
      <point x="681" y="650" type="line"/>
      <point x="456" y="650" type="line"/>
      <point x="456" y="586" type="line"/>
      <point x="549" y="586" type="line"/>
      <point x="549" y="267" type="line" smooth="yes"/>
      <point x="549" y="128"/>
      <point x="483" y="56"/>
      <point x="362" y="56" type="curve" smooth="yes"/>
      <point x="237" y="56"/>
      <point x="178" y="130"/>
      <point x="178" y="258" type="curve" smooth="yes"/>
      <point x="178" y="586" type="line"/>
      <point x="268" y="586" type="line"/>
      <point x="268" y="650" type="line"/>
      <point x="37" y="650" type="line"/>
      <point x="37" y="586" type="line"/>
      <point x="104" y="586" type="line"/>
      <point x="104" y="256" type="line" smooth="yes"/>
      <point x="104" y="116"/>
      <point x="164" y="-9"/>
      <point x="356" y="-10" type="curve"/>
      <point x="323" y="-35"/>
      <point x="299" y="-73"/>
      <point x="299" y="-118" type="curve" smooth="yes"/>
      <point x="299" y="-175"/>
      <point x="341" y="-209"/>
      <point x="403" y="-209" type="curve" smooth="yes"/>
      <point x="434" y="-209"/>
      <point x="460" y="-201"/>
      <point x="482" y="-189" type="curve"/>
      <point x="473" y="-140" type="line"/>
      <point x="455" y="-151"/>
      <point x="437" y="-155"/>
      <point x="419" y="-155" type="curve" smooth="yes"/>
      <point x="385" y="-155"/>
      <point x="361" y="-141"/>
      <point x="361" y="-99" type="curve" smooth="yes"/>
      <point x="361" y="-68"/>
      <point x="375" y="-34"/>
      <point x="417" y="-5" type="curve"/>
      <point x="570" y="19"/>
      <point x="618" y="143"/>
      <point x="618" y="267" type="curve" smooth="yes"/>
      <point x="618" y="586" type="line"/>
    </contour>
  </outline>
</glyph>
<glyph name="uogonek" format="1">
  <advance width="562"/>
  <unicode hex="0173"/>
  <outline>
    <contour>
      <point x="546" y="0" type="line"/>
      <point x="546" y="57" type="line"/>
      <point x="466" y="57" type="line"/>
      <point x="466" y="445" type="line"/>
      <point x="303" y="445" type="line"/>
      <point x="303" y="388" type="line"/>
      <point x="396" y="388" type="line"/>
      <point x="396" y="184" type="line"/>
      <point x="394" y="120"/>
      <point x="340" y="50"/>
      <point x="264" y="50" type="curve" smooth="yes"/>
      <point x="201" y="50"/>
      <point x="157" y="84"/>
      <point x="157" y="180" type="curve" smooth="yes"/>
      <point x="157" y="445" type="line"/>
      <point x="9" y="445" type="line"/>
      <point x="9" y="388" type="line"/>
      <point x="87" y="388" type="line"/>
      <point x="87" y="160" type="line" smooth="yes"/>
      <point x="87" y="41"/>
      <point x="154" y="-10"/>
      <point x="241" y="-10" type="curve" smooth="yes"/>
      <point x="312" y="-10"/>
      <point x="368" y="28"/>
      <point x="396" y="84" type="curve"/>
      <point x="396" y="0" type="line"/>
      <point x="443" y="0" type="line"/>
      <point x="402" y="-25"/>
      <point x="371" y="-67"/>
      <point x="371" y="-118" type="curve" smooth="yes"/>
      <point x="371" y="-175"/>
      <point x="413" y="-209"/>
      <point x="475" y="-209" type="curve" smooth="yes"/>
      <point x="506" y="-209"/>
      <point x="532" y="-201"/>
      <point x="554" y="-189" type="curve"/>
      <point x="545" y="-140" type="line"/>
      <point x="527" y="-151"/>
      <point x="509" y="-155"/>
      <point x="491" y="-155" type="curve" smooth="yes"/>
      <point x="457" y="-155"/>
      <point x="433" y="-141"/>
      <point x="433" y="-99" type="curve" smooth="yes"/>
      <point x="433" y="-66"/>
      <point x="449" y="-29"/>
      <point x="497" y="0" type="curve"/>
    </contour>
  </outline>
</glyph>
<glyph name="wcircumflex" format="1">
  <advance width="765"/>
  <unicode hex="0175"/>
  <outline>
    <contour>
      <point x="521" y="553" type="line"/>
      <point x="400" y="671" type="line"/>
      <point x="378" y="671" type="line"/>
      <point x="257" y="551" type="line"/>
      <point x="282" y="519" type="line"/>
      <point x="383" y="603" type="line"/>
      <point x="494" y="519" type="line"/>
    </contour>
    <contour>
      <point x="756" y="388" type="line"/>
      <point x="756" y="445" type="line"/>
      <point x="556" y="445" type="line"/>
      <point x="556" y="388" type="line"/>
      <point x="637" y="388" type="line"/>
      <point x="555" y="107" type="line"/>
      <point x="550" y="107" type="line"/>
      <point x="411" y="445" type="line"/>
      <point x="364" y="445" type="line"/>
      <point x="232" y="107" type="line"/>
      <point x="227" y="107" type="line"/>
      <point x="134" y="388" type="line"/>
      <point x="219" y="388" type="line"/>
      <point x="219" y="445" type="line"/>
      <point x="9" y="445" type="line"/>
      <point x="9" y="388" type="line"/>
      <point x="58" y="388" type="line"/>
      <point x="194" y="0" type="line"/>
      <point x="246" y="0" type="line"/>
      <point x="379" y="340" type="line"/>
      <point x="384" y="340" type="line"/>
      <point x="520" y="0" type="line"/>
      <point x="574" y="0" type="line"/>
      <point x="705" y="388" type="line"/>
    </contour>
  </outline>
</glyph>
<glyph name="ycircumflex" format="1">
  <advance width="511"/>
  <unicode hex="0177"/>
  <outline>
    <contour>
      <point x="502" y="388" type="line"/>
      <point x="502" y="445" type="line"/>
      <point x="306" y="445" type="line"/>
      <point x="306" y="388" type="line"/>
      <point x="378" y="388" type="line"/>
      <point x="267" y="89" type="line"/>
      <point x="261" y="89" type="line"/>
      <point x="136" y="388" type="line"/>
      <point x="214" y="388" type="line"/>
      <point x="214" y="445" type="line"/>
      <point x="8" y="445" type="line"/>
      <point x="8" y="388" type="line"/>
      <point x="61" y="388" type="line"/>
      <point x="223" y="1" type="line"/>
      <point x="165" y="-156" type="line"/>
      <point x="82" y="-156" type="line"/>
      <point x="82" y="-213" type="line"/>
      <point x="308" y="-213" type="line"/>
      <point x="308" y="-156" type="line"/>
      <point x="232" y="-156" type="line"/>
      <point x="292" y="0" type="line"/>
      <point x="449" y="388" type="line"/>
    </contour>
    <contour>
      <point x="397" y="553" type="line"/>
      <point x="276" y="671" type="line"/>
      <point x="254" y="671" type="line"/>
      <point x="133" y="551" type="line"/>
      <point x="158" y="519" type="line"/>
      <point x="259" y="603" type="line"/>
      <point x="370" y="519" type="line"/>
    </contour>
  </outline>
</glyph>
<glyph name="Ydieresis" format="1">
  <advance width="613"/>
  <unicode hex="0178"/>
  <outline>
    <contour>
      <point x="610" y="586" type="line"/>
      <point x="610" y="650" type="line"/>
      <point x="382" y="650" type="line"/>
      <point x="382" y="586" type="line"/>
      <point x="472" y="586" type="line"/>
      <point x="313" y="316" type="line"/>
      <point x="308" y="316" type="line"/>
      <point x="144" y="586" type="line"/>
      <point x="233" y="586" type="line"/>
      <point x="233" y="650" type="line"/>
      <point x="-4" y="650" type="line"/>
      <point x="-4" y="586" type="line"/>
      <point x="60" y="586" type="line"/>
      <point x="271" y="249" type="line"/>
      <point x="271" y="64" type="line"/>
      <point x="159" y="64" type="line"/>
      <point x="159" y="0" type="line"/>
      <point x="458" y="0" type="line"/>
      <point x="458" y="64" type="line"/>
      <point x="344" y="64" type="line"/>
      <point x="344" y="248" type="line"/>
      <point x="546" y="586" type="line"/>
    </contour>
    <contour>
      <point x="182" y="718" type="line"/>
      <point x="263" y="718" type="line"/>
      <point x="263" y="803" type="line"/>
      <point x="182" y="803" type="line"/>
    </contour>
    <contour>
      <point x="354" y="718" type="line"/>
      <point x="434" y="718" type="line"/>
      <point x="434" y="803" type="line"/>
      <point x="354" y="803" type="line"/>
    </contour>
  </outline>
</glyph>
<glyph name="Zacute" format="1">
  <advance width="577"/>
  <unicode hex="0179"/>
  <outline>
    <contour>
      <point x="514" y="0" type="line"/>
      <point x="540" y="193" type="line"/>
      <point x="477" y="202" type="line"/>
      <point x="449" y="64" type="line"/>
      <point x="135" y="64" type="line"/>
      <point x="135" y="67" type="line"/>
      <point x="521" y="610" type="line"/>
      <point x="519" y="650" type="line"/>
      <point x="71" y="650" type="line"/>
      <point x="46" y="462" type="line"/>
      <point x="108" y="453" type="line"/>
      <point x="136" y="586" type="line"/>
      <point x="416" y="586" type="line"/>
      <point x="416" y="583" type="line"/>
      <point x="32" y="44" type="line"/>
      <point x="34" y="0" type="line"/>
    </contour>
    <contour>
      <point x="434" y="745" type="line"/>
      <point x="417" y="813" type="line"/>
      <point x="226" y="740" type="line"/>
      <point x="237" y="703" type="line"/>
    </contour>
  </outline>
</glyph>
<glyph name="zacute" format="1">
  <advance width="464"/>
  <unicode hex="017A"/>
  <outline>
    <contour>
      <point x="375" y="624" type="line"/>
      <point x="335" y="683" type="line"/>
      <point x="181" y="551" type="line"/>
      <point x="203" y="520" type="line"/>
    </contour>
    <contour>
      <point x="413" y="0" type="line"/>
      <point x="437" y="138" type="line"/>
      <point x="380" y="147" type="line"/>
      <point x="357" y="57" type="line"/>
      <point x="128" y="57" type="line"/>
      <point x="410" y="403" type="line"/>
      <point x="407" y="445" type="line"/>
      <point x="49" y="445" type="line"/>
      <point x="37" y="306" type="line"/>
      <point x="93" y="299" type="line"/>
      <point x="106" y="388" type="line"/>
      <point x="316" y="388" type="line"/>
      <point x="36" y="43" type="line"/>
      <point x="39" y="0" type="line"/>
    </contour>
  </outline>
</glyph>
<glyph name="Zcaron" format="1">
  <advance width="577"/>
  <unicode hex="017D"/>
  <outline>
    <contour>
      <point x="430" y="792" type="line"/>
      <point x="411" y="827" type="line"/>
      <point x="296" y="763" type="line"/>
      <point x="176" y="824" type="line"/>
      <point x="156" y="790" type="line"/>
      <point x="282" y="701" type="line"/>
      <point x="304" y="701" type="line"/>
    </contour>
    <contour>
      <point x="514" y="0" type="line"/>
      <point x="540" y="193" type="line"/>
      <point x="477" y="202" type="line"/>
      <point x="449" y="64" type="line"/>
      <point x="135" y="64" type="line"/>
      <point x="135" y="67" type="line"/>
      <point x="521" y="610" type="line"/>
      <point x="519" y="650" type="line"/>
      <point x="71" y="650" type="line"/>
      <point x="46" y="462" type="line"/>
      <point x="108" y="453" type="line"/>
      <point x="136" y="586" type="line"/>
      <point x="416" y="586" type="line"/>
      <point x="416" y="583" type="line"/>
      <point x="32" y="44" type="line"/>
      <point x="34" y="0" type="line"/>
    </contour>
  </outline>
</glyph>
<glyph name="uni01C4" format="1">
  <advance width="1281"/>
  <unicode hex="01C4"/>
  <outline>
    <contour>
      <point x="1134" y="792" type="line"/>
      <point x="1115" y="827" type="line"/>
      <point x="1000" y="763" type="line"/>
      <point x="880" y="824" type="line"/>
      <point x="860" y="790" type="line"/>
      <point x="986" y="701" type="line"/>
      <point x="1008" y="701" type="line"/>
    </contour>
    <contour>
      <point x="1218" y="0" type="line"/>
      <point x="1244" y="193" type="line"/>
      <point x="1181" y="202" type="line"/>
      <point x="1153" y="64" type="line"/>
      <point x="839" y="64" type="line"/>
      <point x="839" y="67" type="line"/>
      <point x="1225" y="610" type="line"/>
      <point x="1223" y="650" type="line"/>
      <point x="775" y="650" type="line"/>
      <point x="750" y="462" type="line"/>
      <point x="812" y="453" type="line"/>
      <point x="840" y="586" type="line"/>
      <point x="1120" y="586" type="line"/>
      <point x="1120" y="583" type="line"/>
      <point x="736" y="44" type="line"/>
      <point x="738" y="0" type="line"/>
    </contour>
    <contour>
      <point x="665" y="326" type="curve" smooth="yes"/>
      <point x="665" y="514"/>
      <point x="545" y="650"/>
      <point x="333" y="650" type="curve" smooth="yes"/>
      <point x="42" y="650" type="line"/>
      <point x="42" y="587" type="line"/>
      <point x="124" y="587" type="line"/>
      <point x="124" y="63" type="line"/>
      <point x="42" y="63" type="line"/>
      <point x="42" y="0" type="line"/>
      <point x="336" y="0" type="line" smooth="yes"/>
      <point x="541" y="0"/>
      <point x="665" y="135"/>
    </contour>
    <contour>
      <point x="587" y="325" type="curve" smooth="yes"/>
      <point x="587" y="164"/>
      <point x="497" y="63"/>
      <point x="332" y="63" type="curve" smooth="yes"/>
      <point x="197" y="63" type="line"/>
      <point x="197" y="587" type="line"/>
      <point x="332" y="587" type="line" smooth="yes"/>
      <point x="497" y="587"/>
      <point x="587" y="482"/>
    </contour>
  </outline>
</glyph>
<glyph name="uni01C6" format="1">
  <advance width="1014"/>
  <unicode hex="01C6"/>
  <outline>
    <contour>
      <point x="921" y="638" type="line"/>
      <point x="895" y="671" type="line"/>
      <point x="793" y="586" type="line"/>
      <point x="683" y="670" type="line"/>
      <point x="657" y="636" type="line"/>
      <point x="778" y="519" type="line"/>
      <point x="800" y="519" type="line"/>
    </contour>
    <contour>
      <point x="962" y="0" type="line"/>
      <point x="986" y="138" type="line"/>
      <point x="929" y="147" type="line"/>
      <point x="906" y="57" type="line"/>
      <point x="677" y="57" type="line"/>
      <point x="959" y="403" type="line"/>
      <point x="956" y="445" type="line"/>
      <point x="598" y="445" type="line"/>
      <point x="586" y="306" type="line"/>
      <point x="642" y="299" type="line"/>
      <point x="655" y="388" type="line"/>
      <point x="865" y="388" type="line"/>
      <point x="585" y="43" type="line"/>
      <point x="588" y="0" type="line"/>
    </contour>
    <contour>
      <point x="535" y="0" type="line"/>
      <point x="535" y="57" type="line"/>
      <point x="458" y="57" type="line"/>
      <point x="458" y="688" type="line"/>
      <point x="280" y="688" type="line"/>
      <point x="280" y="631" type="line"/>
      <point x="388" y="631" type="line"/>
      <point x="388" y="373" type="line"/>
      <point x="359" y="425"/>
      <point x="304" y="454"/>
      <point x="239" y="454" type="curve" smooth="yes"/>
      <point x="94" y="454"/>
      <point x="38" y="330"/>
      <point x="38" y="211" type="curve" smooth="yes"/>
      <point x="38" y="72"/>
      <point x="114" y="-10"/>
      <point x="229" y="-10" type="curve" smooth="yes"/>
      <point x="310" y="-10"/>
      <point x="359" y="37"/>
      <point x="388" y="90" type="curve"/>
      <point x="388" y="0" type="line"/>
    </contour>
    <contour>
      <point x="388" y="197" type="line"/>
      <point x="385" y="130"/>
      <point x="327" y="50"/>
      <point x="247" y="50" type="curve" smooth="yes"/>
      <point x="170" y="50"/>
      <point x="112" y="107"/>
      <point x="112" y="216" type="curve" smooth="yes"/>
      <point x="112" y="310"/>
      <point x="156" y="394"/>
      <point x="255" y="394" type="curve" smooth="yes"/>
      <point x="326" y="394"/>
      <point x="385" y="342"/>
      <point x="388" y="268" type="curve"/>
    </contour>
  </outline>
</glyph>
<glyph name="uni01C7" format="1">
  <advance width="1000"/>
  <unicode hex="01C7"/>
  <outline>
    <contour>
      <point x="962" y="586" type="line"/>
      <point x="962" y="650" type="line"/>
      <point x="688" y="650" type="line"/>
      <point x="688" y="586" type="line"/>
      <point x="817" y="586" type="line"/>
      <point x="817" y="166" type="line" smooth="yes"/>
      <point x="817" y="101"/>
      <point x="788" y="59"/>
      <point x="717" y="59" type="curve" smooth="yes"/>
      <point x="673" y="59"/>
      <point x="642" y="75"/>
      <point x="614" y="129" type="curve"/>
      <point x="561" y="89" type="line"/>
      <point x="589" y="30"/>
      <point x="638" y="-10"/>
      <point x="723" y="-10" type="curve" smooth="yes"/>
      <point x="828" y="-10"/>
      <point x="890" y="48"/>
      <point x="890" y="166" type="curve" smooth="yes"/>
      <point x="890" y="586" type="line"/>
    </contour>
    <contour>
      <point x="511" y="0" type="line"/>
      <point x="531" y="208" type="line"/>
      <point x="466" y="213" type="line"/>
      <point x="446" y="64" type="line"/>
      <point x="197" y="64" type="line"/>
      <point x="197" y="586" type="line"/>
      <point x="306" y="586" type="line"/>
      <point x="306" y="650" type="line"/>
      <point x="42" y="650" type="line"/>
      <point x="42" y="586" type="line"/>
      <point x="124" y="586" type="line"/>
      <point x="124" y="64" type="line"/>
      <point x="42" y="64" type="line"/>
      <point x="42" y="0" type="line"/>
    </contour>
  </outline>
</glyph>
<glyph name="uni01C8" format="1">
  <advance width="779"/>
  <unicode hex="01C8"/>
  <outline>
    <contour>
      <point x="704" y="-13" type="curve" smooth="yes"/>
      <point x="704" y="445" type="line"/>
      <point x="534" y="445" type="line"/>
      <point x="534" y="388" type="line"/>
      <point x="633" y="388" type="line"/>
      <point x="633" y="-13" type="line" smooth="yes"/>
      <point x="633" y="-157"/>
      <point x="566" y="-170"/>
      <point x="511" y="-170" type="curve"/>
      <point x="513" y="-224" type="line"/>
      <point x="623" y="-233"/>
      <point x="704" y="-183"/>
    </contour>
    <contour>
      <point x="628" y="560" type="line"/>
      <point x="704" y="560" type="line"/>
      <point x="704" y="651" type="line"/>
      <point x="628" y="651" type="line"/>
    </contour>
    <contour>
      <point x="511" y="0" type="line"/>
      <point x="531" y="208" type="line"/>
      <point x="466" y="213" type="line"/>
      <point x="446" y="64" type="line"/>
      <point x="197" y="64" type="line"/>
      <point x="197" y="586" type="line"/>
      <point x="306" y="586" type="line"/>
      <point x="306" y="650" type="line"/>
      <point x="42" y="650" type="line"/>
      <point x="42" y="586" type="line"/>
      <point x="124" y="586" type="line"/>
      <point x="124" y="64" type="line"/>
      <point x="42" y="64" type="line"/>
      <point x="42" y="0" type="line"/>
    </contour>
  </outline>
</glyph>
<glyph name="uni01CB" format="1">
  <advance width="974"/>
  <unicode hex="01CB"/>
  <outline>
    <contour>
      <point x="899" y="-13" type="curve" smooth="yes"/>
      <point x="899" y="445" type="line"/>
      <point x="729" y="445" type="line"/>
      <point x="729" y="388" type="line"/>
      <point x="828" y="388" type="line"/>
      <point x="828" y="-13" type="line" smooth="yes"/>
      <point x="828" y="-157"/>
      <point x="761" y="-170"/>
      <point x="706" y="-170" type="curve"/>
      <point x="708" y="-224" type="line"/>
      <point x="818" y="-233"/>
      <point x="899" y="-183"/>
    </contour>
    <contour>
      <point x="823" y="560" type="line"/>
      <point x="899" y="560" type="line"/>
      <point x="899" y="651" type="line"/>
      <point x="823" y="651" type="line"/>
    </contour>
    <contour>
      <point x="703" y="586" type="line"/>
      <point x="703" y="650" type="line"/>
      <point x="454" y="650" type="line"/>
      <point x="454" y="586" type="line"/>
      <point x="552" y="586" type="line"/>
      <point x="552" y="149" type="line"/>
      <point x="548" y="149" type="line"/>
      <point x="178" y="650" type="line"/>
      <point x="38" y="650" type="line"/>
      <point x="38" y="586" type="line"/>
      <point x="124" y="586" type="line"/>
      <point x="124" y="64" type="line"/>
      <point x="49" y="64" type="line"/>
      <point x="49" y="0" type="line"/>
      <point x="297" y="0" type="line"/>
      <point x="297" y="64" type="line"/>
      <point x="194" y="64" type="line"/>
      <point x="194" y="512" type="line"/>
      <point x="198" y="512" type="line"/>
      <point x="575" y="0" type="line"/>
      <point x="622" y="0" type="line"/>
      <point x="622" y="586" type="line"/>
    </contour>
  </outline>
</glyph>
<glyph name="uni01F1" format="1">
  <advance width="1279"/>
  <unicode hex="01F1"/>
  <outline>
    <contour>
      <point x="1215" y="0" type="line"/>
      <point x="1241" y="193" type="line"/>
      <point x="1178" y="202" type="line"/>
      <point x="1150" y="64" type="line"/>
      <point x="836" y="64" type="line"/>
      <point x="836" y="67" type="line"/>
      <point x="1222" y="610" type="line"/>
      <point x="1220" y="650" type="line"/>
      <point x="772" y="650" type="line"/>
      <point x="747" y="462" type="line"/>
      <point x="809" y="453" type="line"/>
      <point x="837" y="586" type="line"/>
      <point x="1117" y="586" type="line"/>
      <point x="1117" y="583" type="line"/>
      <point x="733" y="44" type="line"/>
      <point x="735" y="0" type="line"/>
    </contour>
    <contour>
      <point x="665" y="326" type="curve" smooth="yes"/>
      <point x="665" y="514"/>
      <point x="545" y="650"/>
      <point x="333" y="650" type="curve" smooth="yes"/>
      <point x="42" y="650" type="line"/>
      <point x="42" y="587" type="line"/>
      <point x="124" y="587" type="line"/>
      <point x="124" y="63" type="line"/>
      <point x="42" y="63" type="line"/>
      <point x="42" y="0" type="line"/>
      <point x="336" y="0" type="line" smooth="yes"/>
      <point x="541" y="0"/>
      <point x="665" y="135"/>
    </contour>
    <contour>
      <point x="587" y="325" type="curve" smooth="yes"/>
      <point x="587" y="164"/>
      <point x="497" y="63"/>
      <point x="332" y="63" type="curve" smooth="yes"/>
      <point x="197" y="63" type="line"/>
      <point x="197" y="587" type="line"/>
      <point x="332" y="587" type="line" smooth="yes"/>
      <point x="497" y="587"/>
      <point x="587" y="482"/>
    </contour>
  </outline>
</glyph>
<glyph name="uni01F2" format="1">
  <advance width="1169"/>
  <unicode hex="01F2"/>
  <outline>
    <contour>
      <point x="1117" y="0" type="line"/>
      <point x="1141" y="138" type="line"/>
      <point x="1084" y="147" type="line"/>
      <point x="1061" y="57" type="line"/>
      <point x="832" y="57" type="line"/>
      <point x="1114" y="403" type="line"/>
      <point x="1111" y="445" type="line"/>
      <point x="753" y="445" type="line"/>
      <point x="741" y="306" type="line"/>
      <point x="797" y="299" type="line"/>
      <point x="810" y="388" type="line"/>
      <point x="1020" y="388" type="line"/>
      <point x="740" y="43" type="line"/>
      <point x="743" y="0" type="line"/>
    </contour>
    <contour>
      <point x="665" y="326" type="curve" smooth="yes"/>
      <point x="665" y="514"/>
      <point x="545" y="650"/>
      <point x="333" y="650" type="curve" smooth="yes"/>
      <point x="42" y="650" type="line"/>
      <point x="42" y="587" type="line"/>
      <point x="124" y="587" type="line"/>
      <point x="124" y="63" type="line"/>
      <point x="42" y="63" type="line"/>
      <point x="42" y="0" type="line"/>
      <point x="336" y="0" type="line" smooth="yes"/>
      <point x="541" y="0"/>
      <point x="665" y="135"/>
    </contour>
    <contour>
      <point x="587" y="325" type="curve" smooth="yes"/>
      <point x="587" y="164"/>
      <point x="497" y="63"/>
      <point x="332" y="63" type="curve" smooth="yes"/>
      <point x="197" y="63" type="line"/>
      <point x="197" y="587" type="line"/>
      <point x="332" y="587" type="line" smooth="yes"/>
      <point x="497" y="587"/>
      <point x="587" y="482"/>
    </contour>
  </outline>
</glyph>
<glyph name="AEacute" format="1">
  <advance width="919"/>
  <unicode hex="01FC"/>
  <outline>
    <contour>
      <point x="804" y="745" type="line"/>
      <point x="787" y="813" type="line"/>
      <point x="596" y="740" type="line"/>
      <point x="607" y="703" type="line"/>
    </contour>
    <contour>
      <point x="855" y="0" type="line"/>
      <point x="874" y="184" type="line"/>
      <point x="810" y="191" type="line"/>
      <point x="790" y="64" type="line"/>
      <point x="527" y="64" type="line"/>
      <point x="527" y="298" type="line"/>
      <point x="833" y="298" type="line"/>
      <point x="833" y="362" type="line"/>
      <point x="527" y="362" type="line"/>
      <point x="527" y="586" type="line"/>
      <point x="781" y="586" type="line"/>
      <point x="801" y="459" type="line"/>
      <point x="865" y="467" type="line"/>
      <point x="846" y="650" type="line"/>
      <point x="220" y="650" type="line"/>
      <point x="220" y="586" type="line"/>
      <point x="317" y="586" type="line"/>
      <point x="59" y="64" type="line"/>
      <point x="-7" y="64" type="line"/>
      <point x="-7" y="0" type="line"/>
      <point x="222" y="0" type="line"/>
      <point x="222" y="64" type="line"/>
      <point x="132" y="64" type="line"/>
      <point x="194" y="189" type="line"/>
      <point x="453" y="189" type="line"/>
      <point x="453" y="64" type="line"/>
      <point x="372" y="64" type="line"/>
      <point x="372" y="0" type="line"/>
    </contour>
    <contour>
      <point x="453" y="246" type="line"/>
      <point x="221" y="246" type="line"/>
      <point x="387" y="586" type="line"/>
      <point x="453" y="586" type="line"/>
    </contour>
  </outline>
</glyph>
<glyph name="Oslashacute" format="1">
  <advance width="735"/>
  <unicode hex="01FE"/>
  <outline>
    <contour>
      <point x="693" y="325" type="curve" smooth="yes"/>
      <point x="693" y="414"/>
      <point x="662" y="495"/>
      <point x="609" y="555" type="curve"/>
      <point x="694" y="650" type="line"/>
      <point x="615" y="650" type="line"/>
      <point x="566" y="595" type="line"/>
      <point x="513" y="636"/>
      <point x="445" y="660"/>
      <point x="367" y="660" type="curve" smooth="yes"/>
      <point x="175" y="660"/>
      <point x="42" y="512"/>
      <point x="42" y="325" type="curve" smooth="yes"/>
      <point x="42" y="235"/>
      <point x="72" y="154"/>
      <point x="125" y="93" type="curve"/>
      <point x="43" y="0" type="line"/>
      <point x="116" y="0" type="line"/>
      <point x="165" y="56" type="line"/>
      <point x="218" y="14"/>
      <point x="286" y="-10"/>
      <point x="365" y="-10" type="curve" smooth="yes"/>
      <point x="561" y="-10"/>
      <point x="693" y="141"/>
    </contour>
    <contour>
      <point x="614" y="324" type="curve" smooth="yes"/>
      <point x="614" y="173"/>
      <point x="522" y="56"/>
      <point x="369" y="56" type="curve" smooth="yes"/>
      <point x="305" y="56"/>
      <point x="253" y="75"/>
      <point x="213" y="109" type="curve"/>
      <point x="561" y="500" type="line"/>
      <point x="595" y="454"/>
      <point x="614" y="393"/>
    </contour>
    <contour>
      <point x="121" y="326" type="curve" smooth="yes"/>
      <point x="121" y="475"/>
      <point x="213" y="594"/>
      <point x="367" y="594" type="curve" smooth="yes"/>
      <point x="428" y="594"/>
      <point x="480" y="575"/>
      <point x="520" y="542" type="curve"/>
      <point x="174" y="149" type="line"/>
      <point x="139" y="197"/>
      <point x="121" y="259"/>
    </contour>
    <contour>
      <point x="534" y="745" type="line"/>
      <point x="517" y="813" type="line"/>
      <point x="326" y="740" type="line"/>
      <point x="337" y="703" type="line"/>
    </contour>
  </outline>
</glyph>
<glyph name="oslashacute" format="1">
  <advance width="516"/>
  <unicode hex="01FF"/>
  <outline>
    <contour>
      <point x="478" y="223" type="curve" smooth="yes"/>
      <point x="478" y="284"/>
      <point x="460" y="341"/>
      <point x="425" y="383" type="curve"/>
      <point x="478" y="445" type="line"/>
      <point x="416" y="445" type="line"/>
      <point x="390" y="415" type="line"/>
      <point x="356" y="439"/>
      <point x="312" y="454"/>
      <point x="259" y="454" type="curve" smooth="yes"/>
      <point x="114" y="454"/>
      <point x="38" y="349"/>
      <point x="38" y="219" type="curve" smooth="yes"/>
      <point x="38" y="155"/>
      <point x="56" y="101"/>
      <point x="89" y="61" type="curve"/>
      <point x="38" y="0" type="line"/>
      <point x="99" y="0" type="line"/>
      <point x="123" y="29" type="line"/>
      <point x="158" y="4"/>
      <point x="202" y="-10"/>
      <point x="254" y="-10" type="curve" smooth="yes"/>
      <point x="391" y="-10"/>
      <point x="478" y="87"/>
    </contour>
    <contour>
      <point x="402" y="224" type="curve" smooth="yes"/>
      <point x="402" y="125"/>
      <point x="351" y="51"/>
      <point x="257" y="51" type="curve" smooth="yes"/>
      <point x="220" y="51"/>
      <point x="190" y="62"/>
      <point x="168" y="81" type="curve"/>
      <point x="377" y="327" type="line"/>
      <point x="393" y="299"/>
      <point x="402" y="264"/>
    </contour>
    <contour>
      <point x="113" y="223" type="curve" smooth="yes"/>
      <point x="113" y="322"/>
      <point x="164" y="393"/>
      <point x="257" y="393" type="curve" smooth="yes"/>
      <point x="293" y="393"/>
      <point x="323" y="382"/>
      <point x="346" y="363" type="curve"/>
      <point x="138" y="118" type="line"/>
      <point x="121" y="147"/>
      <point x="113" y="183"/>
    </contour>
    <contour>
      <point x="431" y="624" type="line"/>
      <point x="391" y="683" type="line"/>
      <point x="237" y="551" type="line"/>
      <point x="258" y="520" type="line"/>
    </contour>
  </outline>
</glyph>
<glyph name="schwa" format="1">
  <advance width="470"/>
  <unicode hex="0259"/>
  <outline>
    <contour>
      <point x="35" y="316" type="curve"/>
      <point x="94" y="303" type="line"/>
      <point x="108" y="358"/>
      <point x="147" y="394"/>
      <point x="217" y="394" type="curve" smooth="yes"/>
      <point x="305" y="394"/>
      <point x="354" y="337"/>
      <point x="358" y="238" type="curve"/>
      <point x="45" y="238" type="line"/>
      <point x="41" y="220"/>
      <point x="39" y="202"/>
      <point x="39" y="185" type="curve" smooth="yes"/>
      <point x="40" y="80"/>
      <point x="106" y="-10"/>
      <point x="228" y="-10" type="curve" smooth="yes"/>
      <point x="354" y="-10"/>
      <point x="432" y="90"/>
      <point x="432" y="228" type="curve" smooth="yes"/>
      <point x="432" y="372"/>
      <point x="348" y="454"/>
      <point x="222" y="454" type="curve" smooth="yes"/>
      <point x="112" y="454"/>
      <point x="47" y="392"/>
    </contour>
    <contour>
      <point x="113" y="186" type="curve"/>
      <point x="357" y="186" type="line"/>
      <point x="348" y="111"/>
      <point x="312" y="48"/>
      <point x="230" y="48" type="curve" smooth="yes"/>
      <point x="143" y="48"/>
      <point x="106" y="120"/>
    </contour>
  </outline>
</glyph>
<glyph name="caron" format="1">
  <advance width="338"/>
  <unicode hex="02C7"/>
  <outline>
    <contour>
      <point x="322" y="638" type="line"/>
      <point x="296" y="671" type="line"/>
      <point x="194" y="586" type="line"/>
      <point x="84" y="670" type="line"/>
      <point x="58" y="636" type="line"/>
      <point x="179" y="519" type="line"/>
      <point x="201" y="519" type="line"/>
    </contour>
  </outline>
</glyph>
<glyph name="breve" format="1">
  <advance width="399"/>
  <unicode hex="02D8"/>
  <outline>
    <contour>
      <point x="320" y="655" type="curve"/>
      <point x="261" y="655" type="line"/>
      <point x="261" y="604"/>
      <point x="242" y="580"/>
      <point x="198" y="580" type="curve" smooth="yes"/>
      <point x="157" y="580"/>
      <point x="134" y="601"/>
      <point x="134" y="655" type="curve"/>
      <point x="75" y="655" type="line"/>
      <point x="75" y="574"/>
      <point x="116" y="532"/>
      <point x="197" y="532" type="curve" smooth="yes"/>
      <point x="277" y="532"/>
      <point x="320" y="572"/>
    </contour>
  </outline>
</glyph>
<glyph name="dotaccent" format="1">
  <advance width="209"/>
  <unicode hex="02D9"/>
  <outline>
    <contour>
      <point x="64" y="553" type="line"/>
      <point x="141" y="553" type="line"/>
      <point x="141" y="644" type="line"/>
      <point x="64" y="644" type="line"/>
    </contour>
  </outline>
</glyph>
<glyph name="ogonek" format="1">
  <advance width="280"/>
  <unicode hex="02DB"/>
  <outline>
    <contour>
      <point x="227" y="-189" type="curve"/>
      <point x="218" y="-140" type="line"/>
      <point x="200" y="-151"/>
      <point x="182" y="-155"/>
      <point x="164" y="-155" type="curve" smooth="yes"/>
      <point x="130" y="-155"/>
      <point x="106" y="-141"/>
      <point x="106" y="-99" type="curve" smooth="yes"/>
      <point x="106" y="-63"/>
      <point x="125" y="-23"/>
      <point x="185" y="8" type="curve"/>
      <point x="140" y="12" type="line"/>
      <point x="88" y="-10"/>
      <point x="44" y="-58"/>
      <point x="44" y="-118" type="curve" smooth="yes"/>
      <point x="44" y="-175"/>
      <point x="86" y="-209"/>
      <point x="148" y="-209" type="curve" smooth="yes"/>
      <point x="179" y="-209"/>
      <point x="205" y="-201"/>
    </contour>
  </outline>
</glyph>
<glyph name="hungarumlaut" format="1">
  <advance width="430"/>
  <unicode hex="02DD"/>
  <outline>
    <contour>
      <point x="382" y="624" type="line"/>
      <point x="342" y="683" type="line"/>
      <point x="188" y="551" type="line"/>
      <point x="209" y="520" type="line"/>
    </contour>
    <contour>
      <point x="226" y="678" type="line"/>
      <point x="169" y="718" type="line"/>
      <point x="69" y="541" type="line"/>
      <point x="100" y="519" type="line"/>
    </contour>
  </outline>
</glyph>
<glyph name="dotbelowcmb" format="1">
  <advance width="833"/>
  <unicode hex="0323"/>
  <outline>
    <contour>
      <point x="95" y="-174" type="line"/>
      <point x="172" y="-174" type="line"/>
      <point x="172" y="-83" type="line"/>
      <point x="95" y="-83" type="line"/>
    </contour>
  </outline>
</glyph>
<glyph name="uni0394" format="1">
  <advance width="492"/>
  <unicode hex="0394"/>
  <outline>
    <contour>
      <point x="-1" y="0" type="line"/>
      <point x="490" y="0" type="line"/>
      <point x="250" y="661" type="line"/>
    </contour>
    <contour>
      <point x="81" y="57" type="line"/>
      <point x="249" y="506" type="line"/>
      <point x="409" y="57" type="line"/>
    </contour>
  </outline>
</glyph>
